<svg viewBox="0 0 867 628" fill="none" xmlns="http://www.w3.org/2000/svg">
    <g clip-path="url(#clip0_77_1100)">
        <path
            d="M39.5757 525.517C43.2402 492.145 61.5022 459.263 89.6047 448.403C78.5219 482.752 78.5242 520.434 89.6114 554.781C93.9297 568.01 99.949 582.215 95.887 595.547C93.3598 603.843 87.1771 610.19 80.2662 614.159C73.3549 618.128 65.6847 620.019 58.1105 621.873L56.6199 623.269C44.596 592.52 35.9112 558.889 39.5757 525.517Z"
            fill="#F0F0F0" />
        <path
            d="M89.8833 449.034C73.5177 469.802 63.346 495.881 60.813 523.568C60.1743 529.517 60.3676 535.544 61.3858 541.425C62.5412 547.118 65.0215 552.356 68.5691 556.596C71.8068 560.625 75.5305 564.321 77.8471 569.171C79.0003 571.673 79.6735 574.424 79.8224 577.242C79.9713 580.059 79.5926 582.881 78.7111 585.521C76.6658 592.165 72.6346 597.58 68.5299 602.721C63.9725 608.428 59.1589 614.275 57.2217 621.841C56.987 622.758 55.7446 622.292 55.979 621.377C59.3495 608.212 70.6334 600.734 76.0147 588.877C78.5258 583.344 79.5797 576.921 77.2257 571.08C75.1672 565.973 71.3301 562.158 68.0208 558.111C64.5064 554.032 61.9274 549.041 60.509 543.573C59.2297 537.769 58.8317 531.762 59.3321 525.807C60.27 512.38 63.066 499.204 67.6178 486.761C72.7432 472.528 79.9808 459.392 89.0174 447.923C89.5769 447.213 90.4392 448.329 89.8833 449.034Z"
            fill="white" />
        <path
            d="M61.1653 514.599C57.1213 513.487 53.558 510.783 51.1117 506.97C48.6654 503.158 47.4954 498.484 47.8107 493.785C47.8774 492.834 49.1849 492.907 49.1181 493.859C48.8174 498.234 49.9076 502.587 52.192 506.132C54.4764 509.678 57.8045 512.181 61.5756 513.191C62.3949 513.412 61.9799 514.818 61.1653 514.599Z"
            fill="white" />
        <path
            d="M66.6901 554.798C73.9941 549.859 79.3859 541.984 81.7905 532.743C82.0281 531.827 83.2706 532.293 83.0333 533.207C80.5151 542.819 74.8894 551.001 67.2787 556.122C66.553 556.61 65.9684 555.283 66.6901 554.798Z"
            fill="white" />
        <path
            d="M73.9577 473.932C75.4433 474.732 77.0809 475.101 78.7235 475.006C80.3661 474.912 81.9624 474.357 83.3688 473.391C84.0887 472.893 84.6726 474.22 83.9574 474.715C82.3991 475.774 80.6356 476.384 78.8209 476.493C77.0063 476.602 75.1957 476.206 73.5473 475.34C73.3859 475.273 73.2531 475.139 73.1758 474.965C73.0985 474.791 73.0825 474.59 73.1312 474.403C73.1863 474.217 73.3041 474.064 73.4588 473.975C73.6136 473.887 73.7929 473.871 73.9577 473.932Z"
            fill="white" />
        <path
            d="M175.265 508.01C174.823 508.335 174.381 508.66 173.939 508.998C168.021 513.406 162.428 518.35 157.217 523.784C156.808 524.197 156.399 524.622 156.002 525.047C143.57 538.289 133.416 554.029 126.058 571.469C123.136 578.411 120.684 585.595 118.724 592.959C116.017 603.129 113.797 614.4 108.44 622.718C107.89 623.593 107.292 624.429 106.651 625.22H58.2392C58.1292 625.158 58.0186 625.108 57.908 625.045L55.9751 625.145C56.0528 624.757 56.1407 624.357 56.2183 623.969C56.2625 623.744 56.3176 623.519 56.3618 623.294C56.3947 623.144 56.4281 622.994 56.4502 622.856C56.461 622.806 56.4723 622.756 56.4831 622.718C56.5052 622.581 56.5387 622.456 56.5608 622.331C57.0467 620.092 57.5474 617.852 58.0628 615.613C58.0628 615.601 58.0628 615.601 58.0736 615.588C62.0392 598.538 67.2966 581.714 74.6416 566.327C74.8627 565.865 75.0833 565.389 75.3265 564.926C78.6713 558.012 82.5095 551.418 86.8028 545.212C89.1633 541.822 91.6738 538.57 94.3247 535.467C101.188 527.466 109.12 520.737 117.829 515.528C135.192 505.145 155.295 501.167 173.851 507.509C174.326 507.672 174.79 507.835 175.265 508.01Z"
            fill="#F0F0F0" />
        <path
            d="M175.156 508.706C151.049 514.128 129.063 528.015 112.322 548.395C108.649 552.71 105.6 557.653 103.286 563.043C101.182 568.376 100.378 574.25 100.956 580.055C101.4 585.479 102.408 590.969 101.679 596.421C101.27 599.206 100.345 601.861 98.9659 604.212C97.5868 606.563 95.7844 608.558 93.6769 610.065C88.512 613.975 82.4145 615.55 76.4044 616.856C69.7314 618.305 62.7799 619.691 57.2105 624.412C56.5357 624.984 55.7915 623.764 56.4653 623.193C66.155 614.98 79.1399 616.704 89.7401 610.906C94.6863 608.2 98.9426 603.79 100.168 597.522C101.239 592.04 100.204 586.378 99.7131 580.89C99.0755 575.237 99.6697 569.493 101.444 564.16C103.508 558.654 106.384 553.586 109.949 549.173C117.836 539.092 127.073 530.478 137.322 523.647C148.981 515.777 161.743 510.224 175.056 507.228C175.88 507.043 175.975 508.522 175.156 508.706Z"
            fill="white" />
        <path
            d="M117.371 541.473C114.733 537.828 113.326 533.24 113.399 528.527C113.473 523.815 115.023 519.286 117.773 515.749C118.332 515.035 119.337 515.985 118.778 516.699C116.212 519.988 114.768 524.207 114.707 528.595C114.647 532.983 115.973 537.252 118.447 540.629C118.984 541.364 117.905 542.204 117.371 541.473Z"
            fill="white" />
        <path
            d="M100.412 577.338C108.869 578.375 117.361 575.763 124.194 570.024C124.87 569.455 125.615 570.674 124.939 571.242C117.819 577.199 108.977 579.897 100.178 578.796C99.3393 578.691 99.5777 577.233 100.412 577.338Z"
            fill="white" />
        <path
            d="M149.204 517.726C149.965 519.377 151.077 520.788 152.438 521.833C153.8 522.878 155.37 523.523 157.006 523.711C157.845 523.804 157.606 525.262 156.772 525.169C154.965 524.952 153.233 524.237 151.726 523.087C150.219 521.936 148.984 520.385 148.128 518.57C148.035 518.406 148 518.209 148.031 518.017C148.062 517.826 148.156 517.655 148.294 517.539C148.437 517.428 148.612 517.385 148.783 517.42C148.953 517.455 149.105 517.565 149.204 517.726Z"
            fill="white" />
        <path d="M436.312 610.086L449.146 605.196L438.598 546.804L419.656 554.021L436.312 610.086Z"
            fill="#FFB6B6" />
        <path
            d="M431.628 606.588L435.241 605.212L447.415 593.342L456.904 596.957C461.176 595.33 465.845 595.691 469.882 597.961C473.918 600.231 476.994 604.225 478.431 609.063L478.607 609.655L437.223 625.423L431.628 606.588Z"
            fill="#2F2E41" />
        <path d="M374.045 600.477L387.223 604.007L405.513 548.121L386.064 542.912L374.045 600.477Z"
            fill="#FFB6B6" />
        <path
            d="M371.701 594.704L375.41 595.697L391.284 592.907L397.653 601.654C402.039 602.83 405.834 605.93 408.202 610.273C410.57 614.617 411.318 619.847 410.281 624.815L410.154 625.423L367.663 614.044L371.701 594.704Z"
            fill="#2F2E41" />
        <path d="M261.829 592.325H285.076V548.696H261.829V592.325Z" fill="#CACACA" />
        <path d="M283.911 571.782L280.928 576.762L336.721 619.639L339.705 614.659L283.911 571.782Z"
            fill="#CACACA" />
        <path d="M262.994 571.782L207.2 614.659L210.184 619.639L265.977 576.762L262.994 571.782Z"
            fill="#CACACA" />
        <path
            d="M338.213 625.423C342.248 625.423 345.519 621.719 345.519 617.149C345.519 612.579 342.248 608.874 338.213 608.874C334.178 608.874 330.907 612.579 330.907 617.149C330.907 621.719 334.178 625.423 338.213 625.423Z"
            fill="#CACACA" />
        <path
            d="M273.121 625.423C277.156 625.423 280.427 621.719 280.427 617.149C280.427 612.579 277.156 608.874 273.121 608.874C269.086 608.874 265.814 612.579 265.814 617.149C265.814 621.719 269.086 625.423 273.121 625.423Z"
            fill="#CACACA" />
        <path
            d="M208.693 625.423C212.728 625.423 215.999 621.719 215.999 617.149C215.999 612.579 212.728 608.874 208.693 608.874C204.657 608.874 201.386 612.579 201.386 617.149C201.386 621.719 204.657 625.423 208.693 625.423Z"
            fill="#CACACA" />
        <path d="M275.778 574.271H270.464V617.149H275.778V574.271Z" fill="#CACACA" />
        <path d="M268.471 568.254H278.434V510.332H268.471V568.254Z" fill="#CACACA" />
        <path
            d="M222.801 519.359V505.818C222.803 503.325 223.679 500.936 225.235 499.173C226.792 497.41 228.902 496.418 231.103 496.416H308.741C310.943 496.418 313.053 497.41 314.609 499.173C316.166 500.936 317.041 503.325 317.044 505.818V519.359C317.041 521.852 316.166 524.242 314.609 526.004C313.053 527.767 310.943 528.759 308.741 528.762H231.103C228.902 528.759 226.792 527.767 225.235 526.004C223.679 524.242 222.803 521.852 222.801 519.359Z"
            fill="#3F3D56" />
        <path
            d="M175.951 494.388L125.828 396.784C124.197 393.601 123.749 389.816 124.579 386.259C125.41 382.702 127.453 379.664 130.26 377.81L133.189 375.881C135.999 374.034 139.342 373.526 142.482 374.467C145.623 375.408 148.306 377.721 149.942 380.9L200.066 478.505C201.696 481.687 202.145 485.472 201.315 489.029C200.484 492.586 198.441 495.625 195.634 497.478L192.705 499.408C189.894 501.254 186.552 501.762 183.412 500.821C180.271 499.88 177.588 497.567 175.951 494.388Z"
            fill="#3F3D56" />
        <path
            d="M223.128 518.893C212.293 518.879 201.905 513.998 194.244 505.321C186.582 496.644 182.273 484.88 182.26 472.609H186.678C186.679 480.171 188.514 487.587 191.982 494.049C195.45 500.51 200.418 505.769 206.345 509.251C212.272 512.734 218.93 514.305 225.591 513.795C232.253 513.285 238.663 510.713 244.122 506.359L246.67 510.446C239.787 515.961 231.559 518.914 223.128 518.893Z"
            fill="#3F3D56" />
        <path
            d="M269.518 448.842C269.518 448.842 393.226 406.311 412.003 458.849C430.78 511.387 448.453 571.431 448.453 571.431L424.153 580.188L376.658 490.122C376.658 490.122 262.178 522.646 238.235 484.493L269.518 448.842Z"
            fill="#2F2E41" />
        <path
            d="M180.051 342.514L151.333 340.012L145.811 380.041C145.811 380.041 181.156 483.867 241.905 493.874L299.341 435.082L235.73 408.241L180.051 342.514Z"
            fill="#6C63FF" />
        <path
            d="M176.694 318.718C195.248 308.228 202.78 282.689 193.517 261.676C184.254 240.663 161.704 232.133 143.15 242.623C124.596 253.113 117.064 278.652 126.327 299.665C135.589 320.678 158.139 329.208 176.694 318.718Z"
            fill="#FFB8B8" />
        <path
            d="M170.34 324.722C168.607 326.364 165.995 327.23 162.422 327.356C151.908 327.723 141.578 324.174 133.017 317.253C124.455 310.331 118.135 300.42 115.026 289.039C113.461 283.312 112.136 274.768 114.708 266.59C116.557 260.712 120.188 255.783 123.446 251.623C126.266 248.022 129.21 244.494 132.195 241.139C135.761 237.129 140.013 232.675 145.345 230.583C149.253 229.051 153.44 228.915 157.49 228.783C158.902 228.736 160.362 228.689 161.78 228.582C165.307 228.446 168.769 227.468 171.94 225.712C172.591 225.317 173.309 225.085 174.046 225.031C174.783 224.977 175.521 225.103 176.211 225.401C176.914 225.702 177.552 226.17 178.081 226.774C178.61 227.379 179.018 228.104 179.278 228.903C179.79 230.472 180.251 231.887 181.818 232.41C182.383 232.581 182.977 232.594 183.547 232.446C184.117 232.298 184.646 231.994 185.088 231.561C185.322 231.332 185.602 231.174 185.903 231.099C186.205 231.024 186.518 231.036 186.815 231.133C187.112 231.226 187.384 231.401 187.608 231.641C187.831 231.881 188 232.179 188.098 232.51L188.227 232.94C188.549 232.689 188.919 232.531 189.307 232.478C189.694 232.425 190.087 232.48 190.452 232.637C190.981 232.853 191.429 233.266 191.722 233.809C192.015 234.352 192.136 234.991 192.065 235.623C191.541 240.828 189.739 245.763 186.864 249.867C184.876 252.648 182.424 254.959 179.649 256.669L179.204 256.947L178.897 256.422C166.419 261.644 162.608 276.45 163.224 288.667L162.133 288.833C162.048 288.436 161.893 288.063 161.678 287.735C161.463 287.408 161.191 287.133 160.88 286.927C160.519 286.668 160.117 286.492 159.696 286.409C159.275 286.326 158.844 286.338 158.427 286.444C157.635 286.727 156.934 287.269 156.414 288.002C155.893 288.735 155.576 289.627 155.502 290.564C155.445 291.543 155.569 292.525 155.866 293.447C156.163 294.37 156.626 295.212 157.226 295.92C158.532 297.389 160.04 298.607 161.692 299.527C162.441 300.006 163.215 300.501 163.949 301.045C168.102 304.15 171.099 308.88 172.366 314.33C172.936 316.824 173.263 320.382 171.586 323.17C171.236 323.75 170.817 324.273 170.34 324.722Z"
            fill="#2F2E41" />
        <path
            d="M416.889 474.959C411.11 531.259 398.748 583.94 398.748 583.94L375.553 580.187L380.836 474.02"
            fill="#2F2E41" />
        <path
            d="M188.171 287.498C187.062 287.497 185.982 287.094 185.089 286.349C184.196 285.603 183.537 284.554 183.208 283.354C168.137 274.458 176.104 268.185 177.142 261.124C176.941 260.386 176.87 259.611 176.933 258.842C176.996 258.073 177.193 257.326 177.511 256.644C177.829 255.961 178.263 255.356 178.788 254.863C179.313 254.37 179.918 253.999 180.569 253.771L195.976 248.379C197.292 247.92 198.715 248.071 199.932 248.799C201.149 249.526 202.062 250.771 202.469 252.26L208.535 274.49C208.94 275.98 208.806 277.591 208.164 278.969C207.521 280.347 206.422 281.381 205.108 281.843L189.701 287.235C189.205 287.409 188.69 287.497 188.171 287.498Z"
            fill="#3F3D56" />
        <path
            d="M198.24 247.608C199.361 247.599 200.455 248 201.36 248.75C202.265 249.501 202.932 250.562 203.263 251.775L209.653 274.504C210.085 276.027 209.977 277.68 209.35 279.114C209.049 279.817 208.627 280.445 208.11 280.961C207.592 281.477 206.988 281.871 206.334 282.12L202.87 283.437L193.25 249.222L196.714 247.906C197.206 247.718 197.721 247.618 198.24 247.608Z"
            fill="#6C63FF" />
        <path
            d="M118.596 300.16C117.878 300.16 117.18 299.9 116.602 299.417C116.025 298.935 115.599 298.257 115.386 297.481L113.781 291.599C113.651 291.122 113.605 290.62 113.646 290.123C113.687 289.626 113.814 289.143 114.02 288.702C114.226 288.26 114.507 287.869 114.846 287.55C115.185 287.231 115.577 286.992 115.998 286.844L185.564 262.497C185.985 262.35 186.428 262.298 186.867 262.344C187.306 262.39 187.733 262.534 188.123 262.767C188.513 263 188.858 263.318 189.14 263.703C189.421 264.087 189.633 264.531 189.763 265.008L191.368 270.889C191.629 271.852 191.543 272.894 191.128 273.785C190.712 274.677 190.002 275.345 189.152 275.643L119.585 299.99C119.265 300.103 118.931 300.16 118.596 300.16Z"
            fill="#3F3D56" />
        <path
            d="M307.837 484.304H297.471C296.14 484.304 294.86 483.726 293.893 482.69C292.926 481.655 292.346 480.239 292.272 478.734L290.513 443.366C290.473 442.565 290.578 441.763 290.821 441.009C291.064 440.255 291.441 439.565 291.928 438.982C292.415 438.399 293.001 437.935 293.652 437.617C294.303 437.3 295.004 437.137 295.713 437.137H309.596C310.304 437.137 311.005 437.3 311.656 437.617C312.307 437.935 312.894 438.399 313.381 438.982C313.868 439.566 314.244 440.255 314.487 441.009C314.731 441.763 314.835 442.565 314.795 443.366L313.037 478.734C312.962 480.239 312.382 481.655 311.415 482.69C310.448 483.726 309.168 484.304 307.837 484.304Z"
            fill="#E4E4E4" />
        <path d="M314.408 445.326L314.275 447.947H291.034L290.9 445.326H314.408Z" fill="#CACACA" />
        <path d="M314.113 451.221L313.986 453.842H291.323L291.195 451.221H314.113Z" fill="#CACACA" />
        <path d="M313.825 457.117L313.691 459.738H291.618L291.484 457.117H313.825Z" fill="#CACACA" />
        <path d="M313.529 463.014L313.396 465.633H291.913L291.779 463.014H313.529Z" fill="#CACACA" />
        <path d="M313.234 468.909L313.107 471.53H292.202L292.075 468.909H313.234Z" fill="#CACACA" />
        <path d="M312.944 474.805L312.812 477.426H292.497L292.363 474.805H312.944Z" fill="#CACACA" />
        <path
            d="M302.943 439.43C305.02 439.43 306.703 438.99 306.703 438.447C306.703 437.904 305.02 437.464 302.943 437.464C300.867 437.464 299.184 437.904 299.184 438.447C299.184 438.99 300.867 439.43 302.943 439.43Z"
            fill="#CACACA" />
        <path
            d="M303.228 439.43C303.114 439.43 303.001 439.404 302.896 439.355C302.791 439.305 302.695 439.233 302.615 439.142C302.534 439.051 302.47 438.942 302.427 438.823C302.383 438.704 302.361 438.576 302.361 438.447V419.836H296.87C296.64 419.835 296.42 419.731 296.258 419.547C296.096 419.363 296.005 419.113 296.005 418.853C296.005 418.593 296.096 418.344 296.258 418.16C296.42 417.975 296.64 417.872 296.87 417.871H303.228C303.342 417.871 303.455 417.896 303.56 417.945C303.666 417.995 303.761 418.067 303.842 418.158C303.922 418.25 303.986 418.358 304.03 418.477C304.073 418.596 304.096 418.724 304.096 418.853V438.447C304.096 438.576 304.073 438.704 304.03 438.823C303.986 438.942 303.922 439.051 303.842 439.142C303.761 439.233 303.666 439.305 303.56 439.355C303.455 439.404 303.342 439.43 303.228 439.43Z"
            fill="#CACACA" />
        <path
            d="M300.26 455.556C299.005 454.39 297.539 453.55 295.965 453.095C294.392 452.64 292.75 452.581 291.154 452.922C289.559 453.264 288.049 453.998 286.731 455.072C285.413 456.146 284.319 457.534 283.526 459.139L244.667 451.299L252.781 472.633L288.438 476.807C290.906 478.137 293.72 478.396 296.346 477.534C298.971 476.671 301.226 474.748 302.684 472.129C304.141 469.509 304.699 466.375 304.253 463.321C303.806 460.266 302.385 457.503 300.26 455.556Z"
            fill="#FFB6B6" />
        <path
            d="M274.994 477.046L203.777 470.706L203.635 470.401C203.363 469.818 176.379 411.928 172.409 398.646C169.938 390.649 169.957 381.935 172.463 373.951L172.535 373.758L172.695 373.653C175.978 371.525 179.803 370.726 183.54 371.39C187.276 372.054 190.702 374.14 193.252 377.304C205.489 392.656 214.408 411.02 219.306 430.945L222.08 442.282L273.032 455.207L274.994 477.046Z"
            fill="#6C63FF" />
        <path d="M548.697 53.8814L865.895 1.4469V345.421L548.697 292.988V53.8814Z" fill="#F2F2F2" />
        <path
            d="M867 346.867L547.592 294.07V52.7997L867 0V346.867ZM549.801 291.907L864.791 343.975V2.89397L549.801 54.9632V291.907Z"
            fill="#3F3D56" />
        <path
            d="M698.639 122.533C698.167 121.317 697.674 120.082 697.146 118.894C696.639 117.734 696.07 116.611 695.441 115.531C694.872 114.544 694.202 113.637 693.444 112.828C692.762 112.096 691.956 111.529 691.074 111.162C690.113 110.786 689.081 110.708 688.084 110.937C687.044 111.186 686.049 111.634 685.142 112.261C684.14 112.944 683.194 113.726 682.314 114.597C681.398 115.483 680.512 116.449 679.663 117.408C677.14 120.263 674.656 123.156 672.209 126.088C669.779 129.002 667.383 131.952 665.023 134.939C662.68 137.909 660.373 140.914 658.101 143.956C655.843 146.98 653.621 150.04 651.435 153.135L651.444 153.318L656.568 152.597L661.76 151.868L667.013 151.13L672.332 150.379C673.624 150.198 674.93 150.01 676.237 149.766C677.556 149.53 678.864 149.212 680.152 148.814C681.471 148.404 682.755 147.864 683.99 147.201C685.292 146.496 686.52 145.629 687.652 144.615C688.101 144.212 688.547 143.778 688.995 143.348C689.444 142.918 689.897 142.492 690.356 142.111C690.798 141.735 691.27 141.407 691.767 141.132C692.235 140.873 692.74 140.707 693.259 140.643C693.892 140.58 694.529 140.69 695.117 140.964C695.744 141.259 696.327 141.663 696.844 142.162C697.418 142.709 697.947 143.314 698.426 143.968C698.931 144.654 699.405 145.369 699.846 146.11C702.533 150.748 704.809 155.676 706.641 160.821C708.63 166.152 710.397 171.772 712.223 177.346C714.053 182.944 715.932 188.496 718.125 193.675C720.188 198.763 722.824 203.528 725.967 207.85C723.998 200.272 721.944 192.79 719.804 185.405C717.675 178.057 715.466 170.812 713.177 163.671C710.895 156.57 708.539 149.579 706.109 142.7C703.691 135.862 701.2 129.139 698.637 122.533H698.639Z"
            fill="white" />
        <path
            d="M629.509 124.565L629.431 124.668L629.353 124.771L629.274 124.872L629.196 124.973C629.004 125.153 628.812 125.334 628.621 125.519C628.431 125.703 628.241 125.889 628.051 126.075C627.862 126.263 627.674 126.451 627.486 126.641L626.924 127.211C626.572 127.569 626.223 127.93 625.874 128.293C625.526 128.657 625.18 129.024 624.835 129.394C624.49 129.764 624.147 130.14 623.806 130.52C623.464 130.9 623.124 131.28 622.785 131.659C622.112 132.421 621.445 133.194 620.785 133.98C620.124 134.765 619.471 135.561 618.825 136.365C618.179 137.173 617.54 137.992 616.907 138.825C616.273 139.657 615.648 140.5 615.029 141.354C614.708 141.797 614.389 142.243 614.072 142.692C613.756 143.142 613.441 143.594 613.128 144.048C612.815 144.503 612.504 144.962 612.196 145.424C611.887 145.887 611.58 146.349 611.274 146.809L611.207 146.684L611.142 146.559L611.078 146.434L611.02 146.291L611.004 146.259L610.989 146.226L610.974 146.194L610.96 146.16C610.308 144.726 609.795 143.216 609.429 141.657C609.042 140.019 608.79 138.344 608.675 136.653C608.553 134.92 608.566 133.178 608.712 131.447C608.857 129.711 609.142 127.994 609.564 126.318C609.959 124.732 610.498 123.197 611.172 121.737C611.773 120.429 612.515 119.211 613.381 118.11C614.152 117.126 615.054 116.286 616.055 115.62C616.978 115.008 617.999 114.611 619.059 114.452C620.087 114.306 621.131 114.413 622.119 114.766C623.151 115.144 624.11 115.738 624.948 116.517C625.89 117.391 626.711 118.419 627.385 119.568C628.161 120.884 628.794 122.302 629.27 123.79L629.279 123.816L629.287 123.844L629.296 123.871L629.304 123.897L629.357 124.064L629.409 124.231L629.46 124.4L629.509 124.565Z"
            fill="#6C63FF" />
        <path
            d="M630.612 237.635C631.782 237.784 632.954 237.966 634.129 238.183C635.303 238.4 636.481 238.65 637.663 238.934C638.848 239.221 640.034 239.542 641.222 239.898C642.41 240.254 643.602 240.646 644.798 241.074C648.487 242.405 652.094 244.009 655.597 245.875C659.304 247.848 662.902 250.072 666.371 252.536C670.062 255.157 673.621 258.007 677.033 261.074C680.67 264.343 684.158 267.821 687.482 271.493C688.626 272.753 689.761 274.045 690.887 275.37C692.013 276.696 693.132 278.056 694.244 279.451C695.356 280.846 696.457 282.273 697.548 283.732C698.638 285.19 699.72 286.683 700.794 288.21L701.188 288.773L701.581 289.339L701.974 289.909L702.365 290.48C702.393 290.53 702.432 290.572 702.478 290.601C702.524 290.63 702.576 290.646 702.629 290.647C702.674 290.642 702.718 290.626 702.758 290.601C702.797 290.575 702.832 290.54 702.858 290.498C702.923 290.402 702.959 290.285 702.962 290.165C702.966 290.025 702.927 289.888 702.852 289.777C701.784 288.211 700.704 286.676 699.612 285.171C698.52 283.667 697.418 282.198 696.307 280.766C695.203 279.331 694.085 277.928 692.953 276.556C691.821 275.184 690.686 273.85 689.546 272.553C688.406 271.256 687.257 269.991 686.099 268.758C684.942 267.526 683.78 266.329 682.614 265.168C681.449 264.007 680.276 262.881 679.095 261.791C677.915 260.7 676.732 259.642 675.546 258.617C674.359 257.593 673.166 256.603 671.969 255.646C670.772 254.69 669.573 253.768 668.372 252.88C667.173 251.996 665.969 251.146 664.762 250.33C663.554 249.513 662.347 248.731 661.141 247.984C659.936 247.241 658.729 246.532 657.519 245.858C656.31 245.183 655.102 244.545 653.898 243.944C652.694 243.341 651.488 242.773 650.278 242.24C649.068 241.707 647.864 241.209 646.664 240.746C645.465 240.285 644.267 239.859 643.07 239.467C641.873 239.075 640.68 238.719 639.491 238.398C638.303 238.078 637.116 237.792 635.93 237.54C634.745 237.289 633.565 237.071 632.39 236.889L631.948 236.821L631.507 236.757L631.056 236.697L630.612 236.641C630.573 236.64 630.534 236.652 630.501 236.676C630.466 236.702 630.436 236.737 630.413 236.777C630.387 236.824 630.368 236.875 630.356 236.929C630.341 236.991 630.333 237.055 630.334 237.119C630.334 237.182 630.341 237.245 630.356 237.306C630.368 237.363 630.388 237.417 630.414 237.468C630.437 237.512 630.467 237.551 630.503 237.583C630.534 237.612 630.571 237.63 630.612 237.635Z"
            fill="white" />
        <path
            d="M629.508 206.139C631.599 206.476 633.7 206.82 635.813 207.171C637.926 207.521 640.061 207.892 642.219 208.284C644.375 208.677 646.541 209.094 648.717 209.535C650.905 209.985 653.102 210.472 655.308 210.996C657.532 211.496 659.763 212.065 662 212.701C664.25 213.337 666.506 214.039 668.768 214.807C671.042 215.58 673.321 216.419 675.605 217.324C677.899 218.242 680.198 219.226 682.502 220.274C684.549 221.209 686.593 222.228 688.632 223.332C690.671 224.437 692.712 225.627 694.755 226.904C696.799 228.188 698.833 229.557 700.859 231.011C702.885 232.464 704.91 234.009 706.934 235.645C708.826 237.18 710.698 238.807 712.548 240.524C714.399 242.241 716.232 244.055 718.048 245.965C719.863 247.876 721.652 249.874 723.413 251.961C725.175 254.047 726.912 256.227 728.625 258.501C730.318 260.745 731.96 263.085 733.551 265.522C735.141 267.959 736.688 270.494 738.19 273.127C739.685 275.761 741.124 278.48 742.504 281.283C743.885 284.087 745.206 286.977 746.468 289.953C746.625 290.329 746.781 290.704 746.936 291.079C747.09 291.455 747.244 291.834 747.396 292.216C747.549 292.597 747.7 292.978 747.85 293.361C748 293.744 748.148 294.128 748.292 294.513C748.313 294.579 748.345 294.639 748.387 294.689C748.429 294.74 748.481 294.78 748.537 294.807C748.583 294.824 748.631 294.829 748.678 294.822C748.726 294.814 748.771 294.794 748.81 294.763C748.899 294.694 748.962 294.59 748.988 294.472C749.019 294.321 749.005 294.163 748.947 294.023C747.753 290.95 746.492 287.953 745.162 285.031C743.832 282.109 742.441 279.283 740.989 276.552C739.543 273.815 738.037 271.165 736.472 268.603C734.908 266.041 733.295 263.585 731.636 261.234C729.963 258.867 728.256 256.586 726.515 254.391C724.774 252.196 723.008 250.099 721.22 248.098C719.431 246.097 717.615 244.186 715.771 242.365C713.927 240.545 712.068 238.824 710.194 237.203C708.24 235.513 706.272 233.906 704.29 232.383C702.307 230.859 700.324 229.426 698.338 228.085C696.35 226.741 694.356 225.481 692.355 224.306C690.354 223.13 688.354 222.043 686.353 221.044C684.038 219.9 681.725 218.83 679.414 217.832C677.117 216.84 674.823 215.922 672.532 215.08C670.248 214.234 667.973 213.461 665.708 212.762C663.452 212.067 661.201 211.441 658.956 210.886C656.707 210.302 654.468 209.765 652.237 209.276C650.019 208.786 647.81 208.331 645.61 207.911C643.424 207.494 641.248 207.099 639.082 206.725C636.934 206.356 634.792 206 632.656 205.657L631.866 205.532L631.079 205.407L630.292 205.276L629.508 205.15C629.466 205.144 629.424 205.152 629.386 205.175C629.349 205.197 629.319 205.232 629.301 205.276C629.253 205.376 629.229 205.488 629.232 205.602C629.231 205.724 629.255 205.845 629.302 205.955C629.321 206.002 629.349 206.043 629.385 206.075C629.421 206.107 629.463 206.129 629.508 206.139Z"
            fill="white" />
        <path
            d="M769.062 283.521C768.723 282.854 768.385 282.184 768.049 281.511C767.712 280.838 767.376 280.168 767.041 279.501C766.706 278.834 766.372 278.164 766.04 277.492C765.707 276.82 765.375 276.15 765.045 275.483C762.356 270.04 759.721 264.588 757.142 259.128C754.576 253.699 752.064 248.258 749.605 242.808C747.159 237.387 744.766 231.954 742.426 226.507C740.095 221.087 737.812 215.655 735.578 210.213C734.067 206.53 732.581 202.843 731.119 199.151C729.656 195.459 728.22 191.774 726.811 188.095C725.403 184.416 724.018 180.731 722.656 177.041C721.293 173.351 719.957 169.666 718.646 165.986C718.022 164.234 717.403 162.483 716.788 160.732C716.174 158.98 715.566 157.229 714.964 155.478C714.361 153.727 713.764 151.975 713.172 150.224C712.58 148.473 711.994 146.722 711.413 144.97C710.962 143.613 710.514 142.254 710.07 140.895C709.625 139.535 709.183 138.177 708.744 136.818C708.306 135.46 707.871 134.101 707.44 132.741C707.008 131.382 706.58 130.023 706.154 128.663C706.032 128.275 705.912 127.886 705.792 127.498C705.672 127.109 705.552 126.72 705.434 126.33C705.315 125.941 705.197 125.552 705.079 125.162L704.727 123.992C704.451 123.075 704.175 122.158 703.901 121.24C703.626 120.323 703.351 119.408 703.075 118.496C702.798 117.584 702.52 116.674 702.238 115.768C701.957 114.861 701.672 113.96 701.384 113.063C701.052 112.043 700.708 111.011 700.334 109.996C699.961 108.982 699.561 107.987 699.131 107.038C698.715 106.112 698.246 105.217 697.728 104.361C697.242 103.558 696.687 102.812 696.071 102.134C695.807 101.834 695.522 101.559 695.218 101.312C694.929 101.078 694.622 100.873 694.301 100.702C693.991 100.536 693.668 100.405 693.336 100.31C693.008 100.217 692.674 100.161 692.336 100.144C691.857 100.138 691.379 100.214 690.919 100.369C690.447 100.529 689.991 100.746 689.558 101.014C689.105 101.295 688.668 101.609 688.25 101.953C687.821 102.299 687.401 102.674 686.988 103.055C683.973 105.861 681.027 108.785 678.152 111.826C675.3 114.846 672.52 117.978 669.813 121.223C667.123 124.445 664.506 127.775 661.963 131.211C659.435 134.626 656.981 138.142 654.6 141.762C652.23 145.348 649.936 149.019 647.719 152.777C645.514 156.517 643.386 160.34 641.333 164.248C639.292 168.135 637.327 172.103 635.438 176.15C633.564 180.173 631.766 184.274 630.043 188.453C630.027 188.504 630.001 188.549 629.967 188.586C629.933 188.623 629.891 188.65 629.846 188.665C629.808 188.672 629.769 188.668 629.732 188.655C629.696 188.641 629.662 188.618 629.635 188.587C629.567 188.515 629.521 188.42 629.504 188.316C629.481 188.189 629.496 188.057 629.546 187.94C629.755 187.432 629.965 186.925 630.176 186.419C630.388 185.913 630.601 185.41 630.816 184.909C631.03 184.409 631.245 183.906 631.461 183.401C631.677 182.895 631.894 182.395 632.114 181.9C634.844 175.667 637.746 169.615 640.821 163.745C643.914 157.835 647.181 152.12 650.624 146.599C654.089 141.037 657.725 135.683 661.532 130.538C665.372 125.352 669.382 120.39 673.563 115.653C674.269 114.853 674.981 114.061 675.698 113.276C676.414 112.491 677.136 111.712 677.864 110.938C678.591 110.165 679.323 109.399 680.061 108.64C680.798 107.881 681.54 107.129 682.287 106.382C682.664 106.006 683.042 105.631 683.422 105.256C683.801 104.882 684.182 104.51 684.564 104.141C684.946 103.77 685.329 103.403 685.715 103.04C686.1 102.676 686.487 102.317 686.877 101.961C687.241 101.583 687.627 101.231 688.031 100.908C688.419 100.599 688.825 100.321 689.246 100.075C689.652 99.837 690.073 99.633 690.506 99.4646C690.929 99.3016 691.362 99.1761 691.802 99.0893C693.248 98.9428 694.687 99.445 695.81 100.488C697.082 101.68 698.142 103.136 698.935 104.776C699.867 106.634 700.671 108.571 701.339 110.57C702.041 112.599 702.649 114.642 703.197 116.467C703.369 117.042 703.542 117.616 703.715 118.189C703.888 118.763 704.062 119.337 704.238 119.912C704.412 120.486 704.587 121.059 704.763 121.633C704.939 122.207 705.116 122.78 705.294 123.353C705.964 125.531 706.641 127.708 707.327 129.883C708.013 132.058 708.707 134.234 709.409 136.41C710.112 138.588 710.822 140.763 711.54 142.938C712.258 145.112 712.984 147.287 713.72 149.464C714.174 150.808 714.631 152.151 715.091 153.493C715.55 154.835 716.013 156.178 716.48 157.523C716.947 158.867 717.417 160.211 717.89 161.554C718.362 162.896 718.837 164.238 719.313 165.58C720.808 169.773 722.332 173.957 723.885 178.134C725.443 182.327 727.031 186.512 728.648 190.691C730.268 194.886 731.921 199.075 733.606 203.258C735.295 207.457 737.015 211.651 738.766 215.839C741.096 221.413 743.48 226.975 745.916 232.524C748.366 238.103 750.87 243.671 753.427 249.229C756.004 254.816 758.636 260.396 761.323 265.968C764.029 271.572 766.793 277.168 769.617 282.757C769.689 282.899 769.72 283.063 769.706 283.226C769.694 283.363 769.648 283.493 769.572 283.601C769.543 283.646 769.506 283.683 769.462 283.708C769.418 283.733 769.37 283.746 769.321 283.746C769.265 283.736 769.212 283.71 769.166 283.671C769.121 283.632 769.085 283.58 769.062 283.521Z"
            fill="white" />
        <path
            d="M654.066 136.617L653.828 136.18L653.589 135.744L653.351 135.307L653.111 134.87C652.479 133.726 651.837 132.588 651.177 131.486C650.516 130.383 649.836 129.313 649.128 128.319C648.445 127.344 647.708 126.419 646.919 125.552C646.174 124.734 645.36 124 644.489 123.362C644.093 123.065 643.679 122.801 643.25 122.571C642.836 122.351 642.409 122.167 641.971 122.021C641.543 121.879 641.105 121.775 640.663 121.712C640.223 121.65 639.78 121.628 639.337 121.648C638.878 121.699 638.423 121.786 637.974 121.909C637.519 122.033 637.071 122.191 636.635 122.383C636.186 122.579 635.749 122.807 635.326 123.066C634.888 123.333 634.464 123.629 634.057 123.953C633.859 124.1 633.663 124.252 633.468 124.409C633.273 124.566 633.079 124.726 632.886 124.888C632.693 125.055 632.501 125.222 632.31 125.389C632.12 125.555 631.93 125.728 631.74 125.905C631.525 126.105 631.31 126.308 631.095 126.514C630.881 126.72 630.668 126.929 630.456 127.14C630.244 127.349 630.032 127.56 629.821 127.772L629.19 128.408C628.796 128.808 628.404 129.211 628.014 129.617C627.623 130.023 627.235 130.433 626.848 130.846C626.462 131.263 626.077 131.68 625.694 132.097C625.311 132.514 624.93 132.938 624.551 133.368C623.797 134.217 623.05 135.08 622.311 135.956C621.572 136.833 620.841 137.721 620.118 138.621C619.396 139.521 618.681 140.434 617.972 141.361C617.264 142.289 616.565 143.228 615.874 144.179C615.515 144.672 615.159 145.169 614.805 145.668C614.45 146.168 614.098 146.671 613.749 147.177C613.399 147.683 613.052 148.193 612.707 148.706C612.362 149.218 612.02 149.734 611.679 150.253C611.362 150.735 611.047 151.219 610.734 151.707C610.421 152.194 610.111 152.683 609.802 153.176C609.494 153.668 609.187 154.163 608.882 154.661C608.577 155.159 608.274 155.659 607.973 156.162C607.954 156.204 607.924 156.239 607.888 156.263C607.852 156.287 607.811 156.299 607.769 156.297C607.731 156.288 607.695 156.27 607.664 156.244C607.633 156.218 607.607 156.184 607.589 156.146C607.537 156.051 607.509 155.943 607.507 155.832C607.502 155.709 607.531 155.588 607.592 155.486L607.831 155.081L608.07 154.684L608.311 154.287L608.552 153.893C608.779 153.523 609.007 153.154 609.236 152.787C609.465 152.42 609.695 152.054 609.926 151.689C610.157 151.325 610.39 150.961 610.624 150.599C610.858 150.238 611.093 149.877 611.329 149.519C611.759 148.862 612.192 148.212 612.63 147.567C613.067 146.923 613.509 146.282 613.955 145.646C614.397 145.015 614.843 144.386 615.294 143.761C615.745 143.135 616.2 142.515 616.659 141.901C617.373 140.942 618.094 139.998 618.823 139.067C619.552 138.137 620.288 137.219 621.032 136.315C621.779 135.409 622.533 134.516 623.294 133.638C624.055 132.76 624.826 131.894 625.607 131.04C625.996 130.614 626.388 130.192 626.781 129.773C627.174 129.354 627.57 128.937 627.967 128.522C628.365 128.11 628.764 127.702 629.165 127.297C629.565 126.893 629.968 126.492 630.374 126.094L630.742 125.736C630.865 125.618 630.989 125.5 631.113 125.384C631.237 125.267 631.362 125.151 631.486 125.036C631.612 124.921 631.737 124.807 631.862 124.696C632.147 124.43 632.435 124.175 632.726 123.929C633.016 123.683 633.311 123.447 633.609 123.221C633.904 122.994 634.203 122.777 634.507 122.571C634.811 122.366 635.116 122.169 635.421 121.982C635.847 121.718 636.29 121.488 636.746 121.296C637.188 121.109 637.641 120.962 638.103 120.854C638.555 120.748 639.015 120.683 639.477 120.66C639.937 120.638 640.399 120.658 640.857 120.72C641.306 120.802 641.749 120.92 642.183 121.072C642.624 121.227 643.056 121.415 643.475 121.636C643.907 121.863 644.326 122.121 644.73 122.409C645.149 122.708 645.553 123.035 645.938 123.388C646.795 124.158 647.594 125.007 648.326 125.926C649.101 126.897 649.829 127.913 650.508 128.971C651.208 130.052 651.883 131.187 652.544 132.349C653.206 133.511 653.854 134.694 654.499 135.874C654.561 135.99 654.589 136.125 654.579 136.26C654.572 136.383 654.538 136.503 654.479 136.607C654.459 136.649 654.431 136.685 654.397 136.714C654.363 136.743 654.324 136.763 654.283 136.773C654.237 136.775 654.192 136.761 654.153 136.733C654.115 136.705 654.084 136.664 654.066 136.617Z"
            fill="white" />
        <path
            d="M730.492 186.452L740.36 181.045L745.341 178.317C745.746 178.073 746.153 177.836 746.561 177.608C746.97 177.379 747.382 177.158 747.797 176.944C748.212 176.729 748.629 176.523 749.049 176.326C749.468 176.128 749.89 175.937 750.312 175.754C750.677 175.597 751.054 175.48 751.439 175.404C752.198 175.253 752.976 175.27 753.73 175.453C754.116 175.546 754.493 175.68 754.857 175.853C755.192 176.039 755.517 176.248 755.829 176.478C756.15 176.714 756.459 176.97 756.754 177.245C757.058 177.528 757.348 177.83 757.624 178.148C757.909 178.477 758.179 178.821 758.434 179.18C758.698 179.545 758.958 179.918 759.214 180.297C759.469 180.677 759.72 181.063 759.967 181.457C760.214 181.851 760.455 182.251 760.692 182.659C760.928 183.067 761.16 183.481 761.387 183.902C761.669 184.409 761.951 184.918 762.232 185.429C762.514 185.939 762.794 186.451 763.074 186.963L763.915 188.503L764.757 190.046C765.919 192.171 767.082 194.305 768.245 196.445C769.409 198.586 770.577 200.74 771.749 202.906C772.921 205.075 774.093 207.249 775.267 209.429C776.441 211.608 777.619 213.803 778.801 216.012C779.98 218.22 781.162 220.435 782.349 222.658C783.536 224.881 784.724 227.118 785.911 229.367C787.103 231.618 788.295 233.876 789.488 236.139C790.681 238.403 791.878 240.681 793.079 242.976C794.283 245.273 795.487 247.579 796.693 249.893C797.898 252.207 799.108 254.534 800.321 256.874C801.535 259.215 802.75 261.564 803.966 263.921C805.182 266.277 806.402 268.648 807.624 271.033L808.074 271.909L808.523 272.785L808.973 273.66L809.422 274.536C809.453 274.604 809.496 274.664 809.548 274.712C809.6 274.761 809.66 274.796 809.725 274.817C809.779 274.832 809.835 274.834 809.89 274.824C809.945 274.813 809.998 274.79 810.044 274.756C810.142 274.686 810.211 274.576 810.238 274.45C810.267 274.294 810.24 274.131 810.165 273.997C808.929 271.584 807.695 269.18 806.461 266.784C805.228 264.388 803.998 262.006 802.772 259.638C801.547 257.27 800.322 254.91 799.098 252.559C797.875 250.207 796.655 247.872 795.439 245.554C794.22 243.224 793.003 240.903 791.786 238.589C790.57 236.274 789.357 233.975 788.149 231.691C786.941 229.405 785.733 227.127 784.526 224.857C783.319 222.587 782.115 220.331 780.914 218.089C779.716 215.846 778.518 213.611 777.321 211.384C776.125 209.156 774.932 206.943 773.744 204.743C772.555 202.543 771.368 200.35 770.181 198.165C768.994 195.98 767.811 193.809 766.633 191.652L765.749 190.039L764.866 188.431L763.982 186.826L763.098 185.225C762.852 184.775 762.605 184.325 762.358 183.875C762.112 183.425 761.863 182.978 761.613 182.535C761.362 182.092 761.108 181.655 760.851 181.222C760.594 180.789 760.33 180.364 760.061 179.948C759.573 179.187 759.048 178.456 758.489 177.76C757.954 177.092 757.369 176.477 756.74 175.923C756.155 175.403 755.511 174.974 754.826 174.646C754.16 174.332 753.449 174.16 752.728 174.138C752.302 174.16 751.878 174.211 751.458 174.29C751.036 174.37 750.618 174.478 750.207 174.613C749.792 174.75 749.384 174.914 748.986 175.103C748.58 175.297 748.184 175.516 747.799 175.759L746.53 176.452L745.266 177.146L744.005 177.841L742.753 178.532L732.761 184.017L730.298 185.371C730.245 185.401 730.197 185.444 730.159 185.497C730.121 185.549 730.093 185.61 730.077 185.675C730.041 185.81 730.036 185.953 730.061 186.092C730.078 186.216 730.13 186.33 730.209 186.418C730.246 186.458 730.294 186.482 730.346 186.488C730.397 186.494 730.448 186.482 730.492 186.452Z"
            fill="white" />
        <path
            d="M631.586 118.684L631.125 119.309C630.283 117.385 629.166 115.631 627.82 114.118C626.685 112.838 625.323 111.845 623.823 111.207C622.439 110.632 620.951 110.455 619.492 110.694C617.936 110.97 616.458 111.65 615.172 112.681C613.714 113.847 612.447 115.294 611.428 116.955C610.295 118.787 609.378 120.777 608.698 122.877C607.953 125.153 607.429 127.515 607.136 129.921C606.822 132.46 606.745 135.029 606.905 137.586C606.982 138.862 607.122 140.131 607.323 141.389C607.516 142.602 607.772 143.801 608.089 144.98C608.392 146.109 608.759 147.214 609.187 148.289C609.593 149.312 610.065 150.3 610.597 151.245L610.208 151.935C609.653 150.951 609.162 149.922 608.74 148.857C608.294 147.738 607.912 146.588 607.596 145.413C607.267 144.186 607.001 142.938 606.8 141.675C606.591 140.366 606.446 139.045 606.366 137.718C606.199 135.056 606.28 132.383 606.607 129.74C606.912 127.237 607.456 124.779 608.23 122.409C608.937 120.223 609.892 118.151 611.07 116.243C612.13 114.513 613.449 113.006 614.967 111.79C616.305 110.715 617.844 110.005 619.465 109.715C620.984 109.464 622.534 109.645 623.976 110.243C625.538 110.906 626.958 111.937 628.141 113.27C629.544 114.848 630.708 116.677 631.586 118.684Z"
            fill="white" />
        <path
            d="M678.187 182.993C678.091 182.896 678.005 182.788 677.93 182.669C677.85 182.543 677.781 182.409 677.723 182.268C677.662 182.118 677.612 181.963 677.574 181.803C677.534 181.636 677.506 181.465 677.489 181.292C677.472 181.117 677.467 180.94 677.474 180.764C677.48 180.591 677.499 180.419 677.529 180.25C677.558 180.085 677.598 179.924 677.65 179.767C677.7 179.617 677.762 179.472 677.836 179.334L675.918 147.936L679.122 148.186L680.014 179.209C680.15 179.435 680.255 179.684 680.324 179.946C680.398 180.219 680.44 180.502 680.45 180.788C680.461 181.076 680.44 181.364 680.387 181.646C680.337 181.921 680.251 182.187 680.133 182.434C680.029 182.656 679.89 182.854 679.722 183.018C679.582 183.162 679.414 183.267 679.232 183.326C679.058 183.377 678.876 183.377 678.702 183.326C678.509 183.262 678.333 183.148 678.187 182.993Z"
            fill="#9E616A" />
        <path
            d="M680.429 146.632L679.584 157.109L679.702 163.514L676.174 164.081L675.47 158.787L675.08 144.764C675.066 144.234 675.114 143.704 675.223 143.189C675.321 142.716 675.478 142.262 675.69 141.839C675.878 141.459 676.125 141.12 676.42 140.839C676.687 140.584 677.006 140.407 677.348 140.324C677.685 140.246 678.035 140.279 678.356 140.42C678.691 140.57 678.989 140.807 679.229 141.111C679.504 141.458 679.723 141.857 679.875 142.29C680.053 142.786 680.165 143.31 680.206 143.845L680.429 146.632Z"
            fill="#2F2E41" />
        <path d="M667.052 237.663L664.971 237.503L663.984 224.177L667.052 224.363V237.663Z"
            fill="#9E616A" />
        <path
            d="M667.583 241.048L660.902 240.511V240.371C660.9 239.811 660.969 239.253 661.106 238.715C661.224 238.242 661.41 237.795 661.658 237.391C661.872 237.039 662.153 236.746 662.481 236.532C662.788 236.335 663.138 236.244 663.49 236.269L667.584 236.576L667.583 241.048Z"
            fill="#2F2E41" />
        <path d="M684.634 239.006L682.466 238.839L681.438 225.234L684.634 225.429V239.006Z"
            fill="#9E616A" />
        <path
            d="M685.186 242.461L678.227 241.902V241.76C678.225 241.188 678.296 240.618 678.438 240.07C678.562 239.586 678.757 239.13 679.015 238.72C679.239 238.36 679.532 238.06 679.872 237.844C680.193 237.644 680.558 237.551 680.923 237.578L685.186 237.898V242.461Z"
            fill="#2F2E41" />
        <path
            d="M676.263 120.307C676.892 120.27 677.518 120.438 678.066 120.79C678.652 121.173 679.156 121.697 679.544 122.325C679.988 123.042 680.324 123.837 680.538 124.679C680.785 125.633 680.908 126.622 680.904 127.616C680.907 128.623 680.783 129.625 680.538 130.592C680.321 131.466 679.985 132.297 679.544 133.054C679.156 133.724 678.653 134.3 678.066 134.747C677.53 135.153 676.907 135.386 676.263 135.422C675.634 135.447 675.012 135.269 674.468 134.909C673.888 134.519 673.39 133.991 673.008 133.362C672.569 132.647 672.237 131.856 672.025 131.019C671.783 130.074 671.662 129.094 671.666 128.11C671.664 127.114 671.785 126.123 672.025 125.165C672.24 124.296 672.571 123.47 673.007 122.715C673.391 122.046 673.887 121.469 674.468 121.018C674.999 120.602 675.619 120.357 676.263 120.307Z"
            fill="#9E616A" />
        <path
            d="M675.667 138.514L678.885 138.983C679.29 139.91 679.615 140.879 679.856 141.877C680.106 142.911 680.278 143.968 680.369 145.035C680.463 146.128 680.479 147.227 680.415 148.323C680.352 149.425 680.207 150.518 679.981 151.593L677.551 163.12C677.551 163.12 677.762 163.806 678.078 164.996C678.394 166.186 678.817 167.886 679.239 169.906C679.661 171.926 680.086 174.273 680.403 176.756C680.74 179.297 680.918 181.862 680.933 184.432C681.064 188.352 681.402 192.261 681.945 196.136C682.553 201.047 683.365 206.644 684.179 211.923C684.993 217.202 685.812 222.193 686.426 225.852C687.04 229.511 687.451 231.856 687.451 231.856L678.304 232.776L674.371 193.712L669.014 231.974L662.98 229.94L666.294 179.986L668.496 163.444L668.59 155.367C668.59 155.367 668.531 154.991 668.479 154.366C668.412 153.534 668.389 152.699 668.413 151.864C668.44 150.771 668.566 149.683 668.789 148.619C669.023 147.47 669.434 146.376 670.004 145.388L672.894 138.656L675.667 138.514Z"
            fill="#CACACA" />
        <path
            d="M670.909 125.469L677.669 125.085V120.237C677.31 120.017 676.941 119.82 676.563 119.646C676.232 119.485 675.882 119.381 675.524 119.337C675.205 119.297 674.884 119.367 674.601 119.538C674.273 119.761 674.01 120.087 673.843 120.476C673.432 120.507 673.037 120.664 672.699 120.929C672.328 121.219 672.011 121.589 671.766 122.019C671.488 122.501 671.276 123.029 671.139 123.583C670.985 124.197 670.908 124.831 670.909 125.469Z"
            fill="#2F2E41" />
        <path
            d="M678.052 119.357C678.529 119.329 679.006 119.425 679.446 119.636C679.886 119.847 680.278 120.169 680.592 120.576C681.327 121.536 681.877 122.659 682.206 123.874C682.608 125.253 682.892 126.672 683.053 128.113C683.213 129.45 683.295 130.798 683.298 132.147C683.305 132.713 683.261 133.277 683.166 133.832C683.097 134.24 682.969 134.632 682.787 134.992C682.636 135.281 682.433 135.532 682.191 135.726C681.953 135.911 681.689 136.048 681.411 136.133L681.004 132.63L680.053 136.347L679.808 136.357L679.557 136.364H679.041L678.72 135.301L678.005 136.39C677.291 136.423 676.611 136.497 675.994 136.515C675.443 136.559 674.89 136.49 674.36 136.311C674.122 136.221 673.902 136.076 673.713 135.887C673.525 135.698 673.372 135.468 673.264 135.211C672.958 134.403 672.82 133.527 672.86 132.65C672.863 131.31 672.936 129.971 673.081 128.641C673.229 127.188 673.496 125.754 673.878 124.357C674.2 123.096 674.738 121.92 675.46 120.894C675.774 120.448 676.167 120.081 676.613 119.816C677.059 119.551 677.549 119.395 678.052 119.357Z"
            fill="#2F2E41" />
        <path opacity="0.2"
            d="M672.059 165.472L671.889 153.349L671.438 147.978L670.327 153.338L672.059 165.472Z"
            fill="black" />
        <path
            d="M680.603 163.759L675.478 163.816V139.31L680.603 139.105C681.112 139.088 681.614 139.233 682.053 139.525C682.524 139.841 682.929 140.267 683.241 140.776C683.599 141.355 683.87 141.997 684.044 142.676C684.242 143.442 684.342 144.236 684.34 145.034V157.638C684.341 158.44 684.241 159.238 684.044 160.007C683.869 160.699 683.597 161.354 683.241 161.949C682.929 162.475 682.525 162.923 682.053 163.265C681.62 163.579 681.118 163.752 680.603 163.765V163.759Z"
            fill="#6C63FF" />
        <path
            d="M679.886 150.572C679.798 150.574 679.71 150.547 679.634 150.496C679.553 150.44 679.483 150.364 679.429 150.275C679.367 150.174 679.32 150.062 679.29 149.944C679.255 149.811 679.238 149.673 679.238 149.534V140.391L680.534 140.341V149.497C680.535 149.637 680.518 149.776 680.484 149.91C680.453 150.031 680.405 150.145 680.342 150.249C680.288 150.341 680.218 150.42 680.136 150.481C680.061 150.536 679.974 150.567 679.884 150.571L679.886 150.572Z"
            fill="#3F3D56" />
        <path
            d="M681.447 161.811L677.684 161.863C677.572 161.863 677.462 161.829 677.367 161.763C677.264 161.69 677.176 161.594 677.108 161.481C677.031 161.353 676.972 161.211 676.934 161.062C676.891 160.894 676.869 160.72 676.87 160.545V156.889C676.869 156.714 676.891 156.54 676.934 156.371C676.972 156.221 677.031 156.078 677.108 155.948C677.176 155.832 677.264 155.732 677.367 155.656C677.461 155.586 677.571 155.548 677.684 155.544L681.447 155.466C681.56 155.464 681.671 155.498 681.767 155.564C681.871 155.636 681.959 155.731 682.028 155.845C682.107 155.973 682.166 156.116 682.205 156.266C682.248 156.435 682.27 156.61 682.27 156.785V160.464C682.27 160.64 682.248 160.815 682.205 160.985C682.166 161.136 682.106 161.28 682.028 161.411C681.96 161.527 681.871 161.627 681.767 161.703C681.671 161.771 681.56 161.809 681.447 161.811Z"
            fill="#3F3D56" />
        <path
            d="M670.818 154.541C670.562 154.01 670.341 153.46 670.155 152.894C669.962 152.306 669.803 151.705 669.679 151.095C669.551 150.465 669.457 149.826 669.397 149.183C669.336 148.526 669.31 147.864 669.318 147.203C669.316 145.928 669.43 144.655 669.66 143.407C669.854 142.325 670.166 141.274 670.589 140.279C670.922 139.468 671.39 138.736 671.969 138.126C672.43 137.632 673.029 137.334 673.663 137.286C674.016 137.301 674.363 137.389 674.687 137.547C675.026 137.715 675.338 137.942 675.614 138.222C675.917 138.528 676.184 138.879 676.406 139.265C676.654 139.694 676.86 140.153 677.018 140.633L676.653 141.021C676.514 140.59 676.333 140.177 676.113 139.791C675.916 139.444 675.679 139.128 675.408 138.851C675.163 138.596 674.883 138.387 674.579 138.232C674.29 138.085 673.979 138 673.663 137.981C673.088 138.027 672.546 138.303 672.133 138.759C671.609 139.328 671.186 140.006 670.887 140.756C670.504 141.683 670.223 142.66 670.048 143.664C669.841 144.825 669.738 146.006 669.741 147.191C669.732 147.811 669.756 148.432 669.813 149.049C669.868 149.653 669.955 150.252 670.074 150.843C670.189 151.417 670.337 151.981 670.516 152.533C670.69 153.066 670.898 153.583 671.137 154.082L670.818 154.541Z"
            fill="#6C63FF" />
        <path
            d="M672.879 184.198C672.778 184.084 672.688 183.958 672.611 183.822C672.529 183.675 672.459 183.52 672.403 183.358C672.342 183.19 672.294 183.016 672.258 182.839C672.221 182.654 672.196 182.465 672.184 182.275C672.171 182.083 672.171 181.891 672.184 181.7C672.197 181.513 672.223 181.328 672.261 181.145C672.298 180.97 672.348 180.799 672.41 180.633C672.471 180.474 672.545 180.322 672.631 180.18L671.687 145.831L675.148 146.404L674.992 180.27C675.131 180.528 675.235 180.809 675.301 181.102C675.444 181.708 675.448 182.346 675.313 182.956C675.246 183.249 675.141 183.53 675.001 183.789C674.88 184.019 674.722 184.22 674.535 184.383C674.372 184.523 674.183 184.617 673.982 184.657C673.79 184.694 673.593 184.674 673.41 184.599C673.206 184.513 673.021 184.377 672.87 184.199L672.879 184.198Z"
            fill="#9E616A" />
        <path
            d="M676.618 144.83L675.323 156.166L675.218 163.151L671.381 163.43L670.811 157.605L670.896 142.292C670.898 141.716 670.968 141.143 671.104 140.588C671.225 140.085 671.411 139.604 671.656 139.161C671.873 138.766 672.154 138.42 672.484 138.142C672.784 137.888 673.136 137.725 673.507 137.668C673.879 137.614 674.257 137.683 674.596 137.865C674.954 138.062 675.269 138.348 675.516 138.701C675.801 139.104 676.024 139.559 676.174 140.047C676.347 140.603 676.448 141.184 676.473 141.773L676.618 144.83Z"
            fill="#CACACA" />
        <path
            d="M676.989 247.126C677.023 246.977 677.087 246.839 677.178 246.725C677.268 246.61 677.381 246.521 677.508 246.466C677.837 246.328 678.192 246.285 678.539 246.34C679.019 246.406 679.49 246.542 679.939 246.743C680.503 246.989 681.046 247.293 681.561 247.651C682.107 248.026 682.624 248.45 683.108 248.921C683.54 249.337 683.938 249.798 684.295 250.297C684.587 250.699 684.827 251.146 685.005 251.626C685.146 251.972 685.186 252.36 685.121 252.734C685.086 252.884 685.02 253.023 684.928 253.138C684.836 253.254 684.721 253.342 684.592 253.397C684.257 253.532 683.898 253.572 683.546 253.512C683.063 253.443 682.589 253.304 682.136 253.099C681.571 252.849 681.027 252.541 680.511 252.18C679.969 251.806 679.454 251.382 678.974 250.913C678.545 250.496 678.153 250.036 677.8 249.537C677.513 249.139 677.278 248.697 677.102 248.223C676.965 247.88 676.925 247.496 676.989 247.126Z"
            fill="white" />
        <path
            d="M691.718 247.304C691.769 247.165 691.853 247.045 691.959 246.955C692.065 246.865 692.191 246.809 692.323 246.793C692.688 246.751 693.057 246.808 693.398 246.961C693.889 247.163 694.358 247.429 694.795 247.753C695.352 248.157 695.88 248.612 696.372 249.112C696.893 249.637 697.379 250.204 697.827 250.809C698.225 251.343 698.583 251.914 698.897 252.515C699.152 252.989 699.35 253.5 699.485 254.034C699.593 254.401 699.593 254.798 699.485 255.166C699.432 255.305 699.347 255.426 699.239 255.516C699.131 255.606 699.003 255.66 698.87 255.675C698.5 255.713 698.127 255.652 697.782 255.495C697.287 255.287 696.815 255.017 696.375 254.688C695.819 254.278 695.293 253.817 694.802 253.312C694.285 252.789 693.803 252.225 693.358 251.623C692.964 251.093 692.61 250.526 692.299 249.929C692.047 249.46 691.852 248.954 691.718 248.426C691.612 248.061 691.612 247.668 691.718 247.304Z"
            fill="white" />
        <path
            d="M698.566 264C698.614 263.857 698.695 263.731 698.8 263.634C698.905 263.538 699.031 263.475 699.165 263.452C699.531 263.389 699.906 263.428 700.257 263.563C700.759 263.74 701.241 263.983 701.693 264.286C702.267 264.664 702.812 265.095 703.324 265.574C703.867 266.076 704.376 266.623 704.848 267.209C705.267 267.727 705.647 268.284 705.983 268.874C706.255 269.34 706.47 269.845 706.621 270.376C706.741 270.743 706.752 271.145 706.653 271.52C706.604 271.664 706.521 271.79 706.414 271.886C706.307 271.982 706.18 272.045 706.045 272.067C705.673 272.125 705.295 272.082 704.94 271.942C704.434 271.759 703.948 271.511 703.492 271.202C702.918 270.822 702.371 270.389 701.859 269.908C701.32 269.406 700.815 268.86 700.347 268.274C699.932 267.759 699.557 267.205 699.225 266.619C698.958 266.158 698.747 265.658 698.598 265.133C698.481 264.769 698.469 264.372 698.566 264Z"
            fill="white" />
        <path
            d="M713.253 271.007C713.303 270.861 713.387 270.733 713.496 270.636C713.605 270.539 713.734 270.476 713.871 270.454C714.251 270.395 714.638 270.438 715.001 270.579C715.52 270.764 716.019 271.016 716.488 271.33C717.081 271.717 717.645 272.158 718.176 272.648C718.735 273.161 719.261 273.72 719.749 274.32C720.182 274.85 720.575 275.421 720.924 276.026C721.205 276.5 721.428 277.016 721.586 277.558C721.71 277.931 721.721 278.34 721.62 278.722C721.567 278.869 721.482 278.997 721.371 279.094C721.26 279.191 721.129 279.253 720.99 279.273C720.604 279.33 720.212 279.284 719.845 279.138C719.321 278.949 718.819 278.693 718.347 278.375C717.753 277.983 717.188 277.537 716.657 277.042C716.101 276.527 715.578 275.968 715.094 275.368C714.667 274.842 714.28 274.276 713.938 273.677C713.66 273.207 713.441 272.696 713.286 272.159C713.165 271.79 713.153 271.385 713.253 271.007Z"
            fill="white" />
        <path
            d="M643.441 129.269C642.463 128.489 641.367 127.92 640.207 127.593C639.119 127.293 637.99 127.242 636.885 127.441C635.745 127.653 634.649 128.101 633.651 128.762C632.541 129.5 631.538 130.427 630.677 131.51C632.401 131.935 634.128 132.405 635.858 132.92C637.588 133.436 639.326 133.999 641.074 134.611C642.822 135.224 644.571 135.884 646.321 136.589C648.072 137.295 649.83 138.051 651.597 138.857C650.852 138.138 650.153 137.362 649.505 136.533C648.835 135.695 648.179 134.809 647.533 133.935C646.887 133.06 646.23 132.198 645.554 131.402C644.907 130.621 644.2 129.907 643.441 129.269Z"
            fill="white" />
        <path
            d="M630.638 131.499L629.883 132.601C629.947 132.505 630.011 132.411 630.076 132.317C630.141 132.224 630.206 132.132 630.272 132.041C630.339 131.95 630.405 131.861 630.473 131.773C630.541 131.686 630.608 131.598 630.676 131.512L630.638 131.499Z"
            fill="#F2F2F2" />
        <path
            d="M758.043 186.903C757.823 186.412 757.575 185.936 757.303 185.48C757.04 185.041 756.751 184.624 756.439 184.229C756.138 183.85 755.812 183.497 755.466 183.172C755.133 182.858 754.779 182.575 754.407 182.324L752.995 182.394C755.686 189.55 758.626 196.521 761.817 203.307C765.027 210.132 768.484 216.756 772.189 223.176C775.92 229.64 779.896 235.882 784.118 241.901C788.375 247.965 792.878 253.785 797.627 259.359L787.421 240.675L777.425 222.379L767.633 204.459L758.043 186.903Z"
            fill="white" />
        <path
            d="M564.952 628H1.31525C0.967113 627.999 0.633568 627.841 0.387752 627.562C0.141937 627.283 0.00390625 626.905 0.00390625 626.511C0.00390625 626.116 0.141937 625.738 0.387752 625.459C0.633568 625.18 0.967113 625.022 1.31525 625.021H564.952C565.301 625.021 565.635 625.178 565.882 625.457C566.129 625.737 566.267 626.115 566.267 626.511C566.267 626.906 566.129 627.284 565.882 627.564C565.635 627.843 565.301 628 564.952 628Z"
            fill="#CACACA" />
        <path
            d="M195.626 263.307C195.047 263.306 194.483 263.1 194.013 262.718C193.542 262.335 193.19 261.795 193.006 261.173L191.6 256.43C191.482 256.04 191.433 255.628 191.457 255.216C191.48 254.805 191.575 254.402 191.736 254.033C191.898 253.663 192.122 253.333 192.396 253.062C192.67 252.791 192.989 252.583 193.334 252.452C193.679 252.321 194.044 252.269 194.407 252.298C194.77 252.327 195.125 252.437 195.45 252.622C195.776 252.806 196.066 253.062 196.304 253.375C196.541 253.687 196.722 254.049 196.836 254.441L198.241 259.184C198.473 259.97 198.42 260.829 198.094 261.571C197.768 262.313 197.196 262.879 196.502 263.144C196.22 263.252 195.924 263.306 195.626 263.307Z"
            fill="#3F3D56" />
        <path
            d="M198.834 275.851C198.234 275.849 197.651 275.627 197.173 275.217C196.694 274.806 196.347 274.231 196.182 273.578L194.974 268.765C194.775 267.967 194.863 267.113 195.22 266.389C195.576 265.665 196.172 265.131 196.876 264.905C197.58 264.678 198.335 264.777 198.974 265.18C199.614 265.583 200.086 266.257 200.286 267.054L201.494 271.868C201.594 272.263 201.623 272.676 201.581 273.084C201.539 273.492 201.427 273.887 201.25 274.245C201.074 274.604 200.836 274.92 200.552 275.175C200.268 275.43 199.942 275.619 199.593 275.731C199.346 275.811 199.091 275.851 198.834 275.851Z"
            fill="#3F3D56" />
    </g>
    <defs>
        <clipPath id="clip0_77_1100">
            <rect width="867" height="628" fill="white" />
        </clipPath>
    </defs>
</svg>