<svg viewBox="0 0 36 36" fill="none" xmlns="http://www.w3.org/2000/svg">
    <path
        d="M25.9498 13.95C26.2248 14.225 26.3623 14.575 26.3623 15C26.3623 15.425 26.2248 15.775 25.9498 16.05L19.0498 22.95C18.8998 23.1 18.7373 23.206 18.5623 23.268C18.3873 23.33 18.1998 23.3615 17.9998 23.3625C17.7998 23.3625 17.6058 23.325 17.4178 23.25C17.2298 23.175 17.0738 23.075 16.9498 22.95L10.0498 16.05C9.77481 15.775 9.6373 15.425 9.6373 15C9.6373 14.575 9.77481 14.225 10.0498 13.95C10.3248 13.675 10.6748 13.5375 11.0998 13.5375C11.5248 13.5375 11.8748 13.675 12.1498 13.95L17.9998 19.8L23.8498 13.95C24.1248 13.675 24.4748 13.5375 24.8998 13.5375C25.3248 13.5375 25.6748 13.675 25.9498 13.95Z"
        fill="white" />
</svg>