<svg viewBox="0 0 251 144" fill="none" xmlns="http://www.w3.org/2000/svg">
    <g clip-path="url(#clip0_75_962)">
        <path
            d="M249.847 144H1.15276C0.792517 144 0.5 143.905 0.5 143.789C0.5 143.672 0.792517 143.578 1.15276 143.578H249.847C250.208 143.578 250.5 143.672 250.5 143.789C250.5 143.905 250.207 144 249.847 144Z"
            fill="#E6E6E6" />
        <path
            d="M10.9732 135.762C12.1098 135.986 13.3303 136.043 14.5169 135.925C15.7035 135.808 16.8162 135.521 17.7479 135.093C20.1208 133.976 20.8648 132.135 21.47 130.431L23.2604 125.39L19.512 126.838C16.8163 127.879 14.0601 128.953 12.1933 130.462C10.3265 131.97 9.512 134.029 11.0117 135.661"
            fill="#E6E6E6" />
        <path
            d="M11.5515 142.216C11.0796 140.288 10.5943 138.335 10.9254 136.386C11.2193 134.655 12.1607 132.965 14.0772 131.578C15.0944 130.844 16.3321 130.215 17.7347 129.719C18.1004 129.59 18.4372 129.915 18.073 130.044C15.6455 130.904 13.7679 132.175 12.7108 133.672C11.5436 135.338 11.3562 137.153 11.558 138.922C11.6797 139.992 11.9373 141.055 12.197 142.116C12.2175 142.164 12.2047 142.215 12.1612 142.258C12.1178 142.301 12.0469 142.333 11.9629 142.347C11.8772 142.36 11.7859 142.354 11.7087 142.329C11.6316 142.305 11.5748 142.264 11.5508 142.216H11.5515Z"
            fill="#F2F2F2" />
        <path
            d="M14.9478 139.122C15.4352 139.538 16.1053 139.876 16.8935 140.104C17.6816 140.333 18.5612 140.443 19.4476 140.425C21.7254 140.365 23.6246 139.473 25.334 138.627L30.3904 136.122L27.044 136.033C24.6376 135.968 22.1689 135.908 19.8752 136.324C17.5815 136.74 15.469 137.742 15.0501 139.072"
            fill="#E6E6E6" />
        <path
            d="M10.2181 143.325C12.4876 141.07 15.1239 138.565 19.8312 137.764C21.1401 137.542 22.5125 137.462 23.8746 137.529C24.304 137.55 24.1967 137.922 23.7665 137.901C21.4833 137.794 19.2045 138.133 17.3138 138.858C15.4942 139.553 14.0777 140.519 12.8788 141.543C12.1443 142.17 11.4865 142.825 10.8287 143.478C10.619 143.686 10.0066 143.536 10.2181 143.325Z"
            fill="#F2F2F2" />
        <path
            d="M199.219 92.1491C199.331 91.8824 199.546 91.6327 199.849 91.4177C200.152 91.2026 200.535 91.0275 200.972 90.9045C201.408 90.7815 201.888 90.7137 202.376 90.7059C202.864 90.6981 203.35 90.7504 203.798 90.8592L211.825 85.95L213.326 89.3078L205.472 93.4548C205.097 93.8654 204.465 94.1844 203.699 94.3513C202.932 94.5182 202.082 94.5215 201.311 94.3605C200.54 94.1995 199.901 93.8854 199.516 93.4778C199.13 93.0702 199.024 92.5973 199.219 92.1489L199.219 92.1491Z"
            fill="#FEB8B8" />
        <path d="M216.46 141.122H211.556L209.222 130.509H216.463L216.46 141.122Z" fill="#FEB8B8" />
        <path
            d="M217.711 140.223H208.051C206.418 140.224 204.853 140.587 203.698 141.235C202.544 141.882 201.895 142.761 201.895 143.676V143.789H217.71L217.711 140.223Z"
            fill="#2F2E41" />
        <path d="M244.627 138.396L240.042 139.373L231.146 129.915L237.914 128.474L244.627 138.396Z"
            fill="#FEB8B8" />
        <path
            d="M245.229 137.307L236.198 139.23C234.672 139.555 233.438 140.207 232.769 141.042C232.099 141.877 232.048 142.828 232.628 143.684L232.7 143.789L247.486 140.641L245.229 137.307Z"
            fill="#2F2E41" />
        <path
            d="M228.481 105.821L232.546 118.09C232.546 118.09 243.578 135.354 242.804 135.788C242.03 136.223 231.384 137.743 231.965 136.766C232.546 135.789 219.19 121.131 219.19 121.131L228.481 105.821Z"
            fill="#2F2E41" />
        <path
            d="M211.998 83.525C211.998 83.525 203.792 89.5418 204.868 89.8704C205.943 90.199 210.108 91.939 210.108 91.939L214.346 85.4149L211.998 83.525Z"
            fill="#E4E4E4" />
        <path
            d="M209.706 89.598C209.706 89.598 208.352 95.2441 208.932 96.4384C209.513 97.6327 209.126 131.509 208.739 132.052C208.352 132.594 207.19 134.44 207.771 135.309C208.353 136.177 216.287 138.349 217.449 137.589C218.61 136.829 227.127 109.142 227.127 109.142C227.127 109.142 239.128 92.4209 236.418 90.7926C233.708 89.1642 209.706 89.598 209.706 89.598Z"
            fill="#2F2E41" />
        <path
            d="M227.119 53.3118C232.357 53.3118 236.604 50.9299 236.604 47.9915C236.604 45.0532 232.357 42.6713 227.119 42.6713C221.881 42.6713 217.635 45.0532 217.635 47.9915C217.635 50.9299 221.881 53.3118 227.119 53.3118Z"
            fill="#FEB8B8" />
        <path
            d="M217.209 60.0157C217.448 59.1542 218.212 58.3658 219.371 57.7847L221.1 54.8191H231.262L234.094 57.3118C237.156 58.0516 239.426 59.2249 239.512 60.608C239.98 61.5265 237.963 90.6838 237.383 91.7694C237.212 92.0855 234.897 92.2544 231.642 92.3296C228.657 92.3979 224.885 92.3882 221.263 92.3415C215.267 92.2633 209.677 92.0831 208.737 91.9865C206.609 91.7696 216.999 60.7007 217.209 60.0157Z"
            fill="#E4E4E4" />
        <path
            d="M226.194 98.6805C226.606 98.533 226.955 98.3366 227.216 98.1053C227.478 97.8739 227.646 97.6131 227.709 97.3414C227.772 97.0696 227.728 96.7934 227.579 96.5322C227.431 96.2711 227.183 96.0314 226.852 95.8299L232.46 89.9581L226.315 90.273L221.931 95.8004C221.364 96.1349 221.036 96.5744 221.008 97.0357C220.981 97.497 221.256 97.948 221.781 98.3031C222.307 98.6582 223.046 98.8927 223.86 98.9623C224.673 99.0318 225.504 98.9315 226.194 98.6803L226.194 98.6805Z"
            fill="#FEB8B8" />
        <path
            d="M227.126 56.808C227.126 56.808 218.223 58.8709 221.513 64.083C224.804 69.2952 228.481 75.4836 228.481 75.4836C228.481 75.4836 223.836 89.4901 223.836 90.0337C223.836 90.5773 220.933 93.5081 222.094 94.0511C223.255 94.5942 230.997 95.6797 231.191 95.1369C231.784 93.8862 232.495 92.6539 233.32 91.4453C233.707 91.011 242.804 77.4388 241.641 76.2445C240.787 75.3656 240.037 67.3123 239.7 63.1213C239.623 61.9253 238.991 60.7614 237.868 59.7439C236.745 58.7264 235.169 57.8905 233.295 57.3184C231.492 56.7805 229.391 56.4903 227.126 56.808Z"
            fill="#E4E4E4" />
        <path
            d="M230.77 50.3694C230.05 50.183 229.215 50.1444 228.436 50.0287C225.65 49.614 223.783 48.0707 224.379 46.674C224.489 46.4964 224.539 46.3089 224.526 46.1211C224.421 45.7075 223.558 45.4405 222.729 45.3457C221.901 45.251 221.02 45.2649 220.228 45.1123C219.655 44.9985 219.148 44.8002 218.759 44.5382C218.37 44.2763 218.114 43.9604 218.018 43.6238C217.895 42.9697 218.192 42.3126 218.856 41.7705L219.155 42.1924C219.599 42.0124 219.939 41.7633 220.133 41.476C220.458 41.4979 220.768 41.5645 221.036 41.67C221.304 41.7756 221.521 41.9166 221.668 42.0807C222.148 42.2195 222.217 41.6496 222.748 41.5656C222.979 41.5512 223.212 41.5796 223.411 41.6464C224.479 41.8907 225.721 41.6818 226.869 41.5464C228.861 41.313 230.918 41.3118 232.911 41.5429C234.23 41.6971 235.537 41.9659 236.481 42.4432C237.206 42.8421 237.774 43.3211 238.151 43.8497C239.164 45.099 239.833 46.4507 239.499 47.7849C239.195 48.9044 238.256 49.9391 236.82 50.7353C236.056 51.1672 233.56 52.6735 232.192 52.4169C230.471 52.0936 232.796 50.8942 230.77 50.3694Z"
            fill="#2F2E41" />
        <path
            d="M173.53 34.1305H172.259V12.5121C172.259 9.19366 170.132 6.01117 166.347 3.6647C162.561 1.31823 157.427 1.63213e-09 152.074 1.63213e-09H78.1849C75.5343 -2.65367e-05 72.9095 0.323581 70.4606 0.952347C68.0117 1.58111 65.7865 2.50272 63.9122 3.66456C62.0378 4.82639 60.551 6.2057 59.5366 7.72372C58.5222 9.24174 58 10.8688 58 12.5119V131.112C58 134.43 60.1266 137.613 63.9119 139.959C67.6973 142.306 72.8313 143.624 78.1846 143.624H152.073C157.426 143.624 162.56 142.306 166.346 139.959C170.131 137.613 172.258 134.43 172.258 131.112V49.5188H173.529L173.53 34.1305Z"
            fill="#3F3D56" />
        <path
            d="M168.118 11.674V131.95C168.118 134.466 166.505 136.879 163.636 138.658C160.766 140.437 156.874 141.437 152.815 141.438H77.4101C73.3497 141.438 69.4554 140.439 66.5836 138.66C63.7119 136.88 62.0979 134.467 62.0967 131.95V11.674C62.0979 9.15715 63.7118 6.74365 66.5834 4.96434C69.455 3.18502 73.3492 2.18562 77.4095 2.18594H86.5565C86.1074 2.8706 85.9364 3.61317 86.0587 4.34838C86.181 5.08358 86.5927 5.78892 87.2577 6.40238C87.9227 7.01585 88.8206 7.51867 89.8725 7.86664C90.9245 8.21461 92.0982 8.39709 93.2905 8.39802H136.28C137.472 8.39709 138.646 8.21461 139.698 7.86664C140.75 7.51867 141.648 7.01585 142.313 6.40238C142.978 5.78892 143.39 5.08358 143.512 4.34838C143.634 3.61317 143.463 2.8706 143.014 2.18594H152.812C156.871 2.18637 160.763 3.18589 163.634 4.96477C166.504 6.74364 168.117 9.15625 168.118 11.6722V11.674Z"
            fill="white" />
        <path
            d="M149.427 80.9543H82.421C82.092 80.954 81.7766 80.8729 81.544 80.7287C81.3114 80.5845 81.1805 80.389 81.1802 80.1851V69.882C81.1806 69.6781 81.3115 69.4827 81.5441 69.3385C81.7767 69.1943 82.092 69.1132 82.421 69.1129H149.427C149.756 69.1132 150.071 69.1943 150.304 69.3385C150.537 69.4827 150.667 69.6781 150.668 69.882V80.1853C150.667 80.3892 150.537 80.5847 150.304 80.7289C150.071 80.8731 149.756 80.9542 149.427 80.9545V80.9543ZM82.421 69.4205C82.2235 69.4206 82.0342 69.4693 81.8946 69.5558C81.755 69.6423 81.6765 69.7597 81.6764 69.882V80.1853C81.6765 80.3077 81.755 80.425 81.8946 80.5116C82.0342 80.5981 82.2235 80.6468 82.421 80.6469H149.427C149.625 80.6468 149.814 80.5981 149.953 80.5116C150.093 80.425 150.172 80.3077 150.172 80.1853V69.882C150.172 69.7597 150.093 69.6423 149.953 69.5558C149.814 69.4693 149.625 69.4206 149.427 69.4205H82.421Z"
            fill="#E6E6E6" />
        <path
            d="M103.144 72.8234C102.913 72.8234 102.692 72.8801 102.529 72.9811C102.366 73.0821 102.275 73.219 102.275 73.3618C102.275 73.5047 102.366 73.6416 102.529 73.7426C102.692 73.8436 102.913 73.9003 103.144 73.9003H144.091C144.322 73.9058 144.546 73.8543 144.715 73.7573C144.884 73.6602 144.984 73.5255 144.993 73.3828C145.002 73.24 144.919 73.101 144.762 72.9962C144.606 72.8914 144.388 72.8294 144.158 72.824C144.145 72.8237 144.133 72.8236 144.12 72.8236L103.144 72.8234Z"
            fill="#E6E6E6" />
        <path
            d="M103.144 76.0535C102.913 76.0535 102.692 76.1103 102.529 76.2112C102.366 76.3122 102.275 76.4492 102.275 76.592C102.275 76.7348 102.366 76.8717 102.529 76.9727C102.692 77.0737 102.913 77.1304 103.144 77.1304H144.091C144.322 77.1359 144.546 77.0844 144.715 76.9874C144.884 76.8903 144.984 76.7556 144.993 76.6129C145.002 76.4702 144.919 76.3311 144.762 76.2263C144.606 76.1215 144.388 76.0596 144.158 76.0541C144.145 76.0538 144.133 76.0537 144.12 76.0537L103.144 76.0535Z"
            fill="#E6E6E6" />
        <path
            d="M149.427 98.1274H82.421C82.092 98.1272 81.7766 98.0461 81.544 97.9019C81.3114 97.7577 81.1805 97.5622 81.1802 97.3583V87.0552C81.1806 86.8513 81.3115 86.6558 81.5441 86.5116C81.7767 86.3675 82.092 86.2863 82.421 86.2861H149.427C149.756 86.2863 150.071 86.3675 150.304 86.5116C150.537 86.6558 150.667 86.8513 150.668 87.0552V97.3585C150.667 97.5624 150.536 97.7578 150.304 97.9019C150.071 98.0461 149.756 98.1272 149.427 98.1274ZM82.421 86.5936C82.2235 86.5937 82.0342 86.6424 81.8946 86.7289C81.755 86.8155 81.6765 86.9328 81.6764 87.0552V97.3585C81.6765 97.4809 81.755 97.5982 81.8946 97.6847C82.0342 97.7713 82.2235 97.8199 82.421 97.8201H149.427C149.625 97.8199 149.814 97.7713 149.953 97.6847C150.093 97.5982 150.172 97.4809 150.172 97.3585V87.0552C150.172 86.9328 150.093 86.8155 149.953 86.7289C149.814 86.6424 149.625 86.5937 149.427 86.5936H82.421Z"
            fill="#E6E6E6" />
        <path
            d="M103.144 90.0523C102.913 90.0523 102.692 90.109 102.529 90.21C102.366 90.311 102.275 90.448 102.275 90.5908C102.275 90.7336 102.366 90.8705 102.529 90.9715C102.692 91.0725 102.913 91.1292 103.144 91.1292H144.091C144.319 91.1284 144.536 91.0725 144.698 90.9735C144.859 90.8745 144.951 90.7402 144.955 90.5995C144.959 90.4587 144.874 90.3226 144.717 90.2204C144.561 90.1182 144.347 90.0579 144.12 90.0525H103.144V90.0523Z"
            fill="#E6E6E6" />
        <path
            d="M103.144 93.2832C102.913 93.2832 102.692 93.34 102.529 93.441C102.366 93.5419 102.275 93.6789 102.275 93.8217C102.275 93.9645 102.366 94.1015 102.529 94.2024C102.692 94.3034 102.913 94.3602 103.144 94.3602H144.091C144.319 94.3594 144.536 94.3035 144.698 94.2044C144.859 94.1054 144.951 93.9712 144.955 93.8304C144.959 93.6896 144.874 93.5536 144.717 93.4513C144.561 93.3491 144.347 93.2888 144.12 93.2834H103.144V93.2832Z"
            fill="#E6E6E6" />
        <path
            d="M149.427 115.357H82.421C82.092 115.357 81.7766 115.275 81.544 115.131C81.3114 114.987 81.1805 114.792 81.1802 114.588V104.285C81.1806 104.081 81.3115 103.885 81.5441 103.741C81.7767 103.597 82.092 103.516 82.421 103.515H149.427C149.756 103.516 150.071 103.597 150.304 103.741C150.537 103.885 150.667 104.081 150.668 104.285V114.588C150.667 114.792 150.537 114.987 150.304 115.131C150.071 115.276 149.756 115.357 149.427 115.357V115.357ZM82.421 103.823C82.2235 103.823 82.0342 103.872 81.8946 103.958C81.755 104.045 81.6765 104.162 81.6764 104.285V114.588C81.6765 114.71 81.755 114.828 81.8946 114.914C82.0342 115.001 82.2235 115.049 82.421 115.049H149.427C149.625 115.049 149.814 115.001 149.953 114.914C150.093 114.828 150.172 114.71 150.172 114.588V104.285C150.172 104.162 150.093 104.045 149.953 103.958C149.814 103.872 149.625 103.823 149.427 103.823H82.421Z"
            fill="#E6E6E6" />
        <path
            d="M103.144 107.282C102.913 107.282 102.692 107.339 102.529 107.44C102.366 107.541 102.275 107.678 102.275 107.821C102.275 107.964 102.366 108.1 102.529 108.201C102.692 108.302 102.913 108.359 103.144 108.359H144.091C144.205 108.362 144.319 108.351 144.426 108.326C144.533 108.302 144.631 108.264 144.715 108.216C144.799 108.168 144.866 108.11 144.914 108.046C144.962 107.982 144.988 107.912 144.993 107.842C144.997 107.771 144.979 107.7 144.94 107.634C144.9 107.568 144.84 107.507 144.762 107.455C144.685 107.403 144.591 107.361 144.488 107.332C144.384 107.302 144.272 107.286 144.158 107.283C144.145 107.283 144.133 107.282 144.12 107.282L103.144 107.282Z"
            fill="#E6E6E6" />
        <path
            d="M103.144 110.513C102.913 110.513 102.692 110.57 102.529 110.671C102.366 110.772 102.275 110.909 102.275 111.051C102.275 111.194 102.366 111.331 102.529 111.432C102.692 111.533 102.913 111.59 103.144 111.59H144.091C144.205 111.593 144.319 111.581 144.426 111.557C144.533 111.532 144.631 111.495 144.715 111.447C144.799 111.399 144.866 111.341 144.914 111.277C144.962 111.212 144.988 111.143 144.993 111.072C144.997 111.002 144.979 110.931 144.94 110.865C144.9 110.798 144.84 110.738 144.762 110.686C144.685 110.634 144.591 110.592 144.488 110.562C144.384 110.533 144.272 110.516 144.158 110.514C144.145 110.513 144.133 110.513 144.12 110.513H103.144V110.513Z"
            fill="#E6E6E6" />
        <path
            d="M90.7804 78.2009C93.6586 78.2009 95.9919 76.7545 95.9919 74.9703C95.9919 73.1862 93.6586 71.7398 90.7804 71.7398C87.9021 71.7398 85.5688 73.1862 85.5688 74.9703C85.5688 76.7545 87.9021 78.2009 90.7804 78.2009Z"
            fill="#6C63FF" />
        <path
            d="M88.2853 74.3669C88.2253 74.3669 88.1768 74.608 88.1768 74.9053C88.1768 75.2025 88.2253 75.4438 88.2853 75.4438H93.4098C93.4698 75.4487 93.5193 75.2116 93.5203 74.9144C93.5536 74.7293 93.517 74.5419 93.4134 74.3671H88.2853V74.3669Z"
            fill="#E6E6E6" />
        <path
            d="M90.7804 95.4372C93.6586 95.4372 95.9919 93.9909 95.9919 92.2067C95.9919 90.4226 93.6586 88.9762 90.7804 88.9762C87.9021 88.9762 85.5688 90.4226 85.5688 92.2067C85.5688 93.9909 87.9021 95.4372 90.7804 95.4372Z"
            fill="#6C63FF" />
        <path
            d="M88.2853 91.6033C88.2253 91.6033 88.1768 91.8444 88.1768 92.1417C88.1768 92.4389 88.2253 92.6802 88.2853 92.6802H93.4098C93.4698 92.6851 93.5193 92.448 93.5203 92.1507C93.5536 91.9657 93.517 91.7783 93.4134 91.6035L88.2853 91.6033Z"
            fill="#E6E6E6" />
        <path
            d="M90.7804 112.667C93.6586 112.667 95.9919 111.22 95.9919 109.436C95.9919 107.652 93.6586 106.206 90.7804 106.206C87.9021 106.206 85.5688 107.652 85.5688 109.436C85.5688 111.22 87.9021 112.667 90.7804 112.667Z"
            fill="#6C63FF" />
        <path
            d="M88.2853 108.833C88.2253 108.833 88.1768 109.074 88.1768 109.371C88.1768 109.668 88.2253 109.91 88.2853 109.91H93.4098C93.4698 109.914 93.5193 109.677 93.5203 109.38C93.5536 109.195 93.517 109.008 93.4134 108.833L88.2853 108.833Z"
            fill="#E6E6E6" />
        <path
            d="M131.946 51.8687C131.675 51.8693 131.41 51.8233 131.179 51.7359C130.948 51.6485 130.76 51.5231 130.638 51.3737C129.592 50.1067 128.149 48.9819 126.393 48.0653C124.636 47.1488 122.602 46.459 120.41 46.0364C119.512 45.8676 118.596 45.739 117.669 45.6517L117.48 45.6339L127.234 26.7296L127.399 26.7332C146.349 29.9251 157.191 39.3395 160.062 42.1488C160.172 42.2562 160.244 42.3766 160.273 42.5023C160.303 42.628 160.29 42.7562 160.235 42.8785C160.18 43.0008 160.084 43.1146 159.953 43.2125C159.822 43.3104 159.66 43.3903 159.477 43.4469L132.604 51.7722C132.4 51.8357 132.174 51.8687 131.946 51.8687Z"
            fill="#E6E6E6" />
        <path
            d="M115.577 55.464C117.018 55.464 118.185 54.7402 118.185 53.8473C118.185 52.9545 117.018 52.2307 115.577 52.2307C114.137 52.2307 112.969 52.9545 112.969 53.8473C112.969 54.7402 114.137 55.464 115.577 55.464Z"
            fill="#3F3D56" />
        <path
            d="M98.0748 51.8452C97.8361 51.845 97.6011 51.8086 97.3902 51.7392L70.6731 43.0022C70.4959 42.9442 70.3397 42.8644 70.2142 42.7676C70.0886 42.6707 69.9964 42.559 69.9432 42.4392C69.8901 42.3195 69.877 42.1942 69.9049 42.0712C69.9328 41.9482 70.0011 41.8301 70.1055 41.7241C73.6743 38.1782 78.1937 35.0361 83.4688 32.4332C92.6952 27.9003 103.19 25.6262 114.66 25.6644C118.962 25.6762 123.243 26.0354 127.395 26.7331L127.56 26.7607L117.804 45.6639L117.666 45.6511C116.787 45.5689 115.901 45.5202 115.013 45.5052C105.086 45.3316 100.784 49.5219 99.3948 51.3313C99.3112 51.441 99.1922 51.539 99.0454 51.6193C98.8985 51.6995 98.7268 51.7604 98.5406 51.7981C98.3905 51.8292 98.2332 51.8451 98.0748 51.8452Z"
            fill="#6C63FF" />
        <path
            d="M127.356 26.8307L120.458 45.9398C119.553 45.7694 118.629 45.6398 117.693 45.5518L127.353 26.8307H127.356Z"
            fill="#3F3D56" />
    </g>
    <defs>
        <clipPath id="clip0_75_962">
            <rect width="250" height="144" fill="white" transform="translate(0.5)" />
        </clipPath>
    </defs>
</svg>