<svg viewBox="0 0 243 145" fill="none" xmlns="http://www.w3.org/2000/svg">
    <path
        d="M226.492 145H11.3945C11.2898 145 11.1894 144.969 11.1155 144.915C11.0415 144.861 11 144.788 11 144.712C11 144.635 11.0415 144.562 11.1155 144.508C11.1894 144.454 11.2898 144.424 11.3945 144.423H226.492C226.597 144.424 226.697 144.454 226.771 144.508C226.845 144.562 226.886 144.635 226.886 144.712C226.886 144.788 226.845 144.861 226.771 144.915C226.697 144.969 226.597 145 226.492 145Z"
        fill="#CACACA" />
    <path
        d="M183.447 14.5714C184.994 9.97681 183.523 4.61844 178.528 1.59628C178.43 6.74024 175.838 11.6932 171.21 15.579C169.418 17.0728 167.212 18.5984 167.125 20.5814C167.07 21.8153 167.897 23.0004 169.037 23.9142C170.176 24.828 171.613 25.5119 173.033 26.1854L173.242 26.4535C177.813 23.0939 181.901 19.166 183.447 14.5714Z"
        fill="#F0F0F0" />
    <path
        d="M178.427 1.66339C180.343 5.32182 180.628 9.32703 179.242 13.1101C178.963 13.9284 178.509 14.7096 177.897 15.4249C177.269 16.1076 176.402 16.6555 175.385 17.0115C174.447 17.3573 173.432 17.6319 172.625 18.1379C172.217 18.4014 171.89 18.7248 171.666 19.0867C171.442 19.4486 171.325 19.841 171.324 20.2381C171.285 21.2274 171.736 22.168 172.221 23.0766C172.76 24.0854 173.341 25.1271 173.217 26.2316C173.202 26.3655 173.488 26.3747 173.503 26.2411C173.719 24.3194 171.928 22.6961 171.644 20.8322C171.511 19.9625 171.738 19.0583 172.62 18.4242C173.392 17.8697 174.439 17.5859 175.393 17.2417C176.392 16.905 177.262 16.3952 177.928 15.757C178.588 15.0667 179.083 14.2996 179.39 13.4885C180.122 11.6704 180.457 9.77978 180.382 7.88591C180.314 5.72413 179.739 3.5868 178.681 1.56641C178.615 1.44137 178.362 1.53918 178.427 1.66339Z"
        fill="white" />
    <path
        d="M179.786 11.9111C180.689 11.9945 181.603 11.8413 182.365 11.4789C183.128 11.1165 183.688 10.5686 183.947 9.93303C183.999 9.80428 183.726 9.73965 183.675 9.86856C183.435 10.4608 182.913 10.9711 182.202 11.3075C181.492 11.6438 180.639 11.7841 179.799 11.7029C179.617 11.6854 179.605 11.8938 179.786 11.9111Z"
        fill="white" />
    <path
        d="M175.893 16.8818C174.741 15.8181 174.18 14.477 174.325 13.1258C174.339 12.9919 174.053 12.9826 174.039 13.1163C173.892 14.5226 174.479 15.9174 175.682 17.0224C175.797 17.1277 176.007 16.9865 175.893 16.8818Z"
        fill="white" />
    <path
        d="M179.969 5.83981C179.611 5.86061 179.251 5.8162 178.922 5.71058C178.593 5.60496 178.305 5.44142 178.084 5.23467C177.971 5.12839 177.76 5.26971 177.872 5.37528C178.118 5.60288 178.436 5.7832 178.8 5.90049C179.163 6.01777 179.56 6.06845 179.956 6.0481C179.994 6.04846 180.03 6.03839 180.058 6.01992C180.086 6.00145 180.103 5.97598 180.106 5.94867C180.107 5.92109 180.094 5.89418 180.068 5.8738C180.043 5.85341 180.007 5.8412 179.969 5.83981Z"
        fill="white" />
    <path
        d="M156.925 4.57068C156.993 4.6385 157.061 4.70631 157.128 4.77581C158.034 5.691 158.837 6.65832 159.528 7.66822C159.583 7.74569 159.637 7.82479 159.689 7.90324C161.319 10.3492 162.311 12.9944 162.615 15.7043C162.735 16.7827 162.742 17.8662 162.636 18.9453C162.49 20.4357 162.168 22.0432 162.691 23.4406C162.743 23.5868 162.808 23.7306 162.884 23.871L172.777 26.618C172.803 26.6161 172.829 26.6158 172.856 26.6138L173.244 26.7367C173.255 26.6813 173.265 26.6237 173.276 26.5683C173.282 26.5362 173.286 26.5035 173.293 26.4714C173.296 26.4498 173.3 26.4281 173.305 26.4088C173.306 26.4016 173.307 26.3944 173.307 26.3888C173.312 26.3695 173.314 26.3511 173.318 26.3335C173.373 26.0116 173.425 25.6888 173.473 25.3652C173.474 25.3636 173.474 25.3636 173.473 25.3613C173.876 22.8983 173.877 20.4092 173.475 17.946C173.462 17.8726 173.449 17.7976 173.432 17.723C173.224 16.6243 172.893 15.5398 172.442 14.4804C172.193 13.9009 171.904 13.3309 171.576 12.7727C170.723 11.3315 169.565 9.99699 168.144 8.81799C165.31 6.46797 161.476 4.80442 157.248 4.58512C157.14 4.57957 157.034 4.57458 156.925 4.57068Z"
        fill="#F0F0F0" />
    <path
        d="M156.899 4.66831C161.452 6.74901 164.99 9.82198 167.009 13.4508C167.463 14.2263 167.746 15.0492 167.848 15.8889C167.911 16.7094 167.672 17.5271 167.154 18.2573C166.691 18.9451 166.107 19.6096 165.881 20.3676C165.773 20.7568 165.779 21.1582 165.9 21.5456C166.02 21.9329 166.251 22.2974 166.578 22.6151C167.364 23.4221 168.502 23.9751 169.64 24.4878C170.904 25.057 172.229 25.6336 173.043 26.5701C173.141 26.6836 173.377 26.5656 173.279 26.4523C171.863 24.8229 169.092 24.3126 167.324 22.949C166.5 22.3127 165.933 21.4915 166.114 20.598C166.272 19.8167 166.873 19.1311 167.351 18.4376C167.87 17.7307 168.143 16.942 168.148 16.1403C168.105 15.2995 167.865 14.47 167.44 13.6876C166.522 11.915 165.227 10.2586 163.603 8.77911C161.762 7.08306 159.536 5.62897 157.021 4.47974C156.866 4.40865 156.745 4.59768 156.899 4.66831Z"
        fill="white" />
    <path
        d="M166.453 12.2544C167.243 11.925 167.846 11.4017 168.155 10.7781C168.464 10.1545 168.459 9.47121 168.14 8.8502C168.075 8.72471 167.804 8.79248 167.87 8.91814C168.168 9.49602 168.173 10.1325 167.883 10.7128C167.594 11.293 167.029 11.7788 166.291 12.0824C166.131 12.1486 166.294 12.3202 166.453 12.2544Z"
        fill="white" />
    <path
        d="M167.452 17.9311C165.653 17.5874 164.097 16.7623 163.096 15.6202C162.997 15.507 162.761 15.625 162.86 15.738C163.905 16.9251 165.526 17.7814 167.4 18.136C167.578 18.1697 167.63 17.9646 167.452 17.9311Z"
        fill="white" />
    <path
        d="M161.582 7.32658C161.313 7.50045 160.989 7.62291 160.639 7.68295C160.289 7.743 159.923 7.73875 159.576 7.6706C159.398 7.63525 159.347 7.84044 159.524 7.87555C159.908 7.94955 160.311 7.95388 160.698 7.88817C161.085 7.82245 161.444 7.68869 161.744 7.49857C161.774 7.48237 161.795 7.45838 161.802 7.43146C161.809 7.40454 161.801 7.37672 161.781 7.35364C161.759 7.33095 161.726 7.31538 161.689 7.31031C161.652 7.30525 161.613 7.31109 161.582 7.32658Z"
        fill="white" />
    <path
        d="M143.845 108.356C110.68 108.356 83.6987 88.6988 83.6987 64.537C83.6987 40.3752 110.68 20.7181 143.845 20.7181C147.352 20.7178 150.851 20.9388 154.305 21.3785C154.348 21.3839 154.39 21.3954 154.427 21.4125C154.463 21.4295 154.495 21.4517 154.521 21.4777C154.546 21.5037 154.564 21.5331 154.573 21.5642C154.583 21.5953 154.584 21.6274 154.576 21.6588C154.569 21.6901 154.553 21.7201 154.529 21.747C154.506 21.7738 154.475 21.7971 154.439 21.8153C154.404 21.8336 154.363 21.8465 154.32 21.8534C154.278 21.8602 154.234 21.8609 154.191 21.8553C150.775 21.4205 147.313 21.2021 143.845 21.2023C111.047 21.2023 84.3633 40.6421 84.3633 64.537C84.3633 88.4319 111.047 107.872 143.845 107.872C176.644 107.872 203.328 88.4319 203.328 64.537C203.342 53.7368 197.807 43.3238 187.811 35.3481C187.752 35.3006 187.721 35.2381 187.726 35.1742C187.73 35.1103 187.769 35.0502 187.834 35.0071C187.899 34.964 187.984 34.9413 188.072 34.9441C188.16 34.9469 188.242 34.9748 188.302 35.0219C198.41 43.0867 204.007 53.6161 203.992 64.537C203.992 88.6988 177.011 108.356 143.845 108.356Z"
        fill="#E4E4E4" />
    <path
        d="M170.365 35.7465C176.938 35.7465 182.266 31.865 182.266 27.0769C182.266 22.2888 176.938 18.4073 170.365 18.4073C163.793 18.4073 158.465 22.2888 158.465 27.0769C158.465 31.865 163.793 35.7465 170.365 35.7465Z"
        fill="#6C63FF" />
    <path
        d="M168.742 31.589C168.536 31.589 168.334 31.5541 168.15 31.4872C167.966 31.4202 167.806 31.323 167.683 31.2032L164.437 28.0495C164.332 27.9482 164.256 27.8329 164.213 27.7102C164.17 27.5875 164.161 27.4599 164.185 27.3345C164.21 27.2091 164.268 27.0885 164.357 26.9796C164.445 26.8706 164.562 26.7754 164.701 26.6994C164.84 26.6234 164.999 26.5682 165.167 26.5367C165.335 26.5053 165.511 26.4984 165.683 26.5163C165.855 26.5342 166.02 26.5766 166.17 26.6411C166.32 26.7057 166.45 26.791 166.555 26.8923L168.679 28.9554L174.134 22.994C174.329 22.7821 174.632 22.6352 174.975 22.5855C175.319 22.5358 175.676 22.5875 175.967 22.7291C176.259 22.8706 176.461 23.0907 176.53 23.3409C176.6 23.5911 176.53 23.8511 176.337 24.0639L169.843 31.1595C169.726 31.2879 169.568 31.3938 169.383 31.4685C169.198 31.5431 168.99 31.5844 168.779 31.5887C168.767 31.5888 168.754 31.589 168.742 31.589Z"
        fill="white" />
    <path
        d="M142.298 57.7369L123.947 20.5439L124.412 20.422L121.037 13.5812L120.572 13.7032L114.937 2.28381C114.727 1.85731 114.403 1.46518 113.985 1.12981C113.566 0.794435 113.061 0.522393 112.498 0.329213C111.936 0.136032 111.326 0.0254942 110.705 0.00391448C110.083 -0.0176652 109.462 0.0501345 108.877 0.203441L75.7023 8.89102C75.1169 9.04431 74.5786 9.28012 74.1183 9.58496C73.6579 9.8898 73.2845 10.2577 73.0193 10.6677C72.7541 11.0777 72.6024 11.5217 72.5728 11.9744C72.5431 12.4271 72.6362 12.8796 72.8466 13.3061L76.7752 21.2684L76.0399 21.4747L78.5477 26.2191L79.1363 26.0539L79.657 27.1092L79.0306 27.285L81.5384 32.0293L82.0182 31.8947L100.207 68.7592C100.416 69.1862 100.74 69.5789 101.158 69.9148C101.576 70.2506 102.081 70.523 102.644 70.7163C103.207 70.9096 103.817 71.02 104.439 71.0412C105.061 71.0623 105.682 70.9939 106.268 70.8397L139.442 62.1521C140.623 61.8416 141.588 61.2024 142.123 60.3747C142.658 59.547 142.721 58.5983 142.298 57.7369Z"
        fill="#3F3D56" />
    <path
        d="M104.523 69.6139C104.056 69.6131 103.6 69.5076 103.219 69.3116C102.837 69.1157 102.547 68.8388 102.388 68.5186L74.7392 12.4802C74.5356 12.0675 74.5654 11.6128 74.822 11.216C75.0786 10.8193 75.541 10.513 76.1075 10.3647L83.166 8.51621L83.1555 8.69612C83.1374 9.00844 83.225 9.31921 83.4105 9.60106C83.5961 9.8829 83.874 10.1272 84.2197 10.3123C84.5654 10.4975 84.9683 10.6179 85.3929 10.6629C85.8175 10.7079 86.2508 10.6762 86.6546 10.5705L102.32 6.46824C102.698 6.34202 103.03 6.15273 103.289 5.91568C103.548 5.67864 103.727 5.40049 103.811 5.10374C103.894 4.81194 103.881 4.50994 103.774 4.22237C103.667 3.93479 103.467 3.66981 103.192 3.44904L103.027 3.3151L110.318 1.40567C110.885 1.25792 111.509 1.2799 112.053 1.4668C112.597 1.65369 113.018 1.99024 113.222 2.40264L139.602 55.8679C140.14 56.9632 140.06 58.1693 139.38 59.2217C138.699 60.2741 137.473 61.0868 135.971 61.4816L105.292 69.5156C105.046 69.5804 104.785 69.6137 104.523 69.6139Z"
        fill="white" />
    <path
        d="M101.82 29.867C106.776 29.867 110.792 26.9405 110.792 23.3305C110.792 19.7204 106.776 16.7939 101.82 16.7939C96.8651 16.7939 92.8481 19.7204 92.8481 23.3305C92.8481 26.9405 96.8651 29.867 101.82 29.867Z"
        fill="#6C63FF" />
    <path
        d="M124.053 32.8361L92.9821 40.9729C92.8851 40.9985 92.7821 41.0099 92.679 41.0064C92.5759 41.003 92.4747 40.9847 92.3813 40.9527C92.2879 40.9208 92.204 40.8757 92.1346 40.8201C92.0651 40.7645 92.0114 40.6994 91.9764 40.6287C91.9415 40.5579 91.9261 40.4828 91.9311 40.4077C91.9361 40.3326 91.9613 40.2589 92.0054 40.191C92.0495 40.123 92.1116 40.062 92.1881 40.0115C92.2646 39.961 92.354 39.922 92.4512 39.8968L123.522 31.76C123.718 31.7092 123.933 31.717 124.121 31.7817C124.309 31.8464 124.454 31.9627 124.524 32.1052C124.595 32.2476 124.585 32.4046 124.496 32.5416C124.408 32.6786 124.249 32.7845 124.053 32.8361Z"
        fill="#E6E6E6" />
    <path
        d="M114.826 37.9952L104.606 40.6716C104.509 40.6971 104.406 40.7085 104.303 40.705C104.2 40.7016 104.099 40.6833 104.005 40.6513C103.912 40.6194 103.828 40.5743 103.759 40.5187C103.689 40.4631 103.635 40.398 103.6 40.3273C103.566 40.2565 103.55 40.1815 103.555 40.1064C103.56 40.0313 103.585 39.9576 103.629 39.8896C103.673 39.8217 103.736 39.7607 103.812 39.7102C103.888 39.6597 103.978 39.6207 104.075 39.5954L114.295 36.919C114.491 36.8677 114.707 36.8752 114.895 36.9398C115.083 37.0045 115.229 37.121 115.299 37.2637C115.37 37.4064 115.359 37.5636 115.271 37.7008C115.182 37.838 115.022 37.9439 114.826 37.9952Z"
        fill="#E6E6E6" />
    <path
        d="M117.257 42.922L107.037 45.5984C106.94 45.6238 106.837 45.635 106.734 45.6314C106.631 45.6279 106.53 45.6096 106.437 45.5775C106.343 45.5455 106.26 45.5005 106.19 45.4449C106.121 45.3893 106.067 45.3244 106.033 45.2537C105.998 45.1831 105.982 45.1081 105.987 45.0331C105.992 44.9581 106.017 44.8845 106.061 44.8166C106.105 44.7487 106.167 44.6877 106.243 44.6372C106.32 44.5867 106.409 44.5476 106.506 44.5222L116.726 41.8458C116.922 41.7945 117.138 41.802 117.326 41.8666C117.514 41.9313 117.659 42.0478 117.73 42.1905C117.8 42.3332 117.79 42.4904 117.701 42.6276C117.613 42.7648 117.453 42.8707 117.257 42.922Z"
        fill="#E6E6E6" />
    <path
        d="M118.502 45.4454L108.282 48.1218C108.185 48.1475 108.082 48.1589 107.978 48.1554C107.875 48.152 107.774 48.1338 107.681 48.1018C107.587 48.0698 107.503 48.0248 107.434 47.9691C107.364 47.9135 107.311 47.8485 107.276 47.7777C107.241 47.7069 107.225 47.6318 107.23 47.5567C107.235 47.4816 107.261 47.4079 107.305 47.3399C107.349 47.2719 107.411 47.2109 107.488 47.1605C107.564 47.11 107.653 47.071 107.751 47.0457L117.971 44.3693C118.068 44.3437 118.171 44.3323 118.274 44.3358C118.377 44.3392 118.478 44.3575 118.572 44.3894C118.665 44.4214 118.749 44.4665 118.818 44.5221C118.888 44.5777 118.942 44.6428 118.977 44.7135C119.011 44.7843 119.027 44.8594 119.022 44.9345C119.017 45.0096 118.992 45.0832 118.948 45.1512C118.904 45.2192 118.841 45.2802 118.765 45.3307C118.688 45.3812 118.599 45.4202 118.502 45.4454Z"
        fill="#E6E6E6" />
    <path
        d="M121.756 38.923L100.072 44.6014C99.9754 44.627 99.8724 44.6384 99.7693 44.6349C99.6662 44.6315 99.565 44.6133 99.4716 44.5813C99.3782 44.5493 99.2944 44.5042 99.2249 44.4486C99.1554 44.393 99.1017 44.3279 99.0668 44.2572C99.0319 44.1864 99.0164 44.1113 99.0214 44.0362C99.0264 43.9611 99.0517 43.8875 99.0958 43.8195C99.1399 43.7515 99.2019 43.6905 99.2784 43.64C99.3549 43.5896 99.4443 43.5506 99.5415 43.5253L121.225 37.8469C121.322 37.8213 121.425 37.8099 121.528 37.8133C121.632 37.8168 121.733 37.835 121.826 37.867C121.92 37.8989 122.003 37.944 122.073 37.9996C122.142 38.0553 122.196 38.1203 122.231 38.1911C122.266 38.2618 122.281 38.3369 122.276 38.412C122.271 38.4871 122.246 38.5608 122.202 38.6288C122.158 38.6968 122.096 38.7577 122.019 38.8082C121.943 38.8587 121.853 38.8977 121.756 38.923Z"
        fill="#E6E6E6" />
    <path
        d="M117.389 51.5712L113.678 52.543C113.345 52.63 112.978 52.6171 112.658 52.5072C112.338 52.3972 112.091 52.1992 111.971 51.9567C111.852 51.7141 111.869 51.4469 112.02 51.2137C112.17 50.9805 112.442 50.8004 112.775 50.7131L116.486 49.7413C116.819 49.6543 117.186 49.6671 117.506 49.7771C117.825 49.887 118.072 50.085 118.192 50.3276C118.312 50.5701 118.294 50.8374 118.144 51.0706C117.993 51.3038 117.721 51.4838 117.389 51.5712Z"
        fill="#6C63FF" />
    <path
        d="M88.1455 8.69743C88.4305 8.69743 88.6615 8.52911 88.6615 8.32146C88.6615 8.11382 88.4305 7.9455 88.1455 7.9455C87.8604 7.9455 87.6294 8.11382 87.6294 8.32146C87.6294 8.52911 87.8604 8.69743 88.1455 8.69743Z"
        fill="white" />
    <path
        d="M202.38 124.801C208.687 125.927 216.042 124.856 220.19 121.217C213.13 121.145 206.331 119.257 200.997 115.886C198.947 114.58 196.853 112.972 194.131 112.909C192.437 112.87 190.811 113.472 189.556 114.302C188.302 115.132 187.363 116.179 186.439 117.214L186.071 117.366C190.682 120.696 196.074 123.674 202.38 124.801Z"
        fill="#F0F0F0" />
    <path
        d="M220.098 121.144C215.077 122.539 209.579 122.747 204.386 121.737C203.263 121.534 202.191 121.203 201.209 120.757C200.272 120.3 199.52 119.668 199.031 118.927C198.556 118.243 198.179 117.504 197.485 116.916C197.123 116.619 196.679 116.381 196.183 116.218C195.686 116.054 195.147 115.969 194.602 115.968C193.244 115.94 191.953 116.269 190.706 116.622C189.321 117.015 187.891 117.438 186.375 117.348C186.192 117.337 186.179 117.545 186.362 117.556C189 117.714 191.228 116.408 193.787 116.201C194.98 116.105 196.221 116.27 197.092 116.913C197.853 117.475 198.243 118.238 198.715 118.933C199.177 119.661 199.877 120.295 200.753 120.78C201.7 121.261 202.753 121.621 203.867 121.845C206.362 122.378 208.957 122.622 211.557 122.568C214.524 122.518 217.458 122.099 220.231 121.328C220.403 121.28 220.269 121.096 220.098 121.144Z"
        fill="white" />
    <path
        d="M206.032 122.134C205.918 122.791 206.128 123.457 206.625 124.013C207.123 124.568 207.875 124.976 208.747 125.165C208.924 125.202 209.013 125.004 208.836 124.966C208.023 124.792 207.322 124.411 206.861 123.894C206.399 123.376 206.206 122.755 206.318 122.143C206.342 122.01 206.056 122.001 206.032 122.134Z"
        fill="white" />
    <path
        d="M199.209 119.297C200.669 118.457 202.51 118.049 204.364 118.154C204.548 118.165 204.561 117.956 204.377 117.946C202.447 117.839 200.533 118.267 199.016 119.143C198.871 119.227 199.065 119.38 199.209 119.297Z"
        fill="white" />
    <path
        d="M214.365 122.267C214.337 122.006 214.398 121.743 214.543 121.504C214.688 121.264 214.912 121.054 215.196 120.893C215.342 120.811 215.148 120.657 215.003 120.739C214.69 120.918 214.443 121.15 214.282 121.415C214.121 121.679 214.051 121.969 214.079 122.257C214.079 122.285 214.093 122.311 214.118 122.332C214.143 122.352 214.178 122.364 214.216 122.366C214.254 122.367 214.291 122.358 214.319 122.339C214.346 122.32 214.363 122.294 214.365 122.267Z"
        fill="white" />
    <path
        d="M216.107 105.478C216.014 105.528 215.921 105.577 215.826 105.626C214.569 106.286 213.242 106.871 211.855 107.375C211.749 107.415 211.64 107.454 211.533 107.492C208.175 108.679 204.545 109.402 200.825 109.624C199.345 109.711 197.857 109.716 196.376 109.639C194.33 109.532 192.124 109.298 190.206 109.679C190.005 109.717 189.808 109.764 189.615 109.82L185.844 117.027C185.847 117.046 185.848 117.065 185.85 117.085L185.682 117.368C185.758 117.375 185.837 117.382 185.913 117.39C185.957 117.395 186.002 117.398 186.046 117.403C186.075 117.405 186.105 117.408 186.132 117.411C186.142 117.412 186.151 117.413 186.159 117.413C186.186 117.417 186.211 117.418 186.235 117.421C186.677 117.461 187.12 117.499 187.564 117.534C187.566 117.535 187.566 117.535 187.569 117.534C190.95 117.828 194.367 117.828 197.748 117.536C197.849 117.526 197.952 117.517 198.054 117.504C199.562 117.352 201.051 117.111 202.505 116.783C203.3 116.602 204.083 116.391 204.849 116.152C206.827 115.531 208.659 114.687 210.277 113.652C213.503 111.587 215.786 108.794 216.087 105.714C216.095 105.635 216.102 105.558 216.107 105.478Z"
        fill="#F0F0F0" />
    <path
        d="M215.973 105.46C213.117 108.777 208.899 111.354 203.918 112.825C202.854 113.155 201.724 113.362 200.572 113.436C199.446 113.482 198.323 113.308 197.321 112.931C196.377 112.593 195.465 112.168 194.424 112.003C193.89 111.924 193.339 111.929 192.807 112.017C192.276 112.104 191.775 112.272 191.339 112.511C190.231 113.084 189.472 113.912 188.769 114.742C187.987 115.662 187.196 116.628 185.91 117.22C185.755 117.292 185.917 117.464 186.072 117.392C188.309 116.361 189.009 114.342 190.881 113.055C191.754 112.454 192.881 112.041 194.108 112.173C195.18 112.288 196.121 112.726 197.073 113.074C198.044 113.452 199.126 113.651 200.227 113.654C201.381 113.623 202.519 113.449 203.593 113.139C206.026 112.47 208.3 111.527 210.331 110.343C212.659 109.002 214.655 107.38 216.232 105.549C216.33 105.435 216.07 105.347 215.973 105.46Z"
        fill="white" />
    <path
        d="M205.56 112.42C206.013 112.995 206.731 113.435 207.587 113.66C208.443 113.885 209.381 113.881 210.233 113.649C210.405 113.602 210.312 113.404 210.14 113.452C209.347 113.669 208.473 113.673 207.676 113.462C206.88 113.251 206.213 112.84 205.796 112.302C205.706 112.185 205.47 112.304 205.56 112.42Z"
        fill="white" />
    <path
        d="M197.769 113.148C198.241 111.837 199.373 110.703 200.941 109.974C201.096 109.902 200.934 109.73 200.779 109.802C199.15 110.563 197.974 111.744 197.488 113.109C197.441 113.24 197.723 113.277 197.769 113.148Z"
        fill="white" />
    <path
        d="M212.325 108.871C212.086 108.675 211.918 108.439 211.835 108.184C211.753 107.929 211.759 107.663 211.852 107.41C211.901 107.28 211.619 107.243 211.571 107.371C211.47 107.651 211.464 107.945 211.554 108.227C211.644 108.509 211.828 108.77 212.089 108.989C212.111 109.011 212.144 109.026 212.181 109.031C212.218 109.036 212.256 109.031 212.287 109.016C212.319 109 212.34 108.976 212.347 108.949C212.354 108.922 212.346 108.894 212.325 108.871Z"
        fill="white" />
    <path
        d="M227.651 80.6398L218.034 92.4297L218.4 92.5701L215.143 97.0682L214.465 96.8068L212.325 99.4286L212.857 99.6514L209.368 104.053L208.763 103.798L177.383 142.272C176.561 143.279 175.223 144.007 173.664 144.296C172.105 144.585 170.453 144.412 169.069 143.814L110.734 118.561C109.351 117.962 108.352 116.987 107.955 115.852C107.558 114.716 107.796 113.512 108.617 112.504L158.884 50.872C159.707 49.8652 161.045 49.1373 162.603 48.8482C164.162 48.5591 165.815 48.7323 167.198 49.3299L225.534 74.5826C226.916 75.1824 227.914 76.1569 228.311 77.2924C228.708 78.4279 228.471 79.6317 227.651 80.6398Z"
        fill="#3F3D56" />
    <path
        d="M171.148 141.435L112.607 116.094C112.181 115.909 111.873 115.608 111.751 115.258C111.628 114.908 111.702 114.537 111.954 114.226L162.555 52.1842C162.809 51.8739 163.222 51.6496 163.702 51.5605C164.182 51.4714 164.692 51.5248 165.118 51.7089L223.66 77.0504C224.085 77.2353 224.393 77.5357 224.516 77.8857C224.638 78.2358 224.565 78.6068 224.312 78.9176L173.711 140.96C173.457 141.27 173.045 141.494 172.564 141.583C172.084 141.673 171.575 141.619 171.148 141.435Z"
        fill="white" />
    <path
        d="M195.195 63.3991C195.48 63.3991 195.711 63.2308 195.711 63.0231C195.711 62.8155 195.48 62.6472 195.195 62.6472C194.91 62.6472 194.679 62.8155 194.679 63.0231C194.679 63.2308 194.91 63.3991 195.195 63.3991Z"
        fill="white" />
    <path
        d="M192.002 107.842L143.134 86.6885C142.981 86.6227 142.847 86.5355 142.74 86.432C142.633 86.3284 142.555 86.2105 142.511 86.085C142.467 85.9594 142.457 85.8288 142.482 85.7005C142.508 85.5722 142.567 85.4489 142.658 85.3375C142.749 85.226 142.869 85.1288 143.012 85.0513C143.154 84.9738 143.317 84.9176 143.489 84.8859C143.662 84.8542 143.841 84.8476 144.017 84.8664C144.193 84.8853 144.362 84.9294 144.515 84.996L193.382 106.15C193.535 106.216 193.669 106.303 193.776 106.406C193.883 106.51 193.961 106.628 194.005 106.753C194.049 106.879 194.059 107.009 194.034 107.138C194.008 107.266 193.949 107.389 193.858 107.501C193.767 107.612 193.647 107.709 193.504 107.787C193.362 107.864 193.199 107.921 193.027 107.952C192.855 107.984 192.675 107.991 192.499 107.972C192.323 107.953 192.154 107.909 192.002 107.842Z"
        fill="#E6E6E6" />
    <path
        d="M172.489 104.564L156.415 97.6063C156.263 97.5403 156.129 97.453 156.023 97.3495C155.917 97.246 155.839 97.1282 155.796 97.0029C155.752 96.8776 155.742 96.7473 155.768 96.6193C155.793 96.4913 155.853 96.3683 155.943 96.2571C156.034 96.146 156.154 96.0489 156.296 95.9715C156.438 95.8941 156.6 95.8378 156.772 95.806C156.944 95.7741 157.123 95.7672 157.298 95.7857C157.474 95.8042 157.643 95.8477 157.796 95.9138L173.869 102.872C174.022 102.938 174.155 103.025 174.261 103.129C174.368 103.232 174.445 103.35 174.489 103.475C174.532 103.601 174.542 103.731 174.516 103.859C174.491 103.987 174.431 104.11 174.341 104.221C174.25 104.332 174.13 104.429 173.988 104.507C173.846 104.584 173.684 104.64 173.512 104.672C173.341 104.704 173.162 104.711 172.986 104.692C172.81 104.674 172.641 104.63 172.489 104.564Z"
        fill="#E6E6E6" />
    <path
        d="M166.17 112.313L150.096 105.355C149.788 105.222 149.565 105.005 149.477 104.752C149.388 104.499 149.442 104.23 149.625 104.006C149.808 103.782 150.106 103.619 150.453 103.555C150.8 103.49 151.168 103.529 151.476 103.662L167.55 110.621C167.703 110.687 167.836 110.774 167.942 110.877C168.048 110.981 168.126 111.099 168.169 111.224C168.213 111.349 168.223 111.48 168.197 111.608C168.172 111.735 168.112 111.859 168.021 111.97C167.931 112.081 167.811 112.178 167.669 112.255C167.527 112.333 167.365 112.389 167.193 112.421C167.021 112.453 166.842 112.46 166.667 112.441C166.491 112.423 166.322 112.379 166.17 112.313Z"
        fill="#E6E6E6" />
    <path
        d="M162.932 116.282L146.859 109.324C146.706 109.258 146.572 109.171 146.465 109.067C146.359 108.964 146.281 108.846 146.237 108.72C146.193 108.595 146.183 108.464 146.209 108.336C146.234 108.208 146.294 108.085 146.384 107.974C146.475 107.862 146.595 107.765 146.738 107.688C146.88 107.61 147.042 107.554 147.214 107.522C147.386 107.49 147.566 107.484 147.741 107.502C147.917 107.521 148.086 107.565 148.239 107.631L164.313 114.589C164.466 114.655 164.6 114.742 164.707 114.846C164.814 114.949 164.892 115.067 164.936 115.193C164.98 115.318 164.99 115.449 164.965 115.577C164.939 115.706 164.88 115.829 164.789 115.94C164.698 116.052 164.578 116.149 164.435 116.227C164.293 116.304 164.13 116.36 163.958 116.392C163.785 116.424 163.606 116.43 163.43 116.411C163.254 116.393 163.085 116.349 162.932 116.282Z"
        fill="#E6E6E6" />
    <path
        d="M178.388 112.287L144.285 97.524C143.979 97.3901 143.757 97.1732 143.67 96.9207C143.583 96.6683 143.636 96.4008 143.818 96.177C144.001 95.9532 144.298 95.7911 144.644 95.7264C144.99 95.6616 145.358 95.6995 145.666 95.8316L179.769 110.594C179.922 110.66 180.056 110.747 180.163 110.851C180.27 110.954 180.348 111.072 180.392 111.198C180.436 111.323 180.446 111.454 180.421 111.582C180.395 111.711 180.336 111.834 180.245 111.945C180.154 112.057 180.034 112.154 179.891 112.231C179.749 112.309 179.586 112.365 179.414 112.397C179.241 112.429 179.062 112.435 178.886 112.416C178.71 112.397 178.541 112.353 178.388 112.287Z"
        fill="#E6E6E6" />
    <path
        d="M171.888 131.153L166.052 128.627C165.529 128.4 165.151 128.031 165.001 127.601C164.851 127.171 164.942 126.715 165.253 126.334C165.564 125.953 166.07 125.677 166.66 125.567C167.25 125.457 167.875 125.523 168.399 125.749L174.235 128.275C174.759 128.502 175.138 128.871 175.288 129.302C175.439 129.732 175.348 130.188 175.037 130.569C174.726 130.951 174.219 131.227 173.629 131.337C173.038 131.446 172.412 131.38 171.888 131.153Z"
        fill="#6C63FF" />
    <path
        d="M182.777 90.133C189.384 90.133 194.74 86.231 194.74 81.4177C194.74 76.6043 189.384 72.7023 182.777 72.7023C176.17 72.7023 170.814 76.6043 170.814 81.4177C170.814 86.231 176.17 90.133 182.777 90.133Z"
        fill="#6C63FF" />
    <path
        d="M45.4335 29.4667C50.4157 24.5066 58.4994 21.3807 65.9521 23.0013C59.2398 27.2278 54.5114 33.3262 52.6035 40.2174C51.8791 42.8773 51.4008 45.8996 48.8474 47.5689C47.2587 48.6076 45.1224 48.8916 43.1268 48.7031C41.131 48.5145 39.2315 47.8986 37.3576 47.2881L36.8594 47.3349C38.1127 40.9135 40.4514 34.4268 45.4335 29.4667Z"
        fill="#F0F0F0" />
    <path
        d="M65.9336 23.137C59.781 24.5305 54.3039 27.5282 50.2804 31.7043C49.3954 32.5903 48.681 33.5888 48.1635 34.663C47.6995 35.7231 47.5796 36.869 47.8162 37.9816C48.0122 39.0228 48.3553 40.0686 48.2486 41.1319C48.1845 41.6755 47.9852 42.2015 47.6639 42.6754C47.3425 43.1493 46.9063 43.5604 46.384 43.8817C45.107 44.711 43.5539 45.1028 42.0193 45.4413C40.3154 45.8171 38.5386 46.1846 37.1692 47.1762C37.0033 47.2964 36.7926 47.0716 36.9582 46.9516C39.3407 45.2263 42.7244 45.3726 45.3785 44.1007C46.617 43.5071 47.6515 42.5943 47.8743 41.3662C48.0692 40.2922 47.7165 39.2136 47.5073 38.1608C47.2576 37.0783 47.3251 35.9605 47.704 34.9052C48.1551 33.8122 48.8228 32.7921 49.6785 31.8886C51.5667 29.8285 53.8262 28.0323 56.3741 26.5659C59.271 24.8786 62.4878 23.6228 65.8854 22.853C66.0958 22.8054 66.1425 23.0897 65.9336 23.137Z"
        fill="white" />
    <path
        d="M51.4819 30.2951C50.7451 29.629 50.3122 28.7632 50.2606 27.8521C50.209 26.941 50.5419 26.0441 51.2 25.3215C51.3338 25.1756 51.608 25.3446 51.474 25.4906C50.8598 26.1625 50.5497 26.9981 50.5998 27.8464C50.65 28.6947 51.057 29.4999 51.7474 30.1167C51.8973 30.2508 51.6309 30.4285 51.4819 30.2951Z"
        fill="white" />
    <path
        d="M47.6347 37.4648C49.8373 37.5435 51.994 36.9172 53.6748 35.7107C53.8413 35.591 54.052 35.8158 53.8858 35.9353C52.1339 37.188 49.8879 37.8359 47.5961 37.7498C47.3777 37.7414 47.4174 37.4565 47.6347 37.4648Z"
        fill="white" />
    <path
        d="M59.3578 25.2517C59.5794 25.5597 59.8879 25.8163 60.2557 25.9985C60.6235 26.1806 61.0391 26.2827 61.4651 26.2955C61.6835 26.3015 61.6435 26.5864 61.4265 26.5804C60.9559 26.5645 60.4972 26.4513 60.0903 26.2508C59.6834 26.0503 59.3407 25.7685 59.0922 25.4302C59.0657 25.3999 59.0537 25.3623 59.0588 25.3248C59.0638 25.2874 59.0856 25.253 59.1195 25.2287C59.1548 25.2052 59.1997 25.1944 59.2443 25.1988C59.2889 25.2031 59.3297 25.2221 59.3578 25.2517Z"
        fill="white" />
    <path
        d="M77.0342 42.9445C76.8977 42.9441 76.7612 42.9436 76.6229 42.9451C74.7873 42.947 72.9549 43.0749 71.1437 43.3278C71.0033 43.3454 70.8614 43.3651 70.7218 43.3861C66.3661 44.0346 62.1905 45.3614 58.4074 47.2991C56.9028 48.0713 55.4699 48.9392 54.1211 49.8953C52.2583 51.2158 50.3629 52.7729 48.158 53.4751C47.929 53.5505 47.6946 53.6139 47.4563 53.6648L36.9656 47.8454C36.9496 47.822 36.9319 47.8006 36.9158 47.7772L36.4844 47.5611C36.5499 47.5076 36.6192 47.4534 36.6846 47.4C36.7225 47.3689 36.7627 47.3391 36.8005 47.3079C36.8265 47.2876 36.8526 47.2673 36.8746 47.2477C36.8832 47.2409 36.892 47.2342 36.899 47.2294C36.9211 47.2098 36.944 47.1936 36.9645 47.176C37.3508 46.872 37.7403 46.5699 38.133 46.2695C38.1346 46.2674 38.1346 46.2674 38.1385 46.2667C41.1375 43.9842 44.3882 41.8934 47.9108 40.2864C48.0168 40.2381 48.1243 40.1877 48.235 40.142C49.8276 39.4251 51.4868 38.8194 53.196 38.3311C54.1329 38.0663 55.0851 37.8418 56.0489 37.6584C58.5402 37.1885 61.1034 37.0531 63.6446 37.2569C68.7102 37.664 73.5655 39.4367 76.7907 42.6936C76.8731 42.777 76.9534 42.8591 77.0342 42.9445Z"
        fill="#F0F0F0" />
    <path
        d="M76.9232 43.0441C71.0187 41.0237 64.5117 40.6282 58.3263 41.9138C56.9889 42.1706 55.7078 42.604 54.53 43.1982C53.4048 43.8084 52.4933 44.6622 51.8902 45.6711C51.3056 46.6022 50.835 47.6119 49.993 48.4066C49.5548 48.808 49.0212 49.1265 48.4273 49.3412C47.8334 49.556 47.1925 49.6621 46.5467 49.6527C44.9367 49.6646 43.4178 49.1865 41.9515 48.6753C40.3236 48.1077 38.6433 47.4964 36.844 47.5908C36.626 47.6023 36.6177 47.3155 36.8354 47.3041C39.9659 47.1398 42.5634 48.9796 45.588 49.3155C46.9994 49.4722 48.4751 49.2702 49.5273 48.4031C50.4474 47.6448 50.9337 46.604 51.516 45.6569C52.0873 44.6654 52.9369 43.8073 53.9906 43.1575C55.1288 42.5146 56.3881 42.0401 57.7146 41.7545C60.6887 41.0711 63.7713 40.7875 66.8496 40.914C70.3637 41.042 73.8261 41.6774 77.0869 42.7928C77.2887 42.8619 77.1237 43.1127 76.9232 43.0441Z"
        fill="white" />
    <path
        d="M60.2892 41.4007C60.1751 40.4937 60.4459 39.5819 61.0532 38.8282C61.6605 38.0744 62.5648 37.5278 63.6047 37.286C63.8153 37.2377 63.914 37.5122 63.7031 37.5606C62.7343 37.7843 61.892 38.2935 61.3281 38.9964C60.7643 39.6992 60.5161 40.5494 60.6283 41.3934C60.6524 41.5769 60.3132 41.5831 60.2892 41.4007Z"
        fill="white" />
    <path
        d="M52.1131 45.166C53.8157 46.3504 55.9836 46.9485 58.1845 46.8411C58.4026 46.8303 58.4109 47.1171 58.1931 47.1279C55.9026 47.236 53.648 46.6097 51.8794 45.3739C51.711 45.256 51.9456 45.0487 52.1131 45.166Z"
        fill="white" />
    <path
        d="M70.1672 41.3842C70.1249 41.7429 70.1886 42.1049 70.3526 42.4376C70.5166 42.7704 70.7757 43.0635 71.1068 43.2906C71.2769 43.4066 71.0421 43.6137 70.8731 43.4985C70.5087 43.2461 70.223 42.9221 70.0409 42.5548C69.8587 42.1875 69.7857 41.7881 69.8282 41.3914C69.8285 41.3537 69.8457 41.3176 69.8764 41.2903C69.9071 41.263 69.9489 41.2466 69.9934 41.2444C70.0383 41.2436 70.0817 41.2579 70.1143 41.2841C70.1468 41.3102 70.1658 41.3462 70.1672 41.3842Z"
        fill="white" />
    <path
        d="M9.12158 116.834H148.572V48.5518C148.571 48.0402 148.33 47.5497 147.903 47.188C147.475 46.8262 146.895 46.6227 146.29 46.6221H11.4032C10.7983 46.6227 10.2184 46.8262 9.79062 47.188C9.36289 47.5497 9.12228 48.0402 9.12158 48.5518V116.834Z"
        fill="#CACACA" />
    <path d="M144.263 49.291H13.4297V112.112H144.263V49.291Z" fill="white" />
    <path
        d="M9 114.986V123.412C9 123.761 9.08134 124.107 9.23939 124.43C9.39743 124.753 9.62909 125.046 9.92113 125.293C10.2132 125.54 10.5599 125.736 10.9414 125.87C11.323 126.003 11.732 126.072 12.145 126.072H63.6149V142.701H62.9311C62.8775 142.701 62.8244 142.71 62.7748 142.727C62.7252 142.745 62.6802 142.77 62.6423 142.802C62.6043 142.834 62.5742 142.873 62.5537 142.914C62.5332 142.956 62.5226 143.001 62.5226 143.047V144.203C62.5226 144.249 62.5332 144.294 62.5537 144.336C62.5742 144.377 62.6043 144.416 62.6423 144.448C62.6802 144.48 62.7252 144.505 62.7748 144.523C62.8244 144.54 62.8775 144.549 62.9311 144.549H94.883C94.9366 144.549 94.9898 144.54 95.0393 144.523C95.0889 144.505 95.134 144.48 95.1719 144.448C95.2098 144.416 95.2399 144.377 95.2604 144.336C95.281 144.294 95.2915 144.249 95.2915 144.203V143.047C95.2915 143.001 95.281 142.956 95.2604 142.914C95.2399 142.873 95.2098 142.834 95.1719 142.802C95.134 142.77 95.0889 142.745 95.0393 142.727C94.9898 142.71 94.9366 142.701 94.883 142.701H94.1992V126.072H145.669C146.082 126.072 146.491 126.003 146.873 125.87C147.254 125.736 147.601 125.54 147.893 125.293C148.185 125.046 148.417 124.753 148.575 124.43C148.733 124.107 148.814 123.761 148.814 123.412V114.986L9 114.986Z"
        fill="#3F3D56" />
    <path
        d="M125.332 70.3007H63.3741C62.9835 70.3007 62.6089 70.1695 62.3327 69.9359C62.0565 69.7023 61.9014 69.3855 61.9014 69.0551C61.9014 68.7248 62.0565 68.408 62.3327 68.1744C62.6089 67.9408 62.9835 67.8096 63.3741 67.8096H125.332C125.722 67.8096 126.097 67.9408 126.373 68.1744C126.649 68.408 126.804 68.7248 126.804 69.0551C126.804 69.3855 126.649 69.7023 126.373 69.9359C126.097 70.1695 125.722 70.3007 125.332 70.3007Z"
        fill="#E6E6E6" />
    <path
        d="M104.542 75.9235H84.1627C83.7721 75.9235 83.3975 75.7923 83.1213 75.5586C82.8451 75.325 82.6899 75.0082 82.6899 74.6778C82.6899 74.3475 82.8451 74.0307 83.1213 73.7971C83.3975 73.5635 83.7721 73.4322 84.1627 73.4322H104.542C104.933 73.4322 105.307 73.5635 105.584 73.7971C105.86 74.0307 106.015 74.3475 106.015 74.6778C106.015 75.0082 105.86 75.325 105.584 75.5586C105.307 75.7923 104.933 75.9235 104.542 75.9235Z"
        fill="#E6E6E6" />
    <path
        d="M104.542 87.3288H84.1627C83.7721 87.3288 83.3975 87.1976 83.1213 86.964C82.8451 86.7304 82.6899 86.4135 82.6899 86.0832C82.6899 85.7528 82.8451 85.436 83.1213 85.2024C83.3975 84.9688 83.7721 84.8375 84.1627 84.8375H104.542C104.933 84.8375 105.307 84.9688 105.584 85.2024C105.86 85.436 106.015 85.7528 106.015 86.0832C106.015 86.4135 105.86 86.7304 105.584 86.964C105.307 87.1976 104.933 87.3288 104.542 87.3288Z"
        fill="#E6E6E6" />
    <path
        d="M104.542 93.1705H84.1626C83.9692 93.1705 83.7777 93.1383 83.5991 93.0757C83.4204 93.0131 83.258 92.9213 83.1213 92.8057C82.9845 92.69 82.8761 92.5527 82.802 92.4016C82.728 92.2505 82.6899 92.0885 82.6899 91.9249C82.6899 91.7614 82.728 91.5994 82.802 91.4483C82.8761 91.2971 82.9845 91.1598 83.1213 91.0442C83.258 90.9285 83.4204 90.8368 83.5991 90.7742C83.7777 90.7116 83.9692 90.6794 84.1626 90.6794H104.542C104.736 90.6794 104.927 90.7116 105.106 90.7742C105.284 90.8368 105.447 90.9285 105.584 91.0442C105.72 91.1598 105.829 91.2971 105.903 91.4483C105.977 91.5994 106.015 91.7614 106.015 91.9249C106.015 92.0885 105.977 92.2505 105.903 92.4016C105.829 92.5527 105.72 92.69 105.584 92.8057C105.447 92.9213 105.284 93.0131 105.106 93.0757C104.927 93.1383 104.736 93.1705 104.542 93.1705Z"
        fill="#E6E6E6" />
    <path
        d="M115.971 81.5461H72.7329C72.3424 81.5461 71.9678 81.4149 71.6916 81.1813C71.4154 80.9477 71.2603 80.6309 71.2603 80.3005C71.2603 79.9702 71.4154 79.6534 71.6916 79.4198C71.9678 79.1862 72.3424 79.055 72.7329 79.055H115.971C116.362 79.055 116.737 79.1862 117.013 79.4198C117.289 79.6534 117.444 79.9702 117.444 80.3005C117.444 80.6309 117.289 80.9477 117.013 81.1813C116.737 81.4149 116.362 81.5461 115.971 81.5461Z"
        fill="#E6E6E6" />
    <path
        d="M124.3 105.131H116.9C116.236 105.131 115.599 104.908 115.13 104.511C114.66 104.113 114.396 103.575 114.396 103.013C114.396 102.451 114.66 101.912 115.13 101.515C115.599 101.118 116.236 100.895 116.9 100.895H124.3C124.964 100.895 125.601 101.118 126.071 101.515C126.54 101.912 126.804 102.451 126.804 103.013C126.804 103.575 126.54 104.113 126.071 104.511C125.601 104.908 124.964 105.131 124.3 105.131Z"
        fill="#6C63FF" />
    <path
        d="M43.891 89.7581C51.0048 89.7581 56.7717 84.8806 56.7717 78.8639C56.7717 72.8472 51.0048 67.9697 43.891 67.9697C36.7772 67.9697 31.0103 72.8472 31.0103 78.8639C31.0103 84.8806 36.7772 89.7581 43.891 89.7581Z"
        fill="#6C63FF" />
    <path
        d="M78.7858 47.9566C79.0539 47.9566 79.2712 47.7727 79.2712 47.546C79.2712 47.3192 79.0539 47.1354 78.7858 47.1354C78.5176 47.1354 78.3003 47.3192 78.3003 47.546C78.3003 47.7727 78.5176 47.9566 78.7858 47.9566Z"
        fill="white" />
</svg>