<svg viewBox="0 0 251 145" fill="none" xmlns="http://www.w3.org/2000/svg">
    <g clip-path="url(#clip0_75_899)">
        <path d="M205.711 138.66L203.101 138.09L204.679 126.885L208.53 127.726L205.711 138.66Z"
            fill="#FFB6B6" />
        <path
            d="M195.408 141.55C195.294 141.958 195.513 142.364 195.897 142.457L201.045 143.702C201.045 143.702 202.08 141.927 204.373 141.61L203.759 144.358L206.415 145L207.309 140.559C207.309 140.559 208.67 138.396 207.527 136.846C206.384 135.296 207.532 135.751 207.532 135.751L207.704 132.91L203.569 132.379L202.358 136.612L199.239 140.349L196.016 140.973C195.729 141.028 195.49 141.255 195.408 141.55Z"
            fill="#2F2E41" />
        <path d="M230.727 136.016L228.347 137.165L221.722 127.698L225.234 126.003L230.727 136.016Z"
            fill="#FFB6B6" />
        <path
            d="M224.919 144.455C225.118 144.833 225.568 145.009 225.924 144.847L230.703 142.673C230.703 142.673 230.25 140.698 231.77 139.067L233.223 141.526L235.689 140.405L233.267 136.49C233.267 136.49 232.79 134.022 230.84 133.538C228.889 133.053 230.079 132.703 230.079 132.703L228.226 130.441L224.715 132.544L226.75 136.492L226.99 141.221L224.978 143.648C224.799 143.864 224.776 144.181 224.919 144.455Z"
            fill="#2F2E41" />
        <path
            d="M91.149 94.3987H160.318C161.189 94.3987 161.895 93.741 161.895 92.9297V1.74373C161.895 0.932436 161.189 0.27475 160.318 0.27475H91.149C90.2782 0.27475 89.5723 0.932436 89.5723 1.74373V92.9297C89.5723 93.741 90.2782 94.3987 91.149 94.3987Z"
            fill="white" />
        <path
            d="M162.19 94.6736H89.2773V0H162.19V94.6736ZM89.8672 94.1241H161.6V0.549544H89.8672V94.1241Z"
            fill="#E6E6E6" />
        <path
            d="M145.804 15.1663C146.085 15.1663 146.312 15.3782 146.312 15.6397V16.5866C146.312 16.8481 146.085 17.06 145.804 17.06H105.663C105.383 17.06 105.155 16.8481 105.155 16.5866V15.6397C105.155 15.3783 105.383 15.1663 105.663 15.1663H145.804Z"
            fill="#E6E6E6" />
        <path
            d="M145.804 19.6632C146.085 19.6632 146.312 19.8752 146.312 20.1366V21.0835C146.312 21.345 146.085 21.5569 145.804 21.5569H105.663C105.383 21.5569 105.155 21.345 105.155 21.0835V20.1366C105.155 19.8752 105.383 19.6632 105.663 19.6632H145.804Z"
            fill="#E6E6E6" />
        <path
            d="M145.804 24.1604C146.085 24.1604 146.312 24.3724 146.312 24.6338V25.5807C146.312 25.8422 146.085 26.0541 145.804 26.0541H105.663C105.383 26.0541 105.155 25.8422 105.155 25.5807V24.6341C105.155 24.3726 105.383 24.1607 105.663 24.1607L145.804 24.1604Z"
            fill="#6C63FF" />
        <path
            d="M219.688 35.9586H233.021C233.002 35.375 233.135 34.7956 233.409 34.2706C233.417 34.8532 233.554 35.428 233.813 35.9586H234.418C235.345 35.9577 236.095 35.2583 236.096 34.3953V26.3231C236.096 22.3708 232.469 16.4459 228.527 18.9252C228.4 18.919 226.402 18.0946 226.275 18.0946C222.808 18.0972 221.615 21.0123 220.568 24.0918C219.375 23.5796 218.553 25.7178 217.958 29.4812C217.785 30.5794 217.631 31.816 217.492 33.1656C217.11 34.298 217.785 35.5046 219.001 35.8607C219.223 35.9259 219.455 35.9593 219.688 35.9597L219.688 35.9586Z"
            fill="#2F2E41" />
        <path
            d="M193.522 82.1077C192.862 83.5676 193.134 85.0686 194.131 85.4606C195.128 85.8526 196.473 84.9867 197.134 83.5262C197.406 82.9462 197.526 82.3138 197.482 81.6819L200.2 75.4631L197.04 74.3372L194.696 80.5876C194.18 80.9996 193.777 81.5207 193.522 82.1074L193.522 82.1077Z"
            fill="#FFB6B6" />
        <path
            d="M222.737 33.2263L229.111 34.4683L228.133 37.2004L230.088 58.0966L226.83 64.8249L206.953 63.307L211.841 54.1994C211.841 54.1994 209.886 46.6102 212.493 45.0918C215.099 43.5733 219.335 35.9841 219.335 35.9841L222.737 33.2263Z"
            fill="#6C63FF" />
        <path
            d="M228.679 35.6768L234.325 37.8065L232.369 64.5206L236.605 87.5919L222.92 89.717C222.92 89.717 224.549 38.7172 225.527 37.8065C226.504 36.8957 228.679 35.6754 228.679 35.6754V35.6768Z"
            fill="#2F2E41" />
        <path
            d="M217.621 39.0084C217.621 39.0084 213.947 36.843 211.962 38.4464C209.977 40.0498 194.696 78.8077 194.696 78.8077L198.818 80.4761L208.271 62.011L217.621 39.0084Z"
            fill="#2F2E41" />
        <path
            d="M207.097 104.311L203.37 131.004L208.583 131.307C208.583 131.307 211.294 124.416 214.386 116.299C215.045 114.577 215.719 112.801 216.387 111.023C217.11 109.092 217.831 107.161 218.515 105.297C220.206 100.701 221.689 96.5181 222.536 93.7861C222.682 93.3066 222.813 92.8727 222.92 92.4898C225.2 84.3298 226.504 63.0053 226.504 63.0053L207.605 61.4874L207.403 61.7211L203.37 66.4173L203.558 67.41L208.583 93.6658L207.097 104.312L207.097 104.311Z"
            fill="#2F2E41" />
        <path
            d="M208.583 93.6655L207.097 104.312L213.78 115.273L214.386 116.299L223.587 131.878L228.133 129.477C228.133 129.477 222.219 116.815 218.514 105.297C218.103 104.032 217.722 102.778 217.38 101.557C216.373 97.9842 218.022 91.4638 217.377 89.6665C215.197 83.6012 208.093 71.4673 204.796 65.9705L203.558 67.4095L208.583 93.6655Z"
            fill="#2F2E41" />
        <path
            d="M219.418 35.7555L212.82 38.1114L195.55 85.1648L205.977 86.6827L210.865 59.3614L219.418 35.7555Z"
            fill="#2F2E41" />
        <path
            d="M235.918 86.5457C236.086 88.1225 237.095 89.3199 238.172 89.2202C239.249 89.1205 239.986 87.7616 239.818 86.1843C239.76 85.5534 239.541 84.9446 239.179 84.4087L238.377 77.7363L235.024 78.1535L236.17 84.6871C235.928 85.279 235.841 85.9163 235.918 86.5457Z"
            fill="#FFB6B6" />
        <path
            d="M232.043 37.8078C232.043 37.8078 236.279 36.897 237.582 39.0222C238.886 41.1473 239.538 82.4328 239.538 82.4328L235.055 82.7363L232.695 62.3979L232.043 37.8086L232.043 37.8078Z"
            fill="#2F2E41" />
        <path
            d="M226.637 32.4899C230.378 32.4899 233.411 29.6647 233.411 26.1796C233.411 22.6945 230.378 19.8693 226.637 19.8693C222.896 19.8693 219.864 22.6945 219.864 26.1796C219.864 29.6647 222.896 32.4899 226.637 32.4899Z"
            fill="#FFB6B6" />
        <path
            d="M229.356 35.9583H232.701C232.871 35.9583 233.016 35.8362 233.024 35.6781L233.025 35.6607C233.043 35.3309 233.539 35.2755 233.655 35.5877C233.701 35.7132 233.754 35.837 233.813 35.9583H234.142V26.2298C234.142 24.5612 232.69 23.2085 230.899 23.2085C229.37 23.2085 228.048 24.2037 227.728 25.5967C227.728 25.5967 225.455 28.1943 226.794 29.6548C228.134 31.1152 226.185 32.3039 226.185 32.3039C225.752 34.1847 227.291 35.9583 229.356 35.9583Z"
            fill="#2F2E41" />
        <path
            d="M118.449 47.2905C119.2 46.8395 119.358 45.8743 118.833 45.2012L116.373 42.0481C115.799 41.3109 114.692 41.1471 113.9 41.6822C113.83 41.7297 113.764 41.7818 113.702 41.8383C109.537 43.9126 107.295 46.9419 109.788 50.5228C109.788 51.1208 109.835 51.718 109.928 52.3097C109.968 52.5664 110.061 52.8175 110.218 53.0317C110.685 53.6677 111.509 53.9012 112.234 53.681L116.256 52.4634C117.111 52.2046 117.574 51.3354 117.258 50.5515C116.85 49.5386 117.018 48.1502 118.449 47.2905Z"
            fill="#F2F2F2" />
        <path
            d="M127.997 56.5915C126.839 56.485 125.851 57.3736 125.851 58.4571V61.6901C125.851 61.7738 125.858 61.8575 125.872 61.9402C126.02 62.8411 126.925 63.4591 127.892 63.3206C133.529 63.9678 137.382 61.6839 137.614 56.6728C137.651 56.6025 137.682 56.5298 137.708 56.4553C138.009 55.5894 137.499 54.6605 136.569 54.3806L133.201 53.3611C132.039 53.0094 130.832 53.7122 130.628 54.8345C130.445 55.8483 129.726 56.7506 127.997 56.5915Z"
            fill="#E6E6E6" />
        <path
            d="M107.173 59.7527C108.342 66.2172 114.431 68.6697 120.781 69.0573C120.905 69.0751 121.031 69.0841 121.156 69.0842C122.526 69.0848 123.637 68.051 123.637 66.7751V61.3692C123.637 59.8571 122.307 58.6795 120.684 58.6643C119.115 58.6495 118.093 57.9578 117.673 56.6878C117.193 55.2371 115.482 54.4722 113.932 54.9413L108.636 56.5448C107.95 56.7523 107.394 57.2276 107.114 57.8469C106.836 58.46 106.857 59.1556 107.173 59.7527Z"
            fill="#3F3D56" />
        <path
            d="M139.803 37.3998C138.826 36.5078 137.257 36.5229 136.3 37.4335C136.214 37.5146 136.136 37.6014 136.064 37.6932L131.358 43.728C130.756 44.4997 131.1 45.5747 132.041 45.9515C134.244 46.834 134.012 48.8152 133.295 50.0276C132.944 50.6217 133.234 51.3653 133.926 51.575L141.857 53.9757C143.162 54.3681 144.561 53.7009 144.982 52.4853C145.024 52.363 145.056 52.2375 145.076 52.1102C145.212 51.2644 145.28 50.4102 145.28 49.5549C146.622 44.8943 144.766 40.5009 139.803 37.3998Z"
            fill="#6C63FF" />
        <path
            d="M126.184 44.3972C127.063 44.8581 128.171 44.6352 128.764 43.8752L130.341 41.8536C130.647 41.4616 130.753 40.9643 130.631 40.493C130.514 40.0304 130.185 39.6389 129.73 39.4222C126.02 36.2992 121.629 36.1075 117.906 39.4063C117.438 39.6263 117.097 40.0268 116.974 40.5016C116.852 40.9696 116.958 41.4637 117.262 41.853L119.104 44.2155C119.737 45.0269 120.963 45.2392 121.835 44.651C123.102 43.7964 124.943 43.7461 126.184 44.3972Z"
            fill="#E6E6E6" />
        <path d="M251 144.52H0V144.982H251V144.52Z" fill="#E6E6E6" />
        <path
            d="M105.413 85.1222C105.554 84.5638 106.219 84.3803 106.763 84.4014C107.106 84.423 107.447 84.4732 107.78 84.5515C108.13 84.6243 108.476 84.7106 108.82 84.8018C109.451 84.9694 110.075 85.1722 110.717 85.3033C111.255 85.4405 111.822 85.4483 112.364 85.3258C112.885 85.1924 113.296 84.8172 113.449 84.3339C113.605 83.8721 113.381 83.373 112.918 83.1523C112.49 82.9326 111.952 83.0777 111.716 83.4764C111.713 83.4823 111.709 83.4882 111.706 83.4942C111.508 83.9859 111.663 84.5407 112.094 84.8793C112.315 85.0726 112.558 85.2439 112.817 85.3903C113.08 85.5574 113.373 85.6795 113.682 85.7511C114.207 85.8808 114.762 85.6789 115.054 85.2519C115.112 85.1497 115.147 85.0374 115.157 84.9221C115.172 84.7652 114.909 84.7661 114.894 84.9221C114.849 85.3717 114.284 85.5816 113.861 85.5327C113.576 85.4886 113.304 85.3901 113.062 85.2433C112.828 85.1163 112.606 84.9706 112.399 84.8078C112.04 84.5188 111.705 84.0434 111.945 83.5925C112.133 83.3027 112.537 83.2093 112.848 83.3838C112.889 83.4071 112.928 83.4346 112.963 83.4658C113.339 83.7527 113.272 84.2728 113.024 84.6136C112.726 84.9692 112.266 85.1737 111.781 85.1656C111.271 85.1664 110.763 85.0922 110.277 84.9458C109.671 84.7856 109.071 84.6061 108.462 84.455C108.117 84.3693 107.768 84.2921 107.416 84.2319C107.084 84.1636 106.742 84.1415 106.402 84.1665C105.829 84.1918 105.333 84.5466 105.158 85.0562C105.12 85.2104 105.374 85.2758 105.413 85.1222Z"
            fill="#3F3D56" />
        <path
            d="M115.829 78.7334C115.908 78.7334 115.973 78.9453 115.973 79.2069V80.1537C115.973 80.415 115.908 80.6272 115.829 80.6272H104.483C104.404 80.6272 104.34 80.4153 104.34 80.1537V79.2069C104.34 78.9453 104.404 78.7334 104.483 78.7334H115.829Z"
            fill="#E6E6E6" />
        <path
            d="M146.168 78.7334C146.248 78.7334 146.312 78.9453 146.312 79.2069V80.1537C146.312 80.415 146.248 80.6272 146.168 80.6272H134.823C134.743 80.6272 134.679 80.4153 134.679 80.1537V79.2069C134.679 78.9453 134.743 78.7334 134.823 78.7334H146.168Z"
            fill="#E6E6E6" />
        <path
            d="M141.117 84.0668L138.864 84.7603L137.738 85.107C137.393 85.2446 137.018 85.3087 136.642 85.2947C136.365 85.2775 136.121 85.1166 136.012 84.8784C135.964 84.6396 136.074 84.3973 136.291 84.2632C136.829 83.8824 137.508 84.2701 137.889 84.6644C138.355 85.1469 138.619 85.7698 139.056 86.2748C139.444 86.7281 139.937 87.0943 140.498 87.3464C141.619 87.8644 142.957 87.758 143.967 87.0703C145.154 86.2171 145.275 84.7383 145.281 83.4482C145.277 83.3243 145.165 83.2274 145.032 83.2318C144.906 83.2359 144.804 83.3304 144.8 83.4482C144.794 84.6174 144.723 86.0506 143.578 86.7823C142.482 87.4833 141.042 87.2972 140.032 86.5504C139.512 86.119 139.079 85.6039 138.755 85.0298C138.394 84.4803 137.947 83.9497 137.269 83.7365C136.669 83.5335 135.999 83.7517 135.665 84.2586C135.378 84.7093 135.537 85.2918 136.021 85.5596C136.058 85.5803 136.097 85.5987 136.137 85.6148C136.924 85.9641 137.823 85.5549 138.58 85.3216L141.245 84.5012C141.538 84.411 141.413 83.9774 141.117 84.0684L141.117 84.0668Z"
            fill="#6C63FF" />
        <path
            d="M41.0394 136.287C41.01 136.263 40.9874 136.25 40.9721 136.251C40.6046 136.254 40.2773 136.433 40.0969 136.73L36.1407 143.575C36.0502 143.724 36.0058 143.887 36.0074 144.05C36.0089 144.212 36.0563 144.375 36.1496 144.522C36.3361 144.817 45.0731 144.923 45.0731 144.923C45.4405 144.92 46.449 140.709 41.0394 136.287Z"
            fill="#E6E6E6" />
        <path d="M25.9191 143.265L28.9219 143.24L30.2492 132.438L25.8174 132.474L25.9191 143.265Z"
            fill="#FFB6B6" />
        <path
            d="M36.2064 143.117C36.3012 143.263 36.355 143.737 36.3566 143.907C36.3615 144.431 35.9092 144.86 35.3463 144.865L26.0471 144.94C25.6631 144.944 25.3491 144.656 25.3458 144.298L25.3424 143.938C25.3424 143.938 24.8722 142.857 25.8068 141.514C25.8068 141.514 26.9937 142.55 28.7373 140.897L29.2478 140.018L33.0264 142.545L35.1098 142.767C35.5656 142.815 35.9687 142.752 36.2064 143.117Z"
            fill="#2F2E41" />
        <path d="M37.3428 133.939L40.1959 134.811L45.1668 124.974L40.9559 123.686L37.3428 133.939Z"
            fill="#FFB6B6" />
        <path
            d="M47.1386 136.869C47.1783 137.035 47.0666 137.499 47.0094 137.662C46.8338 138.16 46.2579 138.431 45.7231 138.267L36.8877 135.564C36.5229 135.453 36.3243 135.087 36.4441 134.747L36.5649 134.404C36.5649 134.404 36.4908 133.24 37.8382 132.246C37.8382 132.246 38.6062 133.582 40.8262 132.537L41.6122 131.856L44.3228 135.378L46.2202 136.209C46.6353 136.391 47.0391 136.451 47.1386 136.869Z"
            fill="#2F2E41" />
        <path
            d="M41.3713 71.3053L47.3706 89.2262L54.4037 105.332L43.7431 128.508L37.8115 126.355L43.1203 106.296L34.0453 91.3196L29.7566 136.279L24.5394 135.697L17.7559 81.8417L18.8197 70.1305L41.3713 71.3053Z"
            fill="#2F2E41" />
        <path
            d="M35.233 30.5011L28.7509 29.0434L26.9627 33.0001C26.9627 33.0001 18.2034 34.3787 17.7557 40.6259C17.7557 40.6259 16.01 48.8264 17.1275 51.1172C18.245 53.408 21 61.5086 21 61.5086C21 61.5086 16.6379 71.6009 17.7557 72.2247C18.8735 72.8484 42.8252 75.1227 42.8252 73.8733C42.8252 72.6239 43.0986 57.7799 43.0986 57.7799L42.1607 35.2898L36.1272 33.2084L35.233 30.5011Z"
            fill="#E6E6E6" />
        <path
            d="M34.1361 29.4948C37.7436 29.4948 40.6681 26.7703 40.6681 23.4093C40.6681 20.0484 37.7436 17.3239 34.1361 17.3239C30.5285 17.3239 27.604 20.0484 27.604 23.4093C27.604 26.7703 30.5285 29.4948 34.1361 29.4948Z"
            fill="#FFB6B6" />
        <path
            d="M29.8108 24.3139C30.3321 24.5796 29.8381 25.849 30.1639 25.9587C30.5405 26.0854 31.9129 24.629 31.9293 22.9981C31.9343 22.5046 31.8123 22.2676 31.9293 21.6824C32.0824 20.9168 32.5528 20.0138 32.9886 20.0376C33.2469 20.0518 33.4993 20.3919 33.5182 20.6955C33.5447 21.1211 33.1011 21.2887 33.1651 21.5179C33.287 21.9545 35.1502 22.2553 35.8132 21.5179C36.333 20.9398 35.9339 19.9252 36.1663 19.8732C36.3377 19.8348 36.5219 20.3934 37.2256 21.0245C37.4907 21.2622 37.885 21.6158 38.1083 21.5179C38.4309 21.3764 38.1961 20.3798 38.2848 20.3666C38.3583 20.3556 38.4047 21.0561 38.8145 21.6824C39.3409 22.4869 40.4266 23.1069 40.933 22.8337C41.2432 22.6663 41.2675 22.2006 41.286 21.8468C41.325 21.1016 42.4868 19.3872 42.1858 18.5901C41.5731 16.9678 40.5248 18.1119 40.0503 17.5706C39.4079 16.8377 38.8319 17.232 37.7552 16.4192C36.7034 15.6252 36.6939 14.8268 35.9898 14.7745C35.3556 14.7274 35.1304 15.3577 34.4009 15.2679C33.783 15.1919 33.6483 14.7032 33.1651 14.7745C32.7227 14.8398 32.6937 15.2704 32.1059 15.4324C31.7306 15.5358 31.648 15.3863 31.2231 15.4324C30.339 15.5283 29.7455 16.2787 29.6343 16.4192C29.2056 16.9611 29.3721 17.1895 28.9281 17.735C28.5452 18.2054 27.6963 18.006 27.3772 18.241C26.3346 19.0088 25.887 20.4243 25.8786 22.0375C25.8727 23.1658 26.0308 23.7358 26.3837 25.1599C26.6516 26.2412 27.8915 27.6383 28.575 28.2613C28.7585 28.4285 29.2728 28.8973 29.6343 28.7547C29.9768 28.6196 29.9869 28.0125 29.9873 27.9323C29.9888 27.6566 29.9098 27.3155 29.2812 26.4521C28.6208 25.5451 28.3586 25.4416 28.3985 25.1363C28.469 24.5966 29.3953 24.1022 29.8108 24.3139Z"
            fill="#2F2E41" />
        <path
            d="M11.3386 85.0135C11.1111 86.783 11.9066 88.3269 13.1153 88.4617C14.324 88.5966 15.4883 87.2714 15.7158 85.5019C15.8153 84.7273 15.7189 83.9959 15.4776 83.4071L16.3405 75.8977L12.5493 75.5955L12.101 83.0304C11.7173 83.5495 11.4382 84.2389 11.3386 85.0135Z"
            fill="#FFB6B6" />
        <path
            d="M22.2551 35.1438C22.2551 35.1438 20.2909 35.1692 18.9895 37.5351C18.298 38.7923 13.8028 61.3262 13.8028 61.3262L12.5399 68.453L13.189 69.6317C12.1572 71.1018 11.8732 72.9208 12.4126 74.6038L11.1787 81.5669L16.9806 81.596L21.5084 63.3553L25.3155 52.7765L22.2551 35.1438Z"
            fill="#E6E6E6" />
        <path
            d="M51.8969 84.7387C52.1243 86.5083 51.3289 88.0521 50.1202 88.1869C48.9115 88.3218 47.7472 86.9966 47.5197 85.2271C47.4202 84.4525 47.5166 83.7212 47.7579 83.1323L46.895 75.6229L50.6862 75.3207L51.1345 82.7556C51.5182 83.2747 51.7973 83.9641 51.8969 84.7387Z"
            fill="#FFB6B6" />
        <path
            d="M40.9803 34.869C40.9803 34.869 42.9445 34.8944 44.2459 37.2603C44.9374 38.5176 49.4326 61.0514 49.4326 61.0514L50.6955 68.1782L50.0465 69.3569C51.0782 70.8271 51.3622 72.646 50.8228 74.3291L52.0567 81.2921L46.2548 81.3212L41.727 63.0805L37.9199 52.5017L40.9803 34.869Z"
            fill="#E6E6E6" />
        <path
            d="M218.496 25.2425C218.736 25.61 220.015 24.2656 221.978 24.1173C222.478 24.0786 223.604 25.8614 224.897 25.8872C225.753 25.9033 226.281 25.8969 227.335 25.8872C228.582 25.8743 228.923 25.8485 229.164 25.5649C229.631 25.0137 229.247 24.0338 229.469 23.9532C229.655 23.8855 230.137 24.4915 230.384 25.2425C230.902 26.8188 229.042 29.0139 228.859 31.0446C228.664 33.2333 230.585 29.0397 230.384 31.0446C230.158 33.301 229.35 33.1302 229.359 33.9457C229.362 34.0682 229.396 34.1746 229.469 34.268C229.533 34.3519 229.597 34.3841 230.688 34.5904C231.993 34.8386 232.648 34.9611 232.822 34.9127C233.27 34.7902 233.724 34.1101 234.041 33.6234C234.566 32.8272 234.194 33.6298 234.041 32.6564C233.895 31.7151 233.438 31.5926 233.432 30.7223C233.426 29.6263 234.148 29.2943 234.651 28.1436C235.581 26.0161 234.672 23.5535 234.346 22.6638C234.19 22.2372 233.905 21.6972 233.408 20.805C233.008 20.0888 232.477 19.4579 231.83 18.9851C230.86 18.2766 229.734 17.7911 228.516 17.5987C227.849 17.4933 227.169 17.5487 226.513 17.7153L224.814 18.147C224.1 18.3284 223.427 18.6572 222.833 19.1146C222.28 19.1165 221.8 19.4947 221.611 20.0442C221.591 20.1017 221.573 20.1352 221.558 20.1303C218.496 19.1181 218.498 22.1162 218.531 23.9891C218.535 24.1808 218.528 24.3504 218.505 24.4882V24.4979C218.444 24.8686 218.428 25.1394 218.496 25.2425Z"
            fill="#2F2E41" />
        <path d="M178.688 41.8005H146.45V42.35H178.688V41.8005Z" fill="#3F3D56" />
        <path
            d="M185.177 45.6392C182.9 45.6392 181.048 43.9136 181.048 41.7924C181.048 39.6713 182.9 37.9456 185.177 37.9456C187.454 37.9456 189.306 39.6713 189.306 41.7924C189.306 43.9136 187.454 45.6392 185.177 45.6392ZM185.177 38.4952C183.225 38.4952 181.638 39.9743 181.638 41.7924C181.638 43.6105 183.225 45.0897 185.177 45.0897C187.128 45.0897 188.716 43.6105 188.716 41.7924C188.716 39.9743 187.128 38.4952 185.177 38.4952Z"
            fill="#3F3D56" />
        <path
            d="M185.177 43.7158C186.317 43.7158 187.241 42.8547 187.241 41.7924C187.241 40.7302 186.317 39.869 185.177 39.869C184.037 39.869 183.112 40.7302 183.112 41.7924C183.112 42.8547 184.037 43.7158 185.177 43.7158Z"
            fill="#6C63FF" />
        <path d="M105.045 62.1336H72.8066V62.6832H105.045V62.1336Z" fill="#3F3D56" />
        <path
            d="M62.189 62.1256C62.189 60.0044 64.0412 58.2787 66.3181 58.2787C68.5949 58.2787 70.4472 60.0044 70.4472 62.1256C70.4472 64.2467 68.5949 65.9724 66.3181 65.9724C64.0412 65.9724 62.189 64.2467 62.189 62.1256ZM62.7788 62.1256C62.7788 63.9436 64.3666 65.4228 66.3181 65.4228C68.2696 65.4228 69.8573 63.9436 69.8573 62.1256C69.8573 60.3075 68.2696 58.8283 66.3181 58.8283C64.3666 58.8283 62.7788 60.3075 62.7788 62.1256Z"
            fill="#3F3D56" />
        <path
            d="M66.318 64.049C67.4582 64.049 68.3825 63.1878 68.3825 62.1256C68.3825 61.0633 67.4582 60.2021 66.318 60.2021C65.1777 60.2021 64.2534 61.0633 64.2534 62.1256C64.2534 63.1878 65.1777 64.049 66.318 64.049Z"
            fill="#6C63FF" />
    </g>
    <defs>
        <clipPath id="clip0_75_899">
            <rect width="251" height="145" fill="white" />
        </clipPath>
    </defs>
</svg>