<svg viewBox="0 0 871 817" fill="none" xmlns="http://www.w3.org/2000/svg">
    <g clip-path="url(#clip0_75_449)">
        <path d="M722.207 659.286L433.239 512.509L582.033 149.869L871 296.646L722.207 659.286Z"
            fill="#F2F2F2" />
        <path
            d="M766.226 448.611L547.469 337.497C547.057 337.288 546.737 336.905 546.578 336.433C546.42 335.961 546.437 335.438 546.625 334.98C546.813 334.521 547.157 334.165 547.582 333.988C548.006 333.812 548.476 333.831 548.888 334.04L767.644 445.154C768.056 445.364 768.376 445.746 768.535 446.219C768.693 446.691 768.676 447.214 768.488 447.672C768.3 448.13 767.956 448.487 767.532 448.663C767.107 448.839 766.638 448.821 766.226 448.611Z"
            fill="white" />
        <path
            d="M778.39 418.965L559.634 307.85C559.43 307.747 559.246 307.599 559.093 307.417C558.94 307.234 558.821 307.02 558.743 306.786C558.665 306.552 558.628 306.304 558.636 306.054C558.644 305.805 558.696 305.56 558.789 305.333C558.883 305.106 559.015 304.901 559.179 304.731C559.343 304.561 559.536 304.429 559.746 304.341C559.956 304.254 560.18 304.214 560.404 304.223C560.628 304.232 560.848 304.29 561.052 304.393L779.809 415.507C780.013 415.611 780.196 415.758 780.349 415.941C780.502 416.124 780.621 416.338 780.699 416.572C780.778 416.805 780.814 417.054 780.806 417.304C780.798 417.553 780.746 417.798 780.653 418.025C780.56 418.252 780.427 418.456 780.263 418.627C780.099 418.797 779.906 418.929 779.696 419.016C779.486 419.103 779.263 419.144 779.039 419.135C778.814 419.126 778.594 419.068 778.39 418.965Z"
            fill="white" />
        <path
            d="M790.555 389.318L571.798 278.203C571.594 278.1 571.411 277.952 571.258 277.77C571.105 277.587 570.986 277.373 570.908 277.139C570.829 276.905 570.793 276.657 570.801 276.407C570.809 276.158 570.861 275.913 570.954 275.686C571.047 275.459 571.18 275.254 571.344 275.084C571.508 274.914 571.7 274.782 571.911 274.695C572.121 274.607 572.344 274.567 572.568 274.576C572.792 274.585 573.013 274.643 573.217 274.746L791.973 385.861C792.384 386.07 792.704 386.453 792.862 386.925C793.019 387.397 793.002 387.919 792.814 388.377C792.627 388.835 792.283 389.191 791.859 389.367C791.436 389.544 790.967 389.526 790.555 389.318Z"
            fill="white" />
        <path
            d="M802.719 359.671L583.962 248.556C583.758 248.453 583.575 248.306 583.422 248.123C583.269 247.94 583.15 247.726 583.072 247.492C582.993 247.258 582.957 247.01 582.965 246.76C582.973 246.511 583.025 246.266 583.118 246.039C583.211 245.812 583.344 245.607 583.508 245.437C583.672 245.267 583.865 245.135 584.075 245.048C584.285 244.96 584.508 244.92 584.732 244.929C584.957 244.938 585.177 244.996 585.381 245.099L804.137 356.214C804.341 356.317 804.525 356.465 804.678 356.647C804.831 356.83 804.95 357.044 805.028 357.278C805.106 357.512 805.143 357.76 805.135 358.01C805.127 358.259 805.075 358.504 804.982 358.731C804.888 358.958 804.756 359.163 804.592 359.333C804.428 359.503 804.235 359.635 804.025 359.722C803.815 359.81 803.591 359.85 803.367 359.841C803.143 359.832 802.923 359.774 802.719 359.671Z"
            fill="white" />
        <path
            d="M755.232 475.404L536.476 364.29C536.272 364.186 536.088 364.039 535.936 363.856C535.783 363.674 535.664 363.46 535.585 363.226C535.507 362.992 535.471 362.743 535.479 362.494C535.487 362.245 535.539 361.999 535.632 361.772C535.725 361.545 535.857 361.341 536.021 361.171C536.186 361.001 536.378 360.868 536.588 360.781C536.798 360.694 537.022 360.654 537.246 360.662C537.47 360.671 537.691 360.729 537.895 360.833L756.651 471.947C757.063 472.156 757.383 472.539 757.542 473.011C757.7 473.484 757.683 474.006 757.495 474.465C757.307 474.923 756.963 475.28 756.539 475.456C756.114 475.632 755.644 475.614 755.232 475.404Z"
            fill="white" />
        <path
            d="M791.762 316.182L620.886 229.388C619.924 228.927 619.148 228.089 618.706 227.033C618.263 225.978 618.184 224.778 618.485 223.662C618.668 223.055 618.965 222.498 619.354 222.027C619.743 221.556 620.217 221.181 620.745 220.927C621.273 220.673 621.843 220.544 622.418 220.551C622.994 220.557 623.561 220.697 624.085 220.963L794.909 307.731C795.888 308.194 796.679 309.044 797.128 310.117C797.578 311.19 797.654 312.41 797.344 313.542C797.154 314.141 796.855 314.689 796.464 315.152C796.074 315.615 795.601 315.982 795.076 316.23C794.551 316.478 793.985 316.602 793.414 316.594C792.844 316.586 792.281 316.445 791.762 316.182Z"
            fill="white" />
        <path d="M134.273 296.646L423.241 149.869L572.034 512.509L283.067 659.286L134.273 296.646Z"
            fill="#F2F2F2" />
        <path
            d="M239.047 448.611L457.804 337.497C458.008 337.394 458.191 337.246 458.344 337.064C458.497 336.881 458.616 336.667 458.694 336.433C458.773 336.199 458.809 335.95 458.801 335.701C458.793 335.452 458.741 335.207 458.648 334.98C458.555 334.753 458.422 334.548 458.258 334.378C458.094 334.208 457.902 334.076 457.691 333.988C457.481 333.901 457.258 333.861 457.034 333.87C456.81 333.879 456.589 333.936 456.385 334.04L237.629 445.154C237.425 445.258 237.241 445.405 237.088 445.588C236.936 445.77 236.817 445.985 236.738 446.219C236.66 446.452 236.623 446.701 236.631 446.95C236.639 447.2 236.691 447.445 236.785 447.672C236.878 447.899 237.01 448.103 237.174 448.273C237.338 448.444 237.531 448.576 237.741 448.663C237.951 448.75 238.175 448.791 238.399 448.782C238.623 448.773 238.843 448.715 239.047 448.611Z"
            fill="white" />
        <path
            d="M226.883 418.965L445.64 307.85C446.052 307.641 446.372 307.258 446.53 306.786C446.689 306.314 446.672 305.791 446.484 305.333C446.296 304.874 445.952 304.518 445.527 304.341C445.103 304.165 444.633 304.184 444.221 304.393L225.465 415.507C225.261 415.611 225.077 415.758 224.924 415.941C224.771 416.124 224.652 416.338 224.574 416.572C224.496 416.806 224.459 417.054 224.467 417.304C224.475 417.553 224.527 417.798 224.621 418.025C224.714 418.252 224.846 418.456 225.01 418.627C225.174 418.797 225.367 418.929 225.577 419.016C225.787 419.104 226.011 419.144 226.235 419.135C226.459 419.126 226.679 419.068 226.883 418.965Z"
            fill="white" />
        <path
            d="M214.719 389.318L433.475 278.203C433.887 277.994 434.208 277.611 434.366 277.139C434.525 276.667 434.508 276.144 434.32 275.686C434.132 275.227 433.788 274.871 433.363 274.695C432.939 274.518 432.469 274.537 432.057 274.746L213.301 385.861C212.889 386.07 212.569 386.453 212.411 386.925C212.253 387.397 212.27 387.919 212.458 388.377C212.646 388.836 212.99 389.192 213.414 389.368C213.838 389.544 214.307 389.526 214.719 389.318Z"
            fill="white" />
        <path
            d="M202.555 359.671L421.311 248.556C421.515 248.453 421.699 248.306 421.852 248.123C422.004 247.94 422.123 247.726 422.202 247.492C422.28 247.258 422.317 247.01 422.309 246.76C422.301 246.511 422.249 246.266 422.155 246.039C422.062 245.812 421.93 245.607 421.766 245.437C421.602 245.267 421.409 245.135 421.199 245.048C420.989 244.96 420.765 244.92 420.541 244.929C420.317 244.938 420.097 244.996 419.893 245.099L201.136 356.214C200.724 356.423 200.404 356.806 200.245 357.278C200.087 357.75 200.104 358.273 200.292 358.731C200.48 359.19 200.824 359.546 201.248 359.722C201.673 359.899 202.143 359.88 202.555 359.671Z"
            fill="white" />
        <path
            d="M250.041 475.404L468.797 364.29C469.209 364.081 469.53 363.698 469.688 363.226C469.847 362.754 469.83 362.231 469.642 361.772C469.454 361.314 469.11 360.957 468.685 360.781C468.261 360.605 467.791 360.624 467.379 360.833L248.623 471.947C248.419 472.051 248.235 472.198 248.082 472.381C247.929 472.563 247.81 472.778 247.732 473.011C247.653 473.245 247.617 473.494 247.625 473.743C247.633 473.993 247.685 474.238 247.778 474.465C247.871 474.692 248.004 474.896 248.168 475.066C248.332 475.236 248.525 475.369 248.735 475.456C248.945 475.543 249.168 475.584 249.393 475.575C249.617 475.566 249.837 475.508 250.041 475.404Z"
            fill="white" />
        <path
            d="M213.511 316.182L384.387 229.388C385.349 228.927 386.125 228.089 386.568 227.033C387.01 225.978 387.089 224.778 386.789 223.662C386.605 223.055 386.309 222.498 385.919 222.027C385.53 221.556 385.056 221.181 384.528 220.927C384 220.673 383.43 220.544 382.855 220.551C382.28 220.557 381.712 220.697 381.189 220.963L210.364 307.731C209.385 308.194 208.595 309.044 208.145 310.117C207.696 311.19 207.619 312.41 207.93 313.542C208.119 314.141 208.419 314.689 208.809 315.152C209.2 315.615 209.672 315.982 210.198 316.23C210.723 316.478 211.288 316.602 211.859 316.594C212.429 316.586 212.992 316.445 213.511 316.182Z"
            fill="white" />
        <path
            d="M28.8868 724.845C30.7112 693.401 46.4577 661.498 72.6713 649.574C63.8329 682.399 65.7145 717.643 77.9832 749.073C82.7542 761.175 89.1933 774.082 85.9911 786.808C83.9987 794.726 78.4291 801.051 72.0474 805.198C65.6653 809.344 58.4572 811.595 51.3387 813.805L49.9891 815.205C37.0081 787.2 27.0623 756.289 28.8868 724.845Z"
            fill="#F0F0F0" />
        <path
            d="M72.9684 650.147C58.4232 670.6 50.0398 695.632 49.0091 721.688C48.6977 727.292 49.1823 732.917 50.445 738.354C51.8289 743.606 54.4516 748.35 58.0406 752.093C61.324 755.657 65.0535 758.88 67.5009 763.271C68.7237 765.539 69.5017 768.069 69.784 770.695C70.0663 773.322 69.8465 775.985 69.1389 778.51C67.523 784.852 63.9552 790.17 60.3037 795.236C56.2494 800.861 51.9582 806.632 50.4912 813.831C50.3134 814.704 49.1074 814.346 49.2849 813.475C51.8372 800.95 62.2072 793.246 66.7392 781.818C68.8539 776.485 69.537 770.411 67.0045 765.096C64.79 760.448 60.9465 757.121 57.594 753.544C54.0447 749.949 51.3404 745.443 49.7173 740.418C48.2099 735.07 47.5313 729.476 47.7108 723.875C47.934 711.257 49.9389 698.758 53.6519 686.833C57.8217 673.198 64.0571 660.457 72.0885 649.162C72.5858 648.463 73.4625 649.453 72.9684 650.147Z"
            fill="white" />
        <path
            d="M48.8968 713.276C44.9912 712.49 41.4639 710.185 38.9447 706.773C36.4255 703.36 35.0786 699.063 35.1444 694.647C35.1485 694.467 35.2153 694.296 35.3307 694.17C35.4461 694.043 35.6011 693.972 35.763 693.97C35.9248 693.969 36.081 694.037 36.1985 694.161C36.316 694.285 36.3856 694.454 36.3928 694.634C36.3247 698.746 37.5798 702.749 39.9315 705.921C42.2832 709.093 45.5766 711.226 49.2173 711.934C50.0083 712.089 49.6833 713.43 48.8968 713.276Z"
            fill="white" />
        <path
            d="M56.1615 750.529C62.8689 745.45 67.6095 737.745 69.438 728.951C69.6185 728.079 70.8246 728.437 70.6443 729.307C68.7262 738.455 63.7783 746.462 56.7879 751.73C56.1213 752.232 55.4985 751.028 56.1615 750.529Z"
            fill="white" />
        <path
            d="M59.0476 674.435C60.5018 675.09 62.0794 675.332 63.6385 675.141C65.1977 674.949 66.6897 674.33 67.9806 673.338C68.6411 672.827 69.2632 674.032 68.607 674.539C67.1762 675.627 65.5277 676.309 63.8055 676.525C62.0832 676.741 60.3397 676.484 58.7272 675.778C58.5701 675.725 58.437 675.608 58.3547 675.45C58.2724 675.293 58.2472 675.106 58.2842 674.928C58.3275 674.751 58.4319 674.599 58.5748 674.507C58.7178 674.415 58.8877 674.389 59.0476 674.435Z"
            fill="white" />
        <path
            d="M157.198 699.943C156.794 700.275 156.389 700.607 155.985 700.95C150.57 705.445 145.492 710.422 140.802 715.831C140.433 716.243 140.065 716.666 139.708 717.089C128.532 730.256 119.651 745.616 113.515 762.39C111.079 769.067 109.103 775.941 107.604 782.952C105.535 792.634 103.984 803.316 99.2982 811.433C98.8179 812.286 98.2906 813.105 97.7193 813.885L51.6285 816.928C51.5207 816.876 51.4129 816.836 51.3045 816.785L49.4692 817C49.5238 816.632 49.5876 816.252 49.6422 815.885C49.6731 815.672 49.7142 815.457 49.7451 815.244C49.7689 815.102 49.7933 814.959 49.8074 814.829C49.8152 814.782 49.8235 814.734 49.8319 814.698C49.8461 814.568 49.8717 814.449 49.8865 814.331C50.2375 812.206 50.6024 810.08 50.9815 807.953C50.9808 807.942 50.9808 807.942 50.9905 807.929C53.9157 791.733 58.0818 775.665 64.3074 760.813C64.4948 760.366 64.6811 759.907 64.8896 759.459C67.7292 752.782 71.0545 746.373 74.8324 740.298C76.9107 736.979 79.1386 733.78 81.5077 730.711C87.6428 722.796 94.8586 716.004 102.891 710.584C118.904 699.782 137.844 694.798 155.827 699.564C156.287 699.686 156.737 699.809 157.198 699.943Z"
            fill="#F0F0F0" />
        <path
            d="M157.129 700.6C134.448 707.187 114.208 721.558 99.2861 741.672C96.0046 745.938 93.348 750.754 91.4142 755.941C89.6771 761.061 89.2041 766.606 90.0444 771.999C90.7371 777.044 91.9708 782.116 91.549 787.261C91.298 789.891 90.5501 792.433 89.3544 794.719C88.1587 797.005 86.5422 798.983 84.6109 800.526C79.8886 804.507 74.162 806.364 68.5052 807.963C62.2243 809.738 55.6752 811.471 50.6084 816.236C49.9944 816.814 49.2251 815.72 49.8381 815.143C58.6536 806.853 71.102 807.649 80.9047 801.559C85.4789 798.718 89.3112 794.326 90.1651 788.386C90.9118 783.191 89.6437 777.96 88.9026 772.858C88.0136 767.611 88.2929 762.201 89.7162 757.101C91.4064 751.822 93.8918 746.9 97.066 742.548C104.072 732.624 112.436 723.987 121.853 716.953C132.561 708.859 144.434 702.863 156.959 699.224C157.734 698.999 157.899 700.377 157.129 700.6Z"
            fill="white" />
        <path
            d="M103.749 734.881C101.056 731.637 99.4865 727.434 99.3216 723.021C99.1567 718.609 100.407 714.276 102.849 710.794C103.345 710.092 104.349 710.917 103.852 711.62C101.573 714.857 100.409 718.894 100.57 723.003C100.731 727.111 102.207 731.02 104.731 734.024C105.279 734.677 104.293 735.53 103.749 734.881Z"
            fill="white" />
        <path
            d="M89.3904 769.492C97.4942 769.93 105.449 766.953 111.668 761.156C112.283 760.581 113.053 761.675 112.438 762.249C105.956 768.268 97.6726 771.347 89.2405 770.87C88.4369 770.824 88.5911 769.446 89.3904 769.492Z"
            fill="white" />
        <path
            d="M132.871 710.668C133.678 712.165 134.806 713.415 136.155 714.307C137.503 715.198 139.03 715.703 140.597 715.776C141.401 715.811 141.246 717.189 140.447 717.155C138.716 717.065 137.031 716.505 135.539 715.524C134.047 714.543 132.794 713.17 131.889 711.525C131.792 711.378 131.749 711.195 131.768 711.014C131.788 710.833 131.869 710.667 131.995 710.55C132.125 710.438 132.29 710.387 132.455 710.409C132.619 710.431 132.768 710.524 132.871 710.668Z"
            fill="white" />
        <path d="M717.631 662.335H285.539V120.08H717.631V662.335Z" fill="white" />
        <path
            d="M717.631 662.335H285.539V120.08H717.631V662.335ZM287.862 659.75H715.308V122.665H287.862L287.862 659.75Z"
            fill="#CACACA" />
        <path
            d="M665.138 373.976H338.032C337.727 373.976 337.425 373.909 337.143 373.78C336.861 373.65 336.605 373.459 336.389 373.219C336.174 372.979 336.003 372.694 335.886 372.381C335.769 372.067 335.709 371.731 335.709 371.392C335.709 371.052 335.769 370.716 335.886 370.402C336.003 370.089 336.174 369.804 336.389 369.564C336.605 369.324 336.861 369.133 337.143 369.004C337.425 368.874 337.727 368.807 338.032 368.807H665.138C665.754 368.807 666.345 369.079 666.781 369.564C667.216 370.049 667.461 370.706 667.461 371.392C667.461 372.077 667.216 372.735 666.781 373.219C666.345 373.704 665.754 373.976 665.138 373.976Z"
            fill="#E4E4E4" />
        <path
            d="M665.138 329.645H338.032C337.416 329.645 336.825 329.373 336.389 328.888C335.954 328.404 335.709 327.746 335.709 327.061C335.709 326.375 335.954 325.718 336.389 325.233C336.825 324.748 337.416 324.476 338.032 324.476H665.138C665.754 324.476 666.345 324.748 666.781 325.233C667.216 325.718 667.461 326.375 667.461 327.061C667.461 327.746 667.216 328.404 666.781 328.888C666.345 329.373 665.754 329.645 665.138 329.645Z"
            fill="#E4E4E4" />
        <path
            d="M665.138 285.314H338.032C337.727 285.314 337.425 285.248 337.143 285.118C336.861 284.988 336.605 284.797 336.389 284.557C336.174 284.317 336.003 284.032 335.886 283.719C335.769 283.405 335.709 283.069 335.709 282.73C335.709 282.39 335.769 282.054 335.886 281.74C336.003 281.427 336.174 281.142 336.389 280.902C336.605 280.662 336.861 280.472 337.143 280.342C337.425 280.212 337.727 280.145 338.032 280.145H665.138C665.754 280.145 666.345 280.417 666.781 280.902C667.216 281.387 667.461 282.044 667.461 282.73C667.461 283.415 667.216 284.073 666.781 284.557C666.345 285.042 665.754 285.314 665.138 285.314Z"
            fill="#E4E4E4" />
        <path
            d="M665.138 240.983H338.032C337.416 240.983 336.825 240.711 336.389 240.226C335.954 239.742 335.709 239.084 335.709 238.399C335.709 237.713 335.954 237.056 336.389 236.571C336.825 236.086 337.416 235.814 338.032 235.814H665.138C665.754 235.814 666.345 236.086 666.781 236.571C667.216 237.056 667.461 237.713 667.461 238.399C667.461 239.084 667.216 239.742 666.781 240.226C666.345 240.711 665.754 240.983 665.138 240.983Z"
            fill="#E4E4E4" />
        <path
            d="M665.138 414.039H338.032C337.416 414.039 336.825 413.767 336.389 413.282C335.954 412.798 335.709 412.14 335.709 411.455C335.709 410.769 335.954 410.112 336.389 409.627C336.825 409.142 337.416 408.87 338.032 408.87H665.138C665.754 408.87 666.345 409.142 666.781 409.627C667.216 410.112 667.461 410.769 667.461 411.455C667.461 412.14 667.216 412.798 666.781 413.282C666.345 413.767 665.754 414.039 665.138 414.039Z"
            fill="#E4E4E4" />
        <path
            d="M665.138 612.93H338.032C337.416 612.93 336.825 612.657 336.389 612.173C335.954 611.688 335.709 611.031 335.709 610.345C335.709 609.66 335.954 609.002 336.389 608.517C336.825 608.033 337.416 607.76 338.032 607.76H665.138C665.754 607.76 666.345 608.033 666.781 608.517C667.216 609.002 667.461 609.66 667.461 610.345C667.461 611.031 667.216 611.688 666.781 612.173C666.345 612.657 665.754 612.93 665.138 612.93Z"
            fill="#E4E4E4" />
        <path
            d="M586.78 571.439H416.389C415.25 571.437 414.159 570.933 413.353 570.037C412.548 569.141 412.095 567.926 412.094 566.659V455.14C412.095 453.873 412.548 452.659 413.353 451.763C414.159 450.867 415.25 450.363 416.389 450.361H586.78C587.919 450.363 589.011 450.866 589.816 451.763C590.622 452.659 591.075 453.873 591.076 455.14V566.659C591.075 567.926 590.622 569.141 589.816 570.037C589.011 570.933 587.919 571.437 586.78 571.439Z"
            fill="white" />
        <path
            d="M529.879 507.73C529.011 506.697 527.966 505.868 526.805 505.293C525.645 504.719 524.392 504.41 523.121 504.384C521.851 504.359 520.589 504.618 519.411 505.146C518.232 505.675 517.161 506.461 516.261 507.459L468.309 560.813C467.042 562.219 465.326 563.01 463.537 563.013C461.747 563.016 460.029 562.231 458.758 560.829L451.656 552.943C450.778 551.965 449.736 551.19 448.589 550.661C447.441 550.132 446.211 549.86 444.969 549.86C443.727 549.86 442.498 550.132 441.35 550.661C440.203 551.19 439.16 551.965 438.282 552.943L424.537 568.253H578.633V566.07L529.879 507.73Z"
            fill="#6C63FF" />
        <path
            d="M586.78 571.439H416.389C415.25 571.437 414.159 570.933 413.353 570.037C412.548 569.141 412.095 567.926 412.094 566.659V455.14C412.095 453.873 412.548 452.659 413.353 451.763C414.159 450.867 415.25 450.363 416.389 450.361H586.78C587.919 450.363 589.011 450.866 589.816 451.763C590.622 452.659 591.075 453.873 591.076 455.14V566.659C591.075 567.926 590.622 569.141 589.816 570.037C589.011 570.933 587.919 571.437 586.78 571.439ZM416.389 453.547C416.01 453.548 415.646 453.716 415.377 454.015C415.109 454.313 414.958 454.718 414.957 455.141V566.659C414.958 567.082 415.109 567.487 415.377 567.785C415.646 568.084 416.01 568.252 416.389 568.252H586.78C587.16 568.252 587.524 568.084 587.792 567.785C588.061 567.487 588.212 567.082 588.212 566.659V455.14C588.212 454.718 588.061 454.313 587.792 454.015C587.524 453.716 587.16 453.548 586.78 453.547L416.389 453.547Z"
            fill="#3F3D56" />
        <path
            d="M175.998 552.798C176.43 551.104 176.523 549.324 176.27 547.586C176.017 545.847 175.425 544.191 174.534 542.734C173.644 541.278 172.478 540.056 171.117 539.156C169.757 538.255 168.235 537.698 166.66 537.522L157.732 495.875L144.048 512.099L154.624 549.16C154.534 552.124 155.425 555.021 157.127 557.304C158.829 559.586 161.224 561.094 163.859 561.542C166.493 561.991 169.184 561.348 171.422 559.736C173.659 558.125 175.287 555.656 175.998 552.798Z"
            fill="#FFB6B6" />
        <path
            d="M152.133 537.692C151.487 537.453 150.894 537.065 150.392 536.554C149.889 536.043 149.489 535.42 149.217 534.726L130.287 483.209C125.46 470.858 124.83 456.976 128.513 444.147L140.642 401.873C140.827 399.599 141.412 397.389 142.365 395.367C143.318 393.346 144.62 391.553 146.196 390.091C147.772 388.63 149.591 387.529 151.55 386.85C153.509 386.172 155.569 385.93 157.612 386.138C159.655 386.346 161.642 387 163.457 388.063C165.273 389.125 166.883 390.576 168.194 392.331C169.506 394.087 170.493 396.112 171.101 398.293C171.708 400.473 171.923 402.765 171.734 405.038L155.647 473.111L166.421 526.574C166.59 527.666 166.453 528.789 166.03 529.792C165.606 530.795 164.915 531.628 164.052 532.18L156.066 537.257C155.209 537.801 154.224 538.042 153.241 537.947C152.864 537.911 152.492 537.826 152.133 537.692Z"
            fill="#6C63FF" />
        <path d="M219.461 801.65H232.662L238.943 744.993H219.458L219.461 801.65Z" fill="#FFB6B6" />
        <path
            d="M216.093 796.854L242.092 796.853H242.093C246.488 796.853 250.702 798.796 253.809 802.253C256.916 805.71 258.662 810.399 258.662 815.288V815.887L216.094 815.889L216.093 796.854Z"
            fill="#2F2E41" />
        <path d="M145.158 801.65H158.36L164.641 744.993H145.155L145.158 801.65Z" fill="#FFB6B6" />
        <path
            d="M141.79 796.854L167.79 796.853H167.791C172.185 796.853 176.399 798.796 179.506 802.253C182.613 805.71 184.359 810.399 184.36 815.288V815.887L141.791 815.889L141.79 796.854Z"
            fill="#2F2E41" />
        <path
            d="M227.41 515.875L149.988 508.295C149.988 508.295 142.339 562.602 143.416 584.168C144.493 605.735 145.569 639.282 145.569 639.282L136.955 785.455L170.337 780.662L174.644 659.651L188.643 593.753L204.796 677.623L215.565 785.455L244.64 781.86L234.948 651.264C234.948 651.264 243.563 533.847 227.41 515.875Z"
            fill="#2F2E41" />
        <path
            d="M196.182 356.523C208.076 356.523 217.719 345.794 217.719 332.56C217.719 319.326 208.076 308.597 196.182 308.597C184.287 308.597 174.645 319.326 174.645 332.56C174.645 345.794 184.287 356.523 196.182 356.523Z"
            fill="#FFB8B8" />
        <path
            d="M219.766 386.066L204.384 372.442C204.384 372.442 187.726 358.141 177.955 368.714L173.568 375.693C173.568 375.693 148.694 386.066 148.694 399.245L149.877 471.544C149.877 471.544 141.262 508.686 154.184 511.082L229.458 517.86L228.487 448.779L219.766 386.066Z"
            fill="#6C63FF" />
        <path
            d="M179.49 353.527C179.49 353.527 156.876 335.555 168.722 313.989C176.939 299.027 193.967 300.212 203.627 302.34C206.229 302.875 208.675 304.105 210.755 305.926C212.835 307.746 214.485 310.102 215.565 312.791C217.18 316.984 217.18 321.178 210.719 321.178C197.797 321.178 204.258 331.961 204.258 331.961C204.258 331.961 195.643 334.357 197.797 342.744C199.95 351.131 179.49 353.527 179.49 353.527Z"
            fill="#2F2E41" />
        <path
            d="M297.468 512.334C297.067 510.63 296.335 509.045 295.324 507.689C294.312 506.334 293.046 505.243 291.614 504.491C290.183 503.739 288.62 503.346 287.037 503.339C285.454 503.331 283.889 503.71 282.452 504.449L255.755 473.614L251.37 495.322L277.394 521.275C278.67 523.879 280.759 525.872 283.267 526.876C285.774 527.881 288.526 527.827 291.001 526.725C293.475 525.623 295.5 523.549 296.692 520.897C297.884 518.244 298.16 515.197 297.468 512.334Z"
            fill="#FFB6B6" />
        <path
            d="M270.015 512.803C269.349 512.961 268.661 512.963 267.995 512.806C267.329 512.65 266.7 512.339 266.149 511.894L226.331 478.207C216.535 470.293 209.657 458.691 206.975 445.557L198.133 402.286C197.253 400.223 196.747 397.987 196.644 395.706C196.541 393.426 196.844 391.145 197.535 388.994C198.225 386.844 199.29 384.866 200.668 383.174C202.047 381.482 203.711 380.108 205.567 379.133C207.423 378.158 209.433 377.599 211.484 377.489C213.534 377.379 215.583 377.72 217.515 378.492C219.446 379.265 221.222 380.453 222.74 381.99C224.258 383.527 225.489 385.382 226.362 387.448L243.57 455.181L277.25 495.152C277.894 495.998 278.289 497.043 278.381 498.146C278.474 499.249 278.259 500.357 277.767 501.321L273.204 510.206C272.715 511.159 271.975 511.923 271.086 512.396C270.744 512.578 270.385 512.715 270.015 512.803Z"
            fill="#6C63FF" />
        <path
            d="M411.357 816.196H1.07685C0.791251 816.196 0.51735 816.07 0.315401 815.845C0.113453 815.62 0 815.315 0 814.998C0 814.68 0.113453 814.375 0.315401 814.15C0.51735 813.926 0.791251 813.799 1.07685 813.799H411.357C411.642 813.799 411.916 813.926 412.118 814.15C412.32 814.375 412.433 814.68 412.433 814.998C412.433 815.315 412.32 815.62 412.118 815.845C411.916 816.07 411.642 816.196 411.357 816.196Z"
            fill="#CACACA" />
        <path
            d="M629.5 194.056H373.989C372.565 194.09 371.18 193.541 370.096 192.513C369.012 191.485 368.306 190.05 368.111 188.48C368.03 187.614 368.114 186.739 368.357 185.911C368.599 185.084 368.996 184.322 369.52 183.675C370.044 183.029 370.684 182.512 371.399 182.158C372.114 181.804 372.888 181.621 373.67 181.621H629.103C630.55 181.579 631.96 182.134 633.061 183.179C634.162 184.224 634.876 185.685 635.067 187.281C635.136 188.141 635.044 189.008 634.795 189.826C634.547 190.644 634.149 191.396 633.625 192.033C633.101 192.671 632.464 193.18 631.754 193.528C631.044 193.876 630.276 194.056 629.5 194.056Z"
            fill="#6C63FF" />
    </g>
    <defs>
        <clipPath id="clip0_75_449">
            <rect width="871" height="817" fill="white" />
        </clipPath>
    </defs>
</svg>