<svg viewBox="0 0 980 789" fill="none" xmlns="http://www.w3.org/2000/svg">
    <path d="M812.586 610.631L487.456 444.631L654.87 34.4973L980 200.497L812.586 610.631Z"
        fill="#F2F2F2" />
    <path
        d="M862.114 372.365L615.982 246.698C615.518 246.461 615.158 246.029 614.98 245.495C614.801 244.961 614.82 244.369 615.032 243.851C615.244 243.332 615.631 242.929 616.108 242.73C616.586 242.531 617.114 242.552 617.578 242.788L863.71 368.455C864.174 368.692 864.534 369.124 864.712 369.658C864.891 370.192 864.872 370.784 864.66 371.302C864.448 371.821 864.061 372.224 863.584 372.423C863.106 372.622 862.578 372.601 862.114 372.365Z"
        fill="white" />
    <path
        d="M875.801 338.835L629.668 213.169C629.439 213.051 629.232 212.885 629.06 212.678C628.888 212.472 628.754 212.229 628.666 211.965C628.578 211.7 628.537 211.419 628.546 211.137C628.555 210.855 628.614 210.578 628.718 210.321C628.823 210.064 628.972 209.833 629.157 209.641C629.342 209.449 629.558 209.299 629.795 209.2C630.031 209.102 630.283 209.056 630.535 209.066C630.787 209.076 631.035 209.141 631.264 209.259L877.397 334.925C877.626 335.042 877.833 335.209 878.005 335.415C878.177 335.622 878.311 335.864 878.399 336.129C878.487 336.393 878.528 336.674 878.519 336.957C878.51 337.239 878.451 337.516 878.347 337.773C878.242 338.029 878.093 338.26 877.908 338.453C877.724 338.645 877.507 338.795 877.27 338.894C877.034 338.992 876.783 339.038 876.53 339.028C876.278 339.018 876.03 338.952 875.801 338.835Z"
        fill="white" />
    <path
        d="M889.487 305.305L643.355 179.639C643.125 179.522 642.919 179.355 642.747 179.148C642.575 178.942 642.441 178.7 642.353 178.435C642.264 178.171 642.224 177.89 642.233 177.608C642.242 177.325 642.3 177.048 642.405 176.791C642.51 176.535 642.659 176.304 642.843 176.111C643.028 175.919 643.245 175.769 643.481 175.67C643.718 175.572 643.969 175.526 644.221 175.536C644.473 175.546 644.721 175.612 644.951 175.729L891.083 301.396C891.546 301.633 891.905 302.066 892.083 302.599C892.26 303.133 892.241 303.723 892.03 304.241C891.818 304.759 891.432 305.162 890.955 305.361C890.479 305.561 889.951 305.541 889.487 305.305Z"
        fill="white" />
    <path
        d="M903.174 271.776L657.042 146.109C656.812 145.992 656.605 145.825 656.433 145.619C656.261 145.412 656.127 145.17 656.039 144.906C655.951 144.641 655.91 144.36 655.919 144.078C655.928 143.796 655.987 143.519 656.091 143.262C656.196 143.005 656.345 142.774 656.53 142.582C656.715 142.389 656.931 142.24 657.168 142.141C657.404 142.042 657.656 141.997 657.908 142.007C658.16 142.017 658.408 142.082 658.638 142.199L904.77 267.866C904.999 267.983 905.206 268.15 905.378 268.356C905.55 268.563 905.684 268.805 905.772 269.07C905.86 269.334 905.901 269.615 905.892 269.897C905.883 270.179 905.825 270.457 905.72 270.713C905.615 270.97 905.466 271.201 905.281 271.393C905.097 271.586 904.88 271.736 904.643 271.834C904.407 271.933 904.156 271.979 903.903 271.968C903.651 271.958 903.403 271.893 903.174 271.776Z"
        fill="white" />
    <path
        d="M849.745 402.666L603.613 277C603.383 276.883 603.177 276.716 603.005 276.51C602.833 276.303 602.699 276.061 602.61 275.796C602.522 275.532 602.482 275.251 602.49 274.969C602.499 274.687 602.558 274.409 602.663 274.153C602.768 273.896 602.917 273.665 603.101 273.472C603.286 273.28 603.503 273.13 603.739 273.032C603.975 272.933 604.227 272.887 604.479 272.897C604.731 272.907 604.979 272.973 605.209 273.09L851.341 398.757C851.805 398.993 852.165 399.426 852.343 399.96C852.521 400.494 852.503 401.086 852.291 401.604C852.079 402.123 851.692 402.526 851.215 402.725C850.737 402.924 850.209 402.903 849.745 402.666Z"
        fill="white" />
    <path
        d="M890.846 222.591L698.586 124.43C697.504 123.909 696.631 122.961 696.133 121.767C695.635 120.573 695.546 119.216 695.884 117.954C696.091 117.268 696.424 116.638 696.862 116.106C697.3 115.573 697.834 115.149 698.428 114.861C699.022 114.573 699.663 114.428 700.31 114.435C700.957 114.442 701.596 114.601 702.185 114.902L894.387 213.033C895.488 213.557 896.378 214.518 896.884 215.732C897.389 216.945 897.476 218.325 897.126 219.606C896.913 220.283 896.576 220.903 896.136 221.426C895.697 221.95 895.165 222.365 894.574 222.646C893.984 222.927 893.347 223.067 892.705 223.058C892.063 223.048 891.43 222.889 890.846 222.591Z"
        fill="white" />
    <path d="M151.077 200.497L476.207 34.4973L643.621 444.631L318.491 610.631L151.077 200.497Z"
        fill="#F2F2F2" />
    <path
        d="M268.963 372.365L515.095 246.698C515.324 246.581 515.531 246.414 515.703 246.208C515.875 246.001 516.009 245.759 516.097 245.495C516.185 245.23 516.226 244.949 516.217 244.667C516.208 244.385 516.15 244.108 516.045 243.851C515.94 243.594 515.791 243.363 515.606 243.171C515.422 242.978 515.205 242.828 514.969 242.73C514.732 242.631 514.481 242.586 514.229 242.596C513.976 242.606 513.728 242.671 513.499 242.788L267.367 368.455C267.137 368.572 266.93 368.739 266.759 368.945C266.587 369.152 266.453 369.394 266.364 369.658C266.276 369.923 266.235 370.204 266.244 370.486C266.253 370.768 266.312 371.046 266.417 371.302C266.522 371.559 266.67 371.79 266.855 371.982C267.04 372.175 267.257 372.325 267.493 372.423C267.729 372.522 267.981 372.567 268.233 372.557C268.485 372.547 268.733 372.482 268.963 372.365Z"
        fill="white" />
    <path
        d="M255.276 338.835L501.408 213.169C501.872 212.932 502.233 212.499 502.411 211.965C502.589 211.431 502.57 210.84 502.358 210.321C502.147 209.803 501.76 209.399 501.282 209.2C500.805 209.001 500.276 209.022 499.812 209.259L253.68 334.925C253.451 335.042 253.244 335.209 253.072 335.416C252.9 335.622 252.766 335.864 252.678 336.129C252.59 336.393 252.549 336.674 252.558 336.957C252.567 337.239 252.625 337.516 252.73 337.773C252.835 338.029 252.984 338.26 253.169 338.453C253.353 338.645 253.57 338.795 253.806 338.894C254.043 338.992 254.294 339.038 254.547 339.028C254.799 339.018 255.047 338.952 255.276 338.835Z"
        fill="white" />
    <path
        d="M241.59 305.305L487.722 179.639C488.186 179.402 488.546 178.969 488.724 178.435C488.902 177.901 488.884 177.31 488.672 176.791C488.46 176.273 488.073 175.87 487.596 175.67C487.118 175.471 486.589 175.492 486.126 175.729L239.994 301.396C239.531 301.633 239.171 302.066 238.993 302.599C238.815 303.133 238.834 303.724 239.046 304.242C239.257 304.76 239.644 305.163 240.121 305.363C240.598 305.562 241.126 305.541 241.59 305.305Z"
        fill="white" />
    <path
        d="M227.903 271.776L474.035 146.109C474.265 145.992 474.472 145.825 474.644 145.619C474.815 145.412 474.949 145.17 475.038 144.906C475.126 144.641 475.167 144.36 475.158 144.078C475.149 143.796 475.09 143.519 474.985 143.262C474.881 143.005 474.732 142.774 474.547 142.582C474.362 142.389 474.146 142.239 473.909 142.141C473.673 142.042 473.421 141.997 473.169 142.007C472.917 142.017 472.669 142.082 472.439 142.199L226.307 267.866C225.844 268.103 225.483 268.536 225.305 269.07C225.127 269.604 225.145 270.195 225.357 270.713C225.569 271.232 225.956 271.635 226.433 271.834C226.911 272.034 227.44 272.012 227.903 271.776Z"
        fill="white" />
    <path
        d="M281.332 402.667L527.464 277C527.928 276.763 528.288 276.33 528.466 275.796C528.645 275.262 528.626 274.671 528.414 274.153C528.202 273.634 527.815 273.231 527.338 273.032C526.86 272.832 526.332 272.853 525.868 273.09L279.736 398.757C279.506 398.874 279.3 399.04 279.128 399.247C278.956 399.453 278.822 399.696 278.734 399.96C278.645 400.225 278.605 400.506 278.614 400.788C278.622 401.07 278.681 401.347 278.786 401.604C278.891 401.861 279.04 402.092 279.224 402.284C279.409 402.477 279.626 402.626 279.862 402.725C280.099 402.824 280.35 402.869 280.602 402.859C280.854 402.849 281.102 402.784 281.332 402.667Z"
        fill="white" />
    <path
        d="M240.231 222.591L432.491 124.43C433.573 123.909 434.446 122.961 434.944 121.767C435.442 120.573 435.531 119.216 435.193 117.954C434.986 117.268 434.653 116.638 434.215 116.106C433.776 115.573 433.243 115.149 432.649 114.861C432.055 114.573 431.414 114.428 430.767 114.435C430.12 114.442 429.481 114.601 428.892 114.902L236.69 213.033C235.588 213.557 234.699 214.518 234.193 215.732C233.687 216.945 233.601 218.325 233.951 219.606C234.164 220.283 234.501 220.903 234.94 221.426C235.38 221.95 235.912 222.365 236.502 222.646C237.093 222.927 237.73 223.067 238.372 223.058C239.014 223.048 239.647 222.889 240.231 222.591Z"
        fill="white" />
    <path
        d="M32.5017 684.776C34.5545 649.213 52.2716 613.133 81.7656 599.647C71.8212 636.77 73.9383 676.631 87.7423 712.177C93.1104 725.863 100.355 740.461 96.7523 754.854C94.5106 763.809 88.2439 770.962 81.0637 775.652C73.8829 780.341 65.7728 782.887 57.7633 785.387L56.2449 786.97C41.6394 755.297 30.449 720.338 32.5017 684.776Z"
        fill="#F0F0F0" />
    <path
        d="M82.0995 600.295C65.7341 623.426 56.3016 651.736 55.1419 681.205C54.7915 687.544 55.3367 693.905 56.7575 700.054C58.3146 705.993 61.2655 711.359 65.3036 715.592C68.9979 719.623 73.1942 723.269 75.9478 728.234C77.3236 730.799 78.199 733.661 78.5167 736.631C78.8343 739.601 78.5869 742.613 77.7908 745.469C75.9727 752.642 71.9584 758.657 67.8499 764.386C63.2883 770.748 58.4601 777.274 56.8095 785.416C56.6095 786.403 55.2525 785.998 55.4522 785.013C58.3239 770.848 69.9917 762.135 75.0908 749.21C77.4701 743.179 78.2387 736.309 75.3893 730.298C72.8976 725.042 68.5732 721.279 64.8012 717.233C60.8077 713.168 57.765 708.071 55.9388 702.388C54.2427 696.34 53.4792 690.013 53.6811 683.678C53.9323 669.409 56.188 655.272 60.3657 641.786C65.0573 626.365 72.0731 611.955 81.1095 599.18C81.6691 598.39 82.6554 599.509 82.0995 600.295Z"
        fill="white" />
    <path
        d="M55.0161 671.692C50.6218 670.803 46.653 668.196 43.8185 664.337C40.9841 660.477 39.4686 655.617 39.5426 650.623C39.5473 650.42 39.6225 650.226 39.7523 650.083C39.8821 649.94 40.0565 649.859 40.2386 649.857C40.4207 649.855 40.5964 649.933 40.7286 650.073C40.8608 650.213 40.9392 650.405 40.9473 650.609C40.8707 655.258 42.2828 659.786 44.9288 663.373C47.5748 666.961 51.2803 669.373 55.3767 670.173C56.2666 670.349 55.901 671.866 55.0161 671.692Z"
        fill="white" />
    <path
        d="M63.1901 713.824C70.7369 708.08 76.0708 699.366 78.128 689.419C78.3311 688.433 79.6882 688.838 79.4853 689.822C77.3272 700.168 71.7601 709.224 63.8949 715.182C63.1449 715.749 62.4441 714.388 63.1901 713.824Z"
        fill="white" />
    <path
        d="M66.4367 627.764C68.0729 628.504 69.8479 628.778 71.6022 628.562C73.3565 628.345 75.0352 627.644 76.4876 626.523C77.2308 625.945 77.9308 627.308 77.1924 627.881C75.5826 629.112 73.7278 629.883 71.79 630.128C69.8522 630.372 67.8905 630.081 66.0762 629.282C65.8995 629.223 65.7497 629.091 65.6571 628.912C65.5645 628.734 65.5362 628.523 65.5778 628.322C65.6265 628.121 65.744 627.95 65.9048 627.845C66.0656 627.741 66.2568 627.712 66.4367 627.764Z"
        fill="white" />
    <path
        d="M176.87 656.612C176.415 656.988 175.96 657.363 175.505 657.752C169.413 662.835 163.7 668.463 158.422 674.581C158.007 675.047 157.593 675.526 157.191 676.004C144.617 690.895 134.624 708.267 127.72 727.238C124.98 734.79 122.756 742.564 121.07 750.493C118.742 761.443 116.996 773.523 111.724 782.704C111.184 783.669 110.591 784.595 109.948 785.478L58.0892 788.918C57.9678 788.86 57.8466 788.815 57.7246 788.757L55.6597 789C55.7211 788.584 55.7928 788.155 55.8543 787.739C55.889 787.498 55.9353 787.255 55.97 787.014C55.9968 786.853 56.0242 786.692 56.0402 786.545C56.0489 786.491 56.0583 786.437 56.0677 786.397C56.0837 786.25 56.1125 786.115 56.1291 785.981C56.524 783.578 56.9347 781.174 57.3611 778.768C57.3604 778.755 57.3604 778.755 57.3713 778.741C60.6625 760.423 65.3501 742.252 72.3547 725.454C72.5656 724.949 72.7752 724.43 73.0098 723.923C76.2047 716.371 79.9462 709.124 84.1969 702.253C86.5352 698.499 89.042 694.881 91.7075 691.41C98.6104 682.459 106.729 674.777 115.766 668.647C133.784 656.43 155.094 650.793 175.327 656.183C175.845 656.322 176.352 656.461 176.87 656.612Z"
        fill="#F0F0F0" />
    <path
        d="M176.792 657.356C151.273 664.805 128.501 681.058 111.711 703.806C108.019 708.632 105.03 714.078 102.854 719.944C100.9 725.735 100.368 732.006 101.313 738.105C102.092 743.811 103.481 749.547 103.006 755.366C102.724 758.341 101.882 761.215 100.537 763.8C99.1914 766.386 97.3726 768.624 95.1996 770.368C89.8863 774.871 83.4431 776.971 77.0783 778.779C70.0115 780.787 62.6428 782.747 56.9419 788.136C56.2511 788.789 55.3855 787.552 56.0752 786.9C65.994 777.524 80.0001 778.424 91.0297 771.537C96.1762 768.324 100.488 763.356 101.449 756.638C102.289 750.764 100.862 744.847 100.028 739.077C99.0282 733.142 99.3424 727.024 100.944 721.257C102.846 715.285 105.642 709.72 109.213 704.798C117.096 693.573 126.507 683.805 137.103 675.85C149.15 666.696 162.509 659.915 176.602 655.8C177.474 655.545 177.659 657.103 176.792 657.356Z"
        fill="white" />
    <path
        d="M116.732 696.126C113.702 692.457 111.936 687.703 111.751 682.713C111.565 677.723 112.972 672.822 115.719 668.885C116.277 668.09 117.407 669.023 116.848 669.819C114.284 673.48 112.974 678.046 113.156 682.692C113.337 687.338 114.997 691.759 117.837 695.156C118.453 695.896 117.345 696.861 116.732 696.126Z"
        fill="white" />
    <path
        d="M100.577 735.27C109.695 735.765 118.645 732.399 125.642 725.842C126.335 725.192 127.201 726.429 126.509 727.078C119.216 733.886 109.896 737.368 100.409 736.829C99.5044 736.777 99.6779 735.218 100.577 735.27Z"
        fill="white" />
    <path
        d="M149.499 668.742C150.407 670.435 151.676 671.849 153.194 672.857C154.711 673.865 156.428 674.436 158.192 674.519C159.096 674.558 158.922 676.117 158.023 676.078C156.075 675.977 154.179 675.344 152.501 674.234C150.822 673.124 149.412 671.571 148.394 669.711C148.284 669.545 148.236 669.338 148.258 669.134C148.28 668.929 148.371 668.741 148.513 668.609C148.66 668.481 148.846 668.424 149.03 668.449C149.215 668.474 149.383 668.579 149.499 668.742Z"
        fill="white" />
    <path d="M807.438 614.079H321.272V0.806396H807.438V614.079Z" fill="white" />
    <path
        d="M807.438 614.079H321.272V0.806396H807.438V614.079ZM323.886 611.155H804.824V3.72969H323.886L323.886 611.155Z"
        fill="#CACACA" />
    <path
        d="M748.376 287.955H380.334C379.991 287.955 379.651 287.879 379.334 287.732C379.017 287.585 378.729 287.37 378.486 287.099C378.244 286.827 378.051 286.505 377.92 286.15C377.788 285.796 377.721 285.415 377.721 285.032C377.721 284.648 377.788 284.268 377.92 283.913C378.051 283.558 378.244 283.236 378.486 282.965C378.729 282.693 379.017 282.478 379.334 282.331C379.651 282.184 379.991 282.108 380.334 282.108H748.376C749.069 282.108 749.734 282.416 750.224 282.965C750.714 283.513 750.989 284.256 750.989 285.032C750.989 285.807 750.714 286.55 750.224 287.099C749.734 287.647 749.069 287.955 748.376 287.955Z"
        fill="#E4E4E4" />
    <path
        d="M748.376 237.818H380.334C379.641 237.818 378.976 237.51 378.486 236.962C377.996 236.414 377.721 235.67 377.721 234.895C377.721 234.119 377.996 233.376 378.486 232.828C378.976 232.279 379.641 231.971 380.334 231.971H748.376C749.069 231.971 749.734 232.279 750.224 232.828C750.714 233.376 750.989 234.119 750.989 234.895C750.989 235.67 750.714 236.414 750.224 236.962C749.734 237.51 749.069 237.818 748.376 237.818Z"
        fill="#E4E4E4" />
    <path
        d="M748.376 187.681H380.334C379.991 187.681 379.651 187.606 379.334 187.459C379.017 187.312 378.729 187.096 378.486 186.825C378.244 186.553 378.051 186.231 377.92 185.877C377.788 185.522 377.721 185.142 377.721 184.758C377.721 184.374 377.788 183.994 377.92 183.639C378.051 183.285 378.244 182.962 378.486 182.691C378.729 182.419 379.017 182.204 379.334 182.057C379.651 181.91 379.991 181.835 380.334 181.835H748.376C749.069 181.835 749.734 182.143 750.224 182.691C750.714 183.239 750.989 183.983 750.989 184.758C750.989 185.533 750.714 186.277 750.224 186.825C749.734 187.373 749.069 187.681 748.376 187.681Z"
        fill="#E4E4E4" />
    <path
        d="M748.376 137.544H380.334C379.641 137.544 378.976 137.236 378.486 136.688C377.996 136.14 377.721 135.396 377.721 134.621C377.721 133.846 377.996 133.102 378.486 132.554C378.976 132.006 379.641 131.698 380.334 131.698H748.376C749.069 131.698 749.734 132.006 750.224 132.554C750.714 133.102 750.989 133.846 750.989 134.621C750.989 135.396 750.714 136.14 750.224 136.688C749.734 137.236 749.069 137.544 748.376 137.544Z"
        fill="#E4E4E4" />
    <path
        d="M748.376 333.265H380.334C379.641 333.265 378.976 332.957 378.486 332.409C377.996 331.861 377.721 331.117 377.721 330.342C377.721 329.566 377.996 328.823 378.486 328.275C378.976 327.727 379.641 327.419 380.334 327.419H748.376C749.069 327.419 749.734 327.727 750.224 328.275C750.714 328.823 750.989 329.566 750.989 330.342C750.989 331.117 750.714 331.861 750.224 332.409C749.734 332.957 749.069 333.265 748.376 333.265Z"
        fill="#E4E4E4" />
    <path
        d="M748.376 558.203H380.334C379.641 558.203 378.976 557.895 378.486 557.347C377.996 556.799 377.721 556.055 377.721 555.28C377.721 554.505 377.996 553.761 378.486 553.213C378.976 552.665 379.641 552.357 380.334 552.357H748.376C749.069 552.357 749.734 552.665 750.224 553.213C750.714 553.761 750.989 554.505 750.989 555.28C750.989 556.055 750.714 556.799 750.224 557.347C749.734 557.895 749.069 558.203 748.376 558.203Z"
        fill="#E4E4E4" />
    <path
        d="M660.213 511.278H468.498C467.217 511.277 465.988 510.707 465.082 509.693C464.176 508.68 463.666 507.306 463.665 505.873V379.749C463.666 378.316 464.176 376.942 465.082 375.928C465.988 374.915 467.217 374.345 468.498 374.344H660.213C661.494 374.345 662.722 374.915 663.628 375.928C664.535 376.942 665.044 378.316 665.046 379.749V505.873C665.044 507.306 664.535 508.68 663.628 509.693C662.722 510.707 661.494 511.277 660.213 511.278Z"
        fill="white" />
    <path
        d="M596.189 439.226C595.214 438.057 594.038 437.12 592.732 436.47C591.426 435.82 590.016 435.471 588.587 435.442C587.157 435.413 585.737 435.707 584.411 436.304C583.085 436.901 581.88 437.791 580.868 438.919L526.914 499.261C525.489 500.851 523.559 501.746 521.545 501.749C519.531 501.753 517.598 500.864 516.169 499.279L508.178 490.36C507.19 489.255 506.017 488.378 504.726 487.78C503.435 487.181 502.052 486.873 500.654 486.873C499.257 486.873 497.873 487.181 496.582 487.78C495.291 488.378 494.118 489.255 493.13 490.36L477.665 507.675H651.045V505.207L596.189 439.226Z"
        fill="#6C63FF" />
    <path
        d="M660.213 511.278H468.498C467.217 511.277 465.988 510.707 465.082 509.693C464.176 508.68 463.666 507.306 463.665 505.873V379.749C463.666 378.316 464.176 376.942 465.082 375.928C465.988 374.915 467.217 374.345 468.498 374.344H660.213C661.494 374.345 662.722 374.915 663.628 375.928C664.535 376.942 665.044 378.316 665.046 379.749V505.873C665.044 507.306 664.535 508.68 663.628 509.693C662.722 510.707 661.494 511.277 660.213 511.278ZM468.498 377.947C468.071 377.948 467.662 378.138 467.36 378.475C467.058 378.813 466.888 379.271 466.887 379.749V505.873C466.888 506.351 467.058 506.809 467.36 507.146C467.662 507.484 468.071 507.674 468.498 507.675H660.213C660.64 507.674 661.049 507.484 661.351 507.146C661.653 506.809 661.823 506.351 661.824 505.873V379.749C661.823 379.271 661.653 378.813 661.351 378.475C661.049 378.138 660.64 377.948 660.213 377.947L468.498 377.947Z"
        fill="#3F3D56" />
    <path
        d="M198.023 490.196C198.509 488.28 198.613 486.268 198.329 484.301C198.044 482.335 197.378 480.462 196.376 478.815C195.374 477.167 194.062 475.786 192.531 474.768C191 473.749 189.288 473.118 187.516 472.92L177.471 425.818L162.074 444.167L173.974 486.082C173.873 489.434 174.875 492.711 176.79 495.292C178.705 497.873 181.4 499.578 184.364 500.086C187.329 500.593 190.356 499.866 192.874 498.043C195.391 496.221 197.223 493.429 198.023 490.196Z"
        fill="#FFB6B6" />
    <path
        d="M171.172 473.112C170.445 472.842 169.777 472.403 169.212 471.825C168.647 471.247 168.197 470.542 167.891 469.757L146.592 411.493C141.161 397.525 140.451 381.825 144.595 367.315L158.243 319.505C158.45 316.934 159.109 314.434 160.181 312.147C161.253 309.861 162.718 307.833 164.491 306.181C166.264 304.528 168.312 303.282 170.516 302.515C172.72 301.748 175.037 301.474 177.336 301.709C179.635 301.944 181.87 302.684 183.913 303.886C185.956 305.088 187.767 306.728 189.242 308.714C190.718 310.699 191.829 312.99 192.513 315.456C193.196 317.922 193.438 320.514 193.225 323.085L175.126 400.073L187.248 460.538C187.438 461.773 187.284 463.043 186.807 464.177C186.33 465.311 185.553 466.254 184.582 466.878L175.596 472.62C174.633 473.236 173.524 473.508 172.418 473.4C171.994 473.36 171.575 473.263 171.172 473.112Z"
        fill="#6C63FF" />
    <path d="M246.925 771.64H261.778L268.845 707.562H246.921L246.925 771.64Z" fill="#FFB6B6" />
    <path
        d="M243.135 766.216L272.388 766.215H272.39C277.334 766.215 282.075 768.412 285.571 772.321C289.067 776.231 291.032 781.534 291.032 787.064V787.741L243.136 787.743L243.135 766.216Z"
        fill="#2F2E41" />
    <path d="M163.324 771.64H178.177L185.244 707.562H163.32L163.324 771.64Z" fill="#FFB6B6" />
    <path
        d="M159.534 766.216L188.787 766.215H188.789C193.733 766.215 198.474 768.412 201.97 772.321C205.466 776.231 207.431 781.534 207.431 787.064V787.741L159.535 787.743L159.534 766.216Z"
        fill="#2F2E41" />
    <path
        d="M255.869 448.437L168.758 439.865C168.758 439.865 160.152 501.284 161.363 525.675C162.575 550.066 163.787 588.007 163.787 588.007L154.094 753.323L191.654 747.903L196.5 611.043L212.251 536.515L230.425 631.369L242.541 753.323L275.255 749.258L264.35 601.558C264.35 601.558 274.043 468.763 255.869 448.437Z"
        fill="#2F2E41" />
    <path
        d="M220.732 268.215C234.115 268.215 244.964 256.082 244.964 241.114C244.964 226.147 234.115 214.013 220.732 214.013C207.349 214.013 196.5 226.147 196.5 241.114C196.5 256.082 207.349 268.215 220.732 268.215Z"
        fill="#FFB8B8" />
    <path
        d="M247.269 301.628L229.962 286.219C229.962 286.219 211.219 270.045 200.225 282.003L195.289 289.896C195.289 289.896 167.303 301.628 167.303 316.533L168.633 398.3C168.633 398.3 158.94 440.307 173.48 443.017L258.173 450.683L257.081 372.554L247.269 301.628Z"
        fill="#6C63FF" />
    <path
        d="M201.952 264.828C201.952 264.828 176.509 244.502 189.836 220.111C199.082 203.19 218.241 204.529 229.109 206.937C232.037 207.541 234.79 208.933 237.13 210.992C239.47 213.051 241.327 215.716 242.541 218.756C244.359 223.499 244.359 228.241 237.089 228.241C222.55 228.241 229.819 240.437 229.819 240.437C229.819 240.437 220.127 243.147 222.55 252.632C224.973 262.118 201.952 264.828 201.952 264.828Z"
        fill="#2F2E41" />
    <path
        d="M334.694 444.433C334.243 442.505 333.419 440.713 332.281 439.18C331.143 437.648 329.719 436.413 328.108 435.562C326.497 434.712 324.739 434.267 322.958 434.259C321.177 434.251 319.416 434.68 317.799 435.515L287.76 400.642L282.827 425.193L312.108 454.545C313.543 457.49 315.894 459.744 318.715 460.88C321.537 462.016 324.633 461.955 327.417 460.708C330.201 459.462 332.48 457.117 333.821 454.117C335.162 451.117 335.473 447.671 334.694 444.433Z"
        fill="#FFB6B6" />
    <path
        d="M303.806 444.963C303.057 445.142 302.282 445.144 301.533 444.967C300.784 444.79 300.076 444.438 299.456 443.935L254.655 405.836C243.634 396.886 235.895 383.764 232.877 368.911L222.928 319.972C221.938 317.639 221.368 315.11 221.253 312.531C221.137 309.951 221.478 307.372 222.255 304.94C223.032 302.507 224.23 300.27 225.781 298.357C227.332 296.443 229.205 294.89 231.293 293.787C233.381 292.684 235.643 292.052 237.95 291.928C240.256 291.803 242.562 292.189 244.735 293.062C246.909 293.936 248.907 295.28 250.615 297.018C252.323 298.756 253.708 300.854 254.69 303.191L274.051 379.794L311.946 425.001C312.671 425.957 313.115 427.139 313.219 428.387C313.323 429.634 313.082 430.887 312.528 431.977L307.394 442.026C306.843 443.104 306.012 443.968 305.01 444.503C304.626 444.709 304.222 444.863 303.806 444.963Z"
        fill="#6C63FF" />
    <path
        d="M462.835 788.09H1.21161C0.890272 788.09 0.582093 787.948 0.354872 787.694C0.127651 787.439 0 787.095 0 786.735C0 786.376 0.127651 786.031 0.354872 785.777C0.582093 785.523 0.890272 785.38 1.21161 785.38H462.835C463.157 785.38 463.465 785.523 463.692 785.777C463.919 786.031 464.047 786.376 464.047 786.735C464.047 787.095 463.919 787.439 463.692 787.694C463.465 787.948 463.157 788.09 462.835 788.09Z"
        fill="#CACACA" />
    <path
        d="M708.278 84.4711H420.791C419.189 84.5097 417.63 83.8887 416.411 82.726C415.192 81.5633 414.397 79.9401 414.177 78.1649C414.087 77.1854 414.181 76.1957 414.454 75.2595C414.727 74.3234 415.173 73.4619 415.763 72.7307C416.352 71.9994 417.073 71.4148 417.877 71.0146C418.681 70.6143 419.552 70.4075 420.432 70.4073H707.832C709.46 70.3595 711.046 70.987 712.284 72.169C713.523 73.3509 714.327 75.0038 714.541 76.8091C714.619 77.7817 714.515 78.7619 714.236 79.6872C713.957 80.6124 713.508 81.4625 712.919 82.1833C712.33 82.9041 711.613 83.4798 710.814 83.8736C710.015 84.2675 709.151 84.471 708.278 84.4711Z"
        fill="#6C63FF" />
</svg>