<svg viewBox="0 0 24 24" fill="currentssColor" xmlns="http://www.w3.org/2000/svg">
    <path
        d="M12.025 16C11.625 16 11.2876 15.8583 11.013 15.575C10.7383 15.2917 10.6173 14.9583 10.65 14.575C10.7 13.875 10.8666 13.2667 11.15 12.75C11.4333 12.2333 11.8833 11.7 12.5 11.15C13.1833 10.55 13.7043 10.029 14.063 9.587C14.4216 9.145 14.6006 8.641 14.6 8.075C14.6 7.39167 14.371 6.825 13.913 6.375C13.455 5.925 12.8173 5.7 12 5.7C11.4666 5.7 11.0123 5.81267 10.637 6.038C10.2616 6.26333 9.95762 6.54233 9.72495 6.875C9.49162 7.20833 9.20429 7.43333 8.86295 7.55C8.52162 7.66667 8.19229 7.65833 7.87495 7.525C7.49162 7.35833 7.22929 7.08333 7.08795 6.7C6.94662 6.31667 6.97562 5.95833 7.17495 5.625C7.65829 4.875 8.30829 4.25 9.12495 3.75C9.94162 3.25 10.9 3 12 3C13.75 3 15.096 3.48733 16.038 4.462C16.98 5.43667 17.4506 6.60767 17.45 7.975C17.45 8.80833 17.271 9.521 16.913 10.113C16.555 10.705 15.9923 11.3757 15.225 12.125C14.6583 12.6583 14.2583 13.0917 14.025 13.425C13.7916 13.7583 13.6333 14.1417 13.55 14.575C13.4833 14.9917 13.3083 15.3333 13.025 15.6C12.7416 15.8667 12.4083 16 12.025 16ZM12 22C11.45 22 10.979 21.804 10.587 21.412C10.195 21.02 9.99929 20.5493 9.99995 20C9.99995 19.45 10.196 18.979 10.588 18.587C10.98 18.195 11.4506 17.9993 12 18C12.55 18 13.021 18.196 13.413 18.588C13.805 18.98 14.0006 19.4507 14 20C14 20.55 13.804 21.021 13.412 21.413C13.02 21.805 12.5493 22.0007 12 22Z"
    />
</svg>