<svg viewBox="0 0 788 696" fill="none" xmlns="http://www.w3.org/2000/svg">
    <g clip-path="url(#clip0_77_1006)">
        <path
            d="M601.83 521.967L546.442 493.136V468.349L566.182 468.218C569.245 468.198 572.225 467.046 574.705 464.925C577.185 462.803 579.04 459.819 580.008 456.39L593.875 407.307C594.61 404.706 594.81 401.937 594.46 399.227C594.11 396.518 593.218 393.945 591.86 391.721C590.502 389.498 588.715 387.687 586.647 386.438C584.579 385.189 582.289 384.537 579.966 384.537H546.442V361.472H588.528C591.845 361.472 595.065 360.145 597.66 357.707C600.256 355.268 602.073 351.864 602.817 348.049L612.366 299.036C612.86 296.501 612.863 293.867 612.375 291.33C611.887 288.794 610.921 286.42 609.548 284.385C608.174 282.35 606.43 280.707 604.444 279.577C602.458 278.448 600.282 277.861 598.078 277.861H546.442V272.095C546.442 270.58 546.189 269.081 545.698 267.682C545.207 266.282 544.487 265.011 543.579 263.94C542.672 262.869 541.594 262.02 540.408 261.44C539.222 260.861 537.951 260.562 536.668 260.562C535.384 260.562 534.113 260.861 532.927 261.44C531.741 262.02 530.664 262.869 529.756 263.94C528.849 265.011 528.129 266.282 527.637 267.682C527.146 269.081 526.893 270.58 526.893 272.095V277.861H180.717V272.095C180.717 269.036 179.687 266.103 177.854 263.94C176.021 261.777 173.535 260.562 170.942 260.562C168.35 260.562 165.864 261.777 164.031 263.94C162.198 266.103 161.168 269.036 161.168 272.095V277.861H120.122C117.917 277.861 115.741 278.448 113.755 279.577C111.769 280.707 110.025 282.35 108.652 284.385C107.278 286.42 106.312 288.794 105.824 291.33C105.336 293.867 105.339 296.501 105.833 299.036L115.382 348.049C116.126 351.864 117.943 355.268 120.539 357.707C123.134 360.145 126.354 361.472 129.671 361.472H161.168V384.537H138.232C135.922 384.537 133.644 385.182 131.584 386.418C129.525 387.654 127.742 389.447 126.382 391.651C125.021 393.855 124.121 396.407 123.756 399.099C123.39 401.791 123.569 404.547 124.277 407.142L138.431 458.967C139.387 462.467 141.263 465.516 143.787 467.673C146.311 469.83 149.352 470.981 152.468 470.96L161.168 470.903V493.136L116.369 521.967C114.443 521.967 112.537 522.415 110.758 523.284C108.979 524.153 107.363 525.428 106.001 527.034C104.64 528.64 103.56 530.547 102.823 532.646C102.086 534.745 101.707 536.994 101.707 539.266C101.707 543.854 103.252 548.254 106.001 551.498C108.751 554.742 112.48 556.565 116.369 556.565H161.168V683.423C161.168 686.482 162.198 689.415 164.031 691.578C165.864 693.741 168.35 694.956 170.942 694.956C173.535 694.956 176.021 693.741 177.854 691.578C179.687 689.415 180.717 686.482 180.717 683.423V556.565H526.893V683.423C526.893 686.482 527.923 689.415 529.756 691.578C531.589 693.741 534.075 694.956 536.668 694.956C539.26 694.956 541.746 693.741 543.579 691.578C545.412 689.415 546.442 686.482 546.442 683.423V556.565H601.83C605.719 556.565 609.448 554.742 612.198 551.498C614.947 548.254 616.492 543.854 616.492 539.266C616.492 536.994 616.113 534.745 615.376 532.646C614.639 530.547 613.559 528.64 612.198 527.034C610.836 525.427 609.22 524.153 607.441 523.284C605.662 522.415 603.756 521.967 601.83 521.967ZM180.717 361.472H526.893V384.537H180.717V361.472ZM180.717 493.136V470.773L526.893 468.479V493.136H180.717Z"
            fill="#E6E6E6" />
        <path
            d="M561.78 521.885C567.869 464.117 598.212 407.198 644.907 388.399C626.492 447.858 626.496 513.087 644.918 572.543C652.093 595.443 662.094 620.031 655.345 643.11C651.146 657.471 640.873 668.458 629.39 675.328C617.906 682.198 605.162 685.472 592.577 688.681L590.1 691.098C570.122 637.871 555.691 579.653 561.78 521.885Z"
            fill="#E6E6E6" />
        <path
            d="M645.37 389.491C618.455 425.052 600.994 470.989 597.068 518.512C596.219 528.786 596.116 539.295 598.02 549.423C599.924 559.554 604.071 568.056 609.955 575.685C615.335 582.658 621.522 589.057 625.371 597.452C629.429 606.301 629.584 616.355 626.807 625.755C623.408 637.255 616.71 646.629 609.89 655.528C602.318 665.407 594.32 675.528 591.101 688.626C590.711 690.213 588.647 689.406 589.036 687.822C594.636 665.033 613.385 652.089 622.327 631.564C626.499 621.986 628.25 610.867 624.339 600.757C620.918 591.916 614.543 585.312 609.044 578.306C603.27 570.951 598.843 562.88 596.563 553.141C594.23 543.178 593.985 532.642 594.607 522.387C596.166 499.145 600.811 476.337 608.375 454.798C616.891 430.159 628.917 407.421 643.931 387.567C644.861 386.338 646.294 388.271 645.37 389.491Z"
            fill="white" />
        <path
            d="M597.653 502.985C590.934 501.06 585.013 496.38 580.948 489.78C576.884 483.18 574.94 475.09 575.464 466.956C575.574 465.31 577.747 465.436 577.636 467.084C577.136 474.658 578.948 482.193 582.744 488.33C586.539 494.467 592.069 498.8 598.335 500.549C599.696 500.931 599.007 503.365 597.653 502.985Z"
            fill="white" />
        <path
            d="M606.833 572.573C618.969 564.023 627.928 550.39 631.923 534.393C632.318 532.808 634.382 533.614 633.988 535.197C629.804 551.835 620.456 566 607.811 574.864C606.605 575.708 605.633 573.412 606.833 572.573Z"
            fill="white" />
        <path
            d="M618.908 432.59C621.376 433.974 624.097 434.613 626.827 434.449C629.556 434.286 632.208 433.325 634.545 431.653C635.741 430.792 636.712 433.089 635.523 433.945C632.934 435.778 630.004 436.834 626.989 437.023C623.974 437.211 620.965 436.526 618.226 435.026C617.958 434.91 617.737 434.678 617.609 434.377C617.48 434.076 617.454 433.729 617.535 433.406C617.626 433.084 617.822 432.817 618.079 432.665C618.336 432.512 618.634 432.485 618.908 432.59Z"
            fill="white" />
        <path
            d="M787.237 491.58C786.503 492.143 785.769 492.706 785.034 493.29C775.2 500.92 765.908 509.48 757.249 518.885C756.57 519.6 755.891 520.336 755.23 521.072C734.574 543.994 717.703 571.241 705.477 601.429C700.621 613.447 696.547 625.883 693.29 638.63C688.794 656.235 685.105 675.745 676.204 690.145C675.29 691.659 674.297 693.106 673.231 694.475H592.791C592.608 694.367 592.425 694.28 592.241 694.172L589.029 694.345C589.158 693.674 589.304 692.981 589.433 692.31C589.507 691.92 589.598 691.53 589.672 691.141C589.726 690.881 589.782 690.621 589.819 690.383C589.837 690.296 589.856 690.21 589.873 690.145C589.91 689.906 589.966 689.69 590.002 689.473C590.81 685.597 591.642 681.721 592.498 677.845C592.498 677.824 592.498 677.824 592.516 677.802C599.105 648.288 607.841 619.164 620.045 592.529C620.412 591.728 620.779 590.905 621.183 590.104C626.741 578.135 633.118 566.721 640.252 555.978C644.174 550.11 648.345 544.48 652.75 539.11C664.153 525.26 677.332 513.612 691.804 504.594C720.654 486.621 754.055 479.735 784.888 490.714C785.677 490.995 786.448 491.277 787.237 491.58Z"
            fill="#E6E6E6" />
        <path
            d="M787.056 492.784C747.42 502.058 710.037 526.332 682.653 561.488C676.733 569.088 671.287 577.406 667.64 586.844C663.99 596.287 662.962 606.021 663.768 616.292C664.505 625.681 666.18 635.185 664.97 644.623C663.694 654.57 658.687 662.709 651.673 668.241C643.091 675.009 632.96 677.736 622.974 679.996C611.886 682.505 600.336 684.904 591.082 693.075C589.961 694.066 588.724 691.955 589.844 690.966C605.944 676.749 627.519 679.733 645.132 669.696C653.351 665.013 660.423 657.379 662.459 646.528C664.239 637.04 662.519 627.237 661.703 617.738C660.847 607.763 661.43 598.174 664.579 588.778C667.8 579.166 672.981 570.58 678.711 562.834C691.815 545.384 707.163 530.473 724.192 518.648C743.565 505.025 764.77 495.412 786.889 490.226C788.259 489.905 788.417 492.466 787.056 492.784Z"
            fill="white" />
        <path
            d="M691.043 549.506C686.66 543.196 684.321 535.253 684.444 527.096C684.566 518.939 687.142 511.099 691.711 504.976C692.639 503.741 694.31 505.385 693.38 506.621C689.116 512.314 686.718 519.617 686.617 527.214C686.516 534.81 688.72 542.198 692.831 548.045C693.723 549.317 691.93 550.771 691.043 549.506Z"
            fill="white" />
        <path
            d="M662.863 611.589C676.916 613.383 691.026 608.863 702.379 598.928C703.503 597.943 704.74 600.053 703.617 601.037C691.786 611.349 677.095 616.019 662.475 614.113C661.082 613.931 661.478 611.407 662.863 611.589Z"
            fill="white" />
        <path
            d="M743.935 508.398C745.2 511.257 747.047 513.7 749.309 515.508C751.572 517.317 754.18 518.433 756.899 518.759C758.293 518.921 757.896 521.444 756.51 521.283C753.508 520.907 750.629 519.67 748.125 517.678C745.621 515.687 743.569 513.002 742.148 509.859C741.993 509.576 741.935 509.234 741.986 508.903C742.037 508.571 742.193 508.275 742.422 508.074C742.66 507.882 742.952 507.809 743.235 507.869C743.519 507.93 743.77 508.12 743.935 508.398Z"
            fill="white" />
        <path
            d="M18.8824 573.182C23.1615 532.583 44.4864 492.582 77.3022 479.37C64.3606 521.157 64.3634 566.999 77.3102 608.783C82.3527 624.877 89.3814 642.157 84.6383 658.377C81.6871 668.469 74.4675 676.19 66.3975 681.019C58.327 685.847 49.3704 688.148 40.5259 690.403L38.7852 692.101C24.7447 654.694 14.6033 613.78 18.8824 573.182Z"
            fill="#E6E6E6" />
        <path
            d="M77.6279 480.138C58.5175 505.402 46.6398 537.129 43.682 570.811C43.0855 578.032 43.0131 585.418 44.3508 592.535C45.7 599.46 48.5963 605.833 52.7389 610.991C56.5196 615.892 60.8679 620.389 63.573 626.289C66.4243 632.508 66.5339 639.574 64.5819 646.18C62.1935 654.262 57.4863 660.85 52.6932 667.103C47.3714 674.047 41.7505 681.159 39.4883 690.364C39.2142 691.48 37.7634 690.913 38.0371 689.799C41.9729 673.784 55.1494 664.687 61.4333 650.262C64.3654 643.531 65.5962 635.717 62.8473 628.612C60.4435 622.399 55.9629 617.757 52.0985 612.834C48.0409 607.664 44.9297 601.992 43.3269 595.148C41.6874 588.146 41.5153 580.741 41.9526 573.535C43.0478 557.201 46.3127 541.172 51.628 526.034C57.613 508.719 66.0645 492.739 76.6167 478.785C77.2701 477.922 78.277 479.28 77.6279 480.138Z"
            fill="white" />
        <path
            d="M44.0933 559.899C39.371 558.547 35.2101 555.257 32.3535 550.619C29.4969 545.981 28.1307 540.295 28.4989 534.578C28.5767 533.422 30.1035 533.51 30.0256 534.668C29.6744 539.991 30.9474 545.287 33.615 549.6C36.2825 553.913 40.1688 556.958 44.5725 558.187C45.5292 558.455 45.0445 560.166 44.0933 559.899Z"
            fill="white" />
        <path
            d="M50.5447 608.804C59.0737 602.796 65.3699 593.215 68.1778 581.972C68.4553 580.858 69.9061 581.425 69.629 582.538C66.6885 594.23 60.1192 604.185 51.2321 610.415C50.3846 611.008 49.7019 609.394 50.5447 608.804Z"
            fill="white" />
        <path
            d="M59.0311 510.427C60.7658 511.399 62.6781 511.848 64.5963 511.734C66.5144 511.619 68.3784 510.943 70.0207 509.769C70.8613 509.163 71.5431 510.778 70.708 511.379C68.8884 512.667 66.8291 513.41 64.7101 513.542C62.5911 513.675 60.4768 513.193 58.552 512.139C58.3635 512.058 58.2084 511.895 58.1181 511.683C58.0278 511.471 58.0092 511.227 58.066 511C58.1304 510.774 58.2679 510.587 58.4486 510.479C58.6293 510.372 58.8387 510.353 59.0311 510.427Z"
            fill="white" />
        <path
            d="M177.33 551.884C176.814 552.279 176.298 552.675 175.782 553.086C168.87 558.448 162.34 564.464 156.255 571.073C155.777 571.576 155.3 572.093 154.836 572.61C140.319 588.719 128.462 607.868 119.87 629.084C116.457 637.53 113.594 646.27 111.305 655.228C108.145 667.6 105.553 681.312 99.2975 691.432C98.6549 692.496 97.957 693.512 97.2079 694.475H40.6765C40.548 694.399 40.4189 694.338 40.2898 694.262L38.0327 694.384C38.1234 693.912 38.226 693.425 38.3167 692.953C38.3684 692.679 38.4326 692.406 38.4843 692.132C38.5227 691.949 38.5617 691.766 38.5875 691.599C38.6001 691.538 38.6134 691.477 38.626 691.432C38.6518 691.264 38.6908 691.112 38.7166 690.96C39.2841 688.236 39.8687 685.512 40.4706 682.788C40.4706 682.773 40.4706 682.773 40.4832 682.757C45.1139 662.015 51.253 641.547 59.83 622.829C60.0882 622.266 60.3458 621.688 60.6298 621.125C64.5356 612.713 69.0175 604.692 74.0308 597.142C76.7873 593.018 79.7188 589.061 82.8143 585.287C90.8286 575.553 100.091 567.368 110.261 561.03C130.536 548.399 154.01 543.56 175.679 551.275C176.233 551.473 176.775 551.671 177.33 551.884Z"
            fill="#E6E6E6" />
        <path
            d="M177.202 552.73C149.052 559.327 123.379 576.221 103.83 601.014C99.6688 606.355 95.842 612.201 93.2784 618.834C90.8217 625.322 89.8822 632.468 90.5578 639.529C91.0755 646.128 92.2528 652.807 91.4021 659.44C90.5052 666.431 86.9871 672.15 82.0577 676.038C76.0265 680.795 68.9064 682.711 61.8883 684.299C54.096 686.063 45.9786 687.749 39.4752 693.492C38.6872 694.187 37.8182 692.704 38.605 692.009C49.9198 682.018 65.0826 684.114 77.4606 677.061C83.2364 673.77 88.2065 668.405 89.6373 660.779C90.8885 654.111 89.6795 647.222 89.1062 640.545C88.5044 633.535 88.9146 626.797 91.1274 620.193C93.3911 613.438 97.0322 607.404 101.059 601.96C110.268 589.696 121.055 579.217 133.023 570.907C146.637 561.333 161.54 554.577 177.085 550.932C178.047 550.707 178.158 552.507 177.202 552.73Z"
            fill="white" />
        <path
            d="M109.726 592.594C106.646 588.159 105.002 582.577 105.088 576.844C105.174 571.112 106.984 565.602 110.196 561.298C110.848 560.43 112.022 561.586 111.369 562.455C108.372 566.455 106.686 571.588 106.616 576.927C106.545 582.265 108.094 587.458 110.983 591.567C111.609 592.461 110.35 593.482 109.726 592.594Z"
            fill="white" />
        <path
            d="M89.9219 636.224C99.7979 637.485 109.714 634.308 117.693 627.326C118.483 626.634 119.352 628.117 118.563 628.809C110.249 636.056 99.9237 639.337 89.6489 637.998C88.6697 637.87 88.948 636.097 89.9219 636.224Z"
            fill="white" />
        <path
            d="M146.898 563.704C147.787 565.713 149.084 567.43 150.675 568.7C152.265 569.971 154.098 570.756 156.008 570.985C156.988 571.099 156.709 572.872 155.735 572.759C153.625 572.495 151.602 571.625 149.842 570.226C148.083 568.826 146.641 566.939 145.642 564.731C145.533 564.532 145.492 564.291 145.528 564.058C145.564 563.825 145.673 563.617 145.835 563.476C146.002 563.341 146.207 563.289 146.406 563.332C146.605 563.375 146.782 563.508 146.898 563.704Z"
            fill="white" />
        <path d="M300.738 673.03L286.167 678.004L262.973 614.057L284.479 606.716L300.738 673.03Z"
            fill="#9E616A" />
        <path
            d="M335.587 441.284L320.554 460.204C320.554 460.204 241.38 501.591 241.38 522.875C241.38 544.16 260.422 636.393 268.439 643.487C273.269 647.784 271.086 652.412 273.481 658.965L301.512 647.035C301.512 647.035 299.508 639.94 301.512 636.393C303.516 632.845 301.512 630.48 301.512 630.48C301.512 630.48 298.505 631.663 299.508 628.115C300.51 624.568 300.51 623.385 299.508 622.203C298.505 621.02 295.499 610.378 295.499 610.378C295.499 610.378 296.501 567.809 282.47 552.437C282.47 552.437 347.613 529.97 355.631 514.598C363.649 499.225 365.653 443.649 365.653 443.649L335.587 441.284Z"
            fill="#2F2E41" />
        <path
            d="M306.679 682.832L258.124 694.655L257.997 693.931C256.963 688.017 257.962 681.861 260.775 676.816C263.587 671.771 267.983 668.251 272.995 667.03L272.996 667.03L280.477 656.931L298.413 660.841L302.652 659.809L306.679 682.832Z"
            fill="#2F2E41" />
        <path d="M353.747 601.209L335.152 615.918L373.73 668.514L386.329 658.547L353.747 601.209Z"
            fill="#9E616A" />
        <path
            d="M381.522 408.69C371.59 383.981 401.865 457.044 397.857 479.671C394.727 497.339 336.266 553.594 336.266 553.594C353.881 562.449 365.16 602.902 365.16 602.902C365.16 602.902 371.044 611.713 372.327 612.425C373.609 613.137 373.949 614.249 374.024 617.988C374.1 621.726 376.589 619.412 376.589 619.412C376.589 619.412 379.154 620.836 378.287 624.974C377.419 629.113 381.342 634.987 381.342 634.987L359.673 658.823C355.537 653.615 354.984 646.981 349.207 644.869C339.626 641.398 295.228 562.23 289.117 542.204C283.006 522.178 345.616 451.592 345.616 451.592L350.933 416.657L381.522 408.69Z"
            fill="#2F2E41" />
        <path
            d="M392.68 676.186L346.033 696L345.82 695.304C344.087 689.622 344.337 683.361 346.516 677.898C348.695 672.434 352.624 668.215 357.439 666.169L357.441 666.169L363.634 654.922L381.859 655.797L385.931 654.067L392.68 676.186Z"
            fill="#2F2E41" />
        <path
            d="M345.974 290.659L332.471 302.791L296.601 313.999C296.601 313.999 309.454 420.428 303.388 427.585C297.322 434.742 302.793 434.934 301.574 444.232C300.355 453.53 297.392 472.589 297.392 472.589C338.338 498.162 373.638 498.848 401.993 468.923C402.356 467.072 402.172 465.13 401.471 463.419C400.77 461.709 399.595 460.332 398.14 459.518C392.863 456.214 403.005 440.793 398.692 438.215C394.379 435.637 400.445 413.27 400.445 413.27L413.592 340.043L378.625 307.764L373.307 292.647L345.974 290.659Z"
            fill="#6C63FF" />
        <path
            d="M362.822 385.763C365.403 385.763 367.494 383.295 367.494 380.25C367.494 377.206 365.403 374.738 362.822 374.738C360.242 374.738 358.15 377.206 358.15 380.25C358.15 383.295 360.242 385.763 362.822 385.763Z"
            fill="#F2F2F2" />
        <path
            d="M359.797 283.907C374.549 283.907 386.507 269.798 386.507 252.394C386.507 234.989 374.549 220.88 359.797 220.88C345.046 220.88 333.088 234.989 333.088 252.394C333.088 269.798 345.046 283.907 359.797 283.907Z"
            fill="#9E616A" />
        <path opacity="0.1" d="M398.692 375.854L403.107 379.761L405.314 361.53L398.692 375.854Z"
            fill="black" />
        <path
            d="M298.717 313.896C298.717 313.896 293.199 312.593 289.888 324.313C286.577 336.033 269.956 397.749 269.956 405.562C269.956 413.375 350.042 430.409 350.042 430.409L342.176 397.847L305.796 384.419L298.717 313.896Z"
            fill="#6C63FF" />
        <path
            d="M353.55 425.581C360.669 425.581 366.44 418.772 366.44 410.372C366.44 401.972 360.669 395.163 353.55 395.163C346.43 395.163 340.659 401.972 340.659 410.372C340.659 418.772 346.43 425.581 353.55 425.581Z"
            fill="#9E616A" />
        <path opacity="0.1"
            d="M308.167 368.921L309.176 385.051L341.198 404.882L312.716 382.341L308.167 368.921Z"
            fill="black" />
        <path
            d="M383.518 362.571H383.103V349.144C383.103 348.123 382.933 347.113 382.602 346.17C382.271 345.227 381.785 344.37 381.174 343.649C380.562 342.927 379.836 342.355 379.037 341.964C378.238 341.574 377.381 341.373 376.516 341.373H352.406C351.541 341.373 350.684 341.574 349.885 341.964C349.086 342.355 348.36 342.927 347.749 343.649C347.137 344.37 346.652 345.227 346.321 346.17C345.99 347.113 345.819 348.123 345.819 349.144V422.807C345.819 423.827 345.99 424.838 346.321 425.781C346.652 426.723 347.137 427.58 347.748 428.302C348.36 429.023 349.086 429.596 349.885 429.986C350.684 430.377 351.541 430.578 352.406 430.578H376.516C377.381 430.578 378.238 430.377 379.037 429.986C379.836 429.596 380.562 429.023 381.174 428.302C381.785 427.58 382.271 426.723 382.602 425.781C382.933 424.838 383.103 423.827 383.103 422.807V372.129H383.518V362.571Z"
            fill="#F0F0F0" />
        <path
            d="M413.592 340.043C413.592 340.043 416.903 342.648 419.11 354.368C421.318 366.087 435.665 410.362 430.147 420.78C424.629 431.198 423 442.317 404.237 426.69L378.274 398.643L397.037 377.807L404.762 384.318L413.592 340.043Z"
            fill="#6C63FF" />
        <path
            d="M364.756 374.204C367.803 374.204 370.274 371.289 370.274 367.693C370.274 364.097 367.803 361.182 364.756 361.182C361.708 361.182 359.237 364.097 359.237 367.693C359.237 371.289 361.708 374.204 364.756 374.204Z"
            fill="#6C63FF" />
        <path
            d="M380.731 397.166C387.85 397.166 393.621 390.357 393.621 381.957C393.621 373.558 387.85 366.748 380.731 366.748C373.612 366.748 367.84 373.558 367.84 381.957C367.84 390.357 373.612 397.166 380.731 397.166Z"
            fill="#9E616A" />
        <path opacity="0.1" d="M303.717 419.843L343.49 428.629L304.766 430.383L303.717 419.843Z"
            fill="black" />
        <path
            d="M383.314 231.575C383.314 231.575 390.268 215.889 374.969 214.463C374.969 214.463 361.926 200.504 348.632 211.911C348.632 211.911 341.38 211.911 337.415 221.593C337.415 221.593 331.712 219.041 330.458 225.871C330.458 225.871 326.285 240.131 330.458 252.965C334.632 265.798 336.018 267.224 336.018 267.224C336.018 267.224 333.09 251.298 349.781 249.872C366.473 248.446 381.786 236.109 383.177 251.794C384.568 267.48 386.098 260.394 386.098 260.394C386.098 260.394 399.31 237.992 383.314 231.575Z"
            fill="#2F2E41" />
        <path
            d="M642.732 197.732H426.506C423.191 197.732 420.012 199.286 417.668 202.051C415.324 204.817 414.007 208.568 414.007 212.479V273.836C414.007 277.747 415.324 281.498 417.668 284.264C420.012 287.03 423.191 288.583 426.506 288.583H429.68V299.668C429.68 300.341 429.849 300.999 430.166 301.558C430.483 302.117 430.933 302.553 431.459 302.81C431.986 303.068 432.566 303.135 433.125 303.004C433.684 302.873 434.198 302.549 434.601 302.073L446.034 288.583H642.732C646.047 288.583 649.226 287.03 651.57 284.264C653.914 281.498 655.231 277.747 655.231 273.836V212.479C655.231 210.543 654.908 208.625 654.28 206.836C653.651 205.046 652.731 203.421 651.57 202.051C650.409 200.682 649.032 199.596 647.515 198.854C645.999 198.113 644.373 197.732 642.732 197.732Z"
            fill="#3F3D56" />
        <path
            d="M642.732 281.1H426.506C424.874 281.097 423.309 280.332 422.155 278.97C421.001 277.608 420.352 275.762 420.35 273.836V212.479C420.352 210.553 421.001 208.707 422.155 207.345C423.309 205.984 424.874 205.218 426.506 205.216H590.73C606.149 205.236 620.932 212.473 631.835 225.337C642.738 238.201 648.871 255.643 648.888 273.836C648.886 275.762 648.237 277.608 647.083 278.97C645.929 280.332 644.364 281.097 642.732 281.1Z"
            fill="white" />
        <path
            d="M581.056 218.636H488.637C486.685 218.636 485.103 220.503 485.103 222.806V224.114C485.103 226.417 486.685 228.284 488.637 228.284H581.056C583.008 228.284 584.59 226.417 584.59 224.114V222.806C584.59 220.503 583.008 218.636 581.056 218.636Z"
            fill="#6C63FF" />
        <path
            d="M600.477 237.932H469.216C467.264 237.932 465.682 239.799 465.682 242.102V243.41C465.682 245.713 467.264 247.58 469.216 247.58H600.477C602.429 247.58 604.011 245.713 604.011 243.41V242.102C604.011 239.799 602.429 237.932 600.477 237.932Z"
            fill="#E6E6E6" />
        <path
            d="M600.477 257.227H469.216C467.264 257.227 465.682 259.094 465.682 261.397V262.705C465.682 265.008 467.264 266.875 469.216 266.875H600.477C602.429 266.875 604.011 265.008 604.011 262.705V261.397C604.011 259.094 602.429 257.227 600.477 257.227Z"
            fill="#E6E6E6" />
        <path
            d="M778.258 0H609.718C608.439 -1.26206e-06 607.172 0.297322 605.99 0.874997C604.808 1.45267 603.734 2.29939 602.829 3.36679C601.924 4.43419 601.207 5.70139 600.717 7.09602C600.228 8.49065 599.976 9.98541 599.976 11.4949V59.3202C599.976 60.8297 600.228 62.3245 600.717 63.7191C601.207 65.1137 601.924 66.3809 602.829 67.4483C603.734 68.5157 604.808 69.3625 605.99 69.9401C607.172 70.5178 608.439 70.8151 609.718 70.8151H612.192V79.4556C612.192 79.9799 612.324 80.4924 612.571 80.9283C612.817 81.3643 613.168 81.7041 613.579 81.9047C613.989 82.1053 614.441 82.1578 614.877 82.0555C615.313 81.9533 615.713 81.7008 616.027 81.33L624.939 70.8151H778.258C779.537 70.8151 780.804 70.5178 781.986 69.9401C783.168 69.3625 784.242 68.5157 785.147 67.4483C786.051 66.3809 786.769 65.1137 787.259 63.7191C787.748 62.3245 788 60.8297 788 59.3202V11.4949C788 9.98541 787.748 8.49065 787.259 7.09602C786.769 5.70139 786.051 4.43419 785.147 3.36679C784.242 2.29939 783.168 1.45267 781.986 0.874997C780.804 0.297322 779.537 -1.26206e-06 778.258 0Z"
            fill="#F2F2F2" />
        <path
            d="M778.257 64.9819H609.718C608.446 64.9803 607.226 64.3832 606.326 63.3219C605.427 62.2605 604.921 60.8214 604.919 59.3204V11.4949C604.921 9.99387 605.427 8.55479 606.326 7.4934C607.226 6.43201 608.446 5.83499 609.718 5.83331H737.724C749.743 5.84945 761.265 11.4899 769.764 21.5172C778.262 31.5445 783.042 45.1397 783.056 59.3204C783.055 60.8214 782.548 62.2605 781.649 63.3219C780.749 64.3832 779.53 64.9803 778.257 64.9819Z"
            fill="white" />
        <path
            d="M729.752 16.2938H658.578C656.818 16.2938 655.392 17.9772 655.392 20.0539V20.0539C655.392 22.1305 656.818 23.8139 658.578 23.8139H729.752C731.512 23.8139 732.938 22.1305 732.938 20.0539C732.938 17.9772 731.512 16.2938 729.752 16.2938Z"
            fill="#F2F2F2" />
        <path
            d="M744.889 31.3341H643.441C641.681 31.3341 640.254 33.0176 640.254 35.0942V35.0942C640.254 37.1708 641.681 38.8543 643.441 38.8543H744.889C746.649 38.8543 748.076 37.1708 748.076 35.0942C748.076 33.0176 746.649 31.3341 744.889 31.3341Z"
            fill="#F2F2F2" />
        <path
            d="M744.889 46.3745H643.441C641.681 46.3745 640.254 48.058 640.254 50.1346V50.1346C640.254 52.2112 641.681 53.8947 643.441 53.8947H744.889C746.649 53.8947 748.076 52.2112 748.076 50.1346C748.076 48.058 746.649 46.3745 744.889 46.3745Z"
            fill="#F2F2F2" />
        <path
            d="M401.225 78.8059H569.765C571.044 78.8059 572.311 79.1032 573.493 79.6809C574.675 80.2586 575.749 81.1053 576.654 82.1727C577.558 83.2401 578.276 84.5073 578.765 85.9019C579.255 87.2965 579.507 88.7913 579.507 90.3008V138.126C579.507 139.636 579.255 141.13 578.765 142.525C578.276 143.92 577.558 145.187 576.654 146.254C575.749 147.322 574.675 148.168 573.493 148.746C572.311 149.324 571.044 149.621 569.765 149.621H567.291V158.261C567.291 158.786 567.159 159.298 566.912 159.734C566.665 160.17 566.314 160.51 565.904 160.711C565.493 160.911 565.041 160.964 564.606 160.861C564.17 160.759 563.769 160.507 563.455 160.136L554.543 149.621H401.225C399.946 149.621 398.679 149.324 397.497 148.746C396.315 148.168 395.241 147.322 394.336 146.254C393.431 145.187 392.714 143.92 392.224 142.525C391.734 141.13 391.482 139.636 391.482 138.126V90.3008C391.482 88.7913 391.734 87.2965 392.224 85.9019C392.714 84.5073 393.431 83.2401 394.336 82.1727C395.241 81.1053 396.315 80.2586 397.497 79.6809C398.679 79.1032 399.946 78.8059 401.225 78.8059Z"
            fill="#F2F2F2" />
        <path
            d="M396.427 138.126C396.44 123.946 401.221 110.35 409.719 100.323C418.218 90.2958 429.74 84.6554 441.759 84.6392H569.765C571.037 84.6409 572.257 85.2379 573.156 86.2993C574.056 87.3607 574.562 88.7997 574.563 90.3008V138.126C574.562 139.627 574.056 141.066 573.156 142.128C572.257 143.189 571.037 143.786 569.765 143.788H401.225C399.953 143.786 398.733 143.189 397.834 142.128C396.934 141.066 396.428 139.627 396.427 138.126Z"
            fill="white" />
        <path
            d="M449.731 102.62L520.904 102.62C522.664 102.62 524.091 100.936 524.091 98.8598C524.091 96.7831 522.664 95.0997 520.904 95.0997L449.731 95.0997C447.971 95.0997 446.544 96.7831 446.544 98.8598C446.544 100.936 447.971 102.62 449.731 102.62Z"
            fill="#F2F2F2" />
        <path
            d="M434.594 117.66L536.042 117.66C537.802 117.66 539.229 115.977 539.229 113.9V113.9C539.229 111.823 537.802 110.14 536.042 110.14L434.594 110.14C432.834 110.14 431.407 111.823 431.407 113.9C431.407 115.977 432.834 117.66 434.594 117.66Z"
            fill="#F2F2F2" />
        <path
            d="M434.594 132.701L536.042 132.701C537.802 132.701 539.229 131.017 539.229 128.94C539.229 126.864 537.802 125.18 536.042 125.18L434.594 125.18C432.834 125.18 431.407 126.864 431.407 128.94C431.407 131.017 432.834 132.701 434.594 132.701Z"
            fill="#F2F2F2" />
        <path
            d="M700.893 695.93H0.969843C0.712624 695.93 0.465942 695.809 0.28406 695.595C0.102178 695.38 0 695.089 0 694.785C0 694.482 0.102178 694.191 0.28406 693.976C0.465942 693.762 0.712624 693.641 0.969843 693.641H700.893C701.15 693.641 701.397 693.762 701.579 693.976C701.761 694.191 701.863 694.482 701.863 694.785C701.863 695.089 701.761 695.38 701.579 695.595C701.397 695.809 701.15 695.93 700.893 695.93Z"
            fill="#CCCCCC" />
    </g>
    <defs>
        <clipPath id="clip0_77_1006">
            <rect width="788" height="696" fill="white" />
        </clipPath>
    </defs>
</svg>